ply
format ascii 1.0
comment PCL generated
element vertex 25
property float x
property float y
property float z
property float nx
property float ny
property float nz
property float curvature
element camera 1
property float view_px
property float view_py
property float view_pz
property float x_axisx
property float x_axisy
property float x_axisz
property float y_axisx
property float y_axisy
property float y_axisz
property float z_axisx
property float z_axisy
property float z_axisz
property float focal
property float scalex
property float scaley
property float centerx
property float centery
property int viewportx
property int viewporty
property float k1
property float k2
end_header
1.0950514e-17 -0.51792693 1.2401578 1.9181222e-17 -0.90721512 0.42066702 0.035740476
-5.1873013e-18 0.24534403 2.8862362 1.9181222e-17 -0.90721512 0.42066702 0.035740476
-2.1325117e-17 1.008615 4.5323148 1.9181222e-17 -0.90721512 0.42066702 0.035740476
-1.3299721e-18 2.1258075 6.9416642 9.5906108e-18 -0.90721512 0.42066702 0.035740476
1.4751932e-17 3.243 9.3510141 1.7679227e-17 -0.90721512 0.42066702 0.035740476
1 -0.89956242 0.41711858 0 -0.90721512 0.42066702 0.035740476
1 -0.13629146 2.0631971 3.8362443e-17 -0.90721512 0.42066702 0.035740476
1 0.62697953 3.7092755 0 -0.90721512 0.42066702 0.035740476
1 1.5672113 5.7369895 -1.9181222e-17 -0.90721512 0.42066702 0.035740476
1 2.6844037 8.1463394 8.0886171e-18 -0.90721512 0.42066702 0.035740476
2 -0.51792693 1.2401578 0 -0.90721512 0.42066702 0.035740476
2 0.24534403 2.8862362 0 -0.90721512 0.42066702 0.035740476
2 1.008615 4.5323148 0 -0.90721512 0.42066702 0.035740476
2 2.1258075 6.9416642 0 -0.90721512 0.42066702 0.035740476
2 3.243 9.3510141 0 -0.90721512 0.42066702 0.035740476
3 -0.89956242 0.41711858 -1.9181222e-17 -0.90721512 0.42066702 0.035740476
3 -0.13629146 2.0631971 0 -0.90721512 0.42066702 0.035740476
3 0.62697953 3.7092755 0 -0.90721512 0.42066702 0.035740476
3 1.5672113 5.7369895 1.9181222e-17 -0.90721512 0.42066702 0.035740476
3 2.6844037 8.1463394 -8.0886171e-18 -0.90721512 0.42066702 0.035740476
4 -0.51792693 1.2401578 -1.9181222e-17 -0.90721512 0.42066702 0.035740476
4 0.24534403 2.8862362 -1.9181222e-17 -0.90721512 0.42066702 0.035740476
4 1.008615 4.5323148 -1.9181222e-17 -0.90721512 0.42066702 0.035740476
4 2.1258075 6.9416642 -9.5906108e-18 -0.90721512 0.42066702 0.035740476
4 3.243 9.3510141 -1.7679227e-17 -0.90721512 0.42066702 0.035740476
0 0 0 1 0 0 0 1 0 0 0 1 0 0 0 0 0 25 1 0 0
