# VolCart OBJ File
# VC OBJ Exporter v1.0
# Vertices: 100
v 5 0 0
vn 0.968889 0.214293 -5.55377e-18
v 4.75528 1.54508 0
vn 0.9085 0.354523 -2.47879e-18
v 4.04508 2.93893 0
vn 0.764552 0.586918 5.57074e-18
v 2.93893 4.04508 0
vn 0.545765 0.794452 5.14056e-18
v 1.54508 4.75528 0
vn 0.273554 0.92422 1.21494e-18
v 3.06162e-16 5 0
vn -0.0254344 0.963518 4.08117e-18
v -1.54508 4.75528 0
vn -0.321933 0.9085 1.11425e-17
v -2.93893 4.04508 0
vn -0.586918 0.764552 1.20823e-17
v -4.04508 2.93893 0
vn -0.780353 0.589158 1.93766e-18
v -4.75528 1.54508 0
vn -0.865465 0.489146 -4.80776e-18
v 5 0 1
vn 0.967546 0.218425 -6.09071e-18
v 4.75528 1.54508 1
vn 0.910019 0.348072 -2.11148e-18
v 4.04508 2.93893 1
vn 0.769638 0.57618 4.3955e-18
v 2.93893 4.04508 1
vn 0.55392 0.785811 6.18261e-18
v 1.54508 4.75528 1
vn 0.28398 0.918521 1.8112e-18
v 3.06162e-16 5 1
vn -0.0137573 0.961321 4.02717e-18
v -1.54508 4.75528 1
vn -0.310148 0.910019 1.18145e-17
v -2.93893 4.04508 1
vn -0.57618 0.769638 1.22774e-17
v -4.04508 2.93893 1
vn -0.771162 0.599004 3.64453e-18
v -4.75528 1.54508 1
vn -0.860357 0.496177 -5.9965e-18
v 5 0 2
vn 0.971575 0.206027 -5.88e-18
v 4.75528 1.54508 2
vn 0.915017 0.340985 -3.37157e-18
v 4.04508 2.93893 2
vn 0.776948 0.569857 5.67622e-18
v 2.93893 4.04508 2
vn 0.562826 0.782057 5.89856e-18
v 1.54508 4.75528 2
vn 0.293611 0.917703 2.14919e-18
v 3.06162e-16 5 2
vn -0.0043454 0.963518 4.22567e-18
v -1.54508 4.75528 2
vn -0.301876 0.915017 1.19369e-17
v -2.93893 4.04508 2
vn -0.569857 0.776948 1.42943e-17
v -4.04508 2.93893 2
vn -0.769971 0.600021 2.88033e-18
v -4.75528 1.54508 2
vn -0.860357 0.496177 -5.295e-18
v 5 0 3
vn 0.971575 0.206027 -5.9732e-18
v 4.75528 1.54508 3
vn 0.91636 0.336852 -3.44147e-18
v 4.04508 2.93893 3
vn 0.779502 0.566342 5.24414e-18
v 2.93893 4.04508 3
vn 0.566342 0.779502 6.61489e-18
v 1.54508 4.75528 3
vn 0.297743 0.91636 2.13149e-18
v 3.06162e-16 5 3
vn 1.51394e-16 0.961321 4.15768e-18
v -1.54508 4.75528 3
vn -0.297064 0.91427 1.23169e-17
v -2.93893 4.04508 3
vn -0.56505 0.777725 1.37686e-17
v -4.04508 2.93893 3
vn -0.764541 0.605626 4.02592e-18
v -4.75528 1.54508 3
vn -0.860357 0.496177 -6.37513e-18
v 5 0 4
vn 0.971575 0.206027 -5.9732e-18
v 4.75528 1.54508 4
vn 0.91636 0.336852 -3.44147e-18
v 4.04508 2.93893 4
vn 0.779502 0.566342 5.24414e-18
v 2.93893 4.04508 4
vn 0.566342 0.779502 6.61489e-18
v 1.54508 4.75528 4
vn 0.297743 0.91636 2.13149e-18
v 3.06162e-16 5 4
vn 1.38778e-16 0.963518 4.15577e-18
v -1.54508 4.75528 4
vn -0.297743 0.91636 1.21442e-17
v -2.93893 4.04508 4
vn -0.566342 0.779502 1.46175e-17
v -4.04508 2.93893 4
vn -0.767417 0.603536 3.71684e-18
v -4.75528 1.54508 4
vn -0.860357 0.496177 -6.37513e-18
v 5 0 5
vn 0.971575 0.206027 -5.9732e-18
v 4.75528 1.54508 5
vn 0.91636 0.336852 -3.44147e-18
v 4.04508 2.93893 5
vn 0.779502 0.566342 5.24414e-18
v 2.93893 4.04508 5
vn 0.566342 0.779502 6.61489e-18
v 1.54508 4.75528 5
vn 0.297743 0.91636 2.13149e-18
v 3.06162e-16 5 5
vn 1.4803e-16 0.963518 4.15577e-18
v -1.54508 4.75528 5
vn -0.297743 0.91636 1.21442e-17
v -2.93893 4.04508 5
vn -0.566342 0.779502 1.46175e-17
v -4.04508 2.93893 5
vn -0.767417 0.603536 3.71684e-18
v -4.75528 1.54508 5
vn -0.860357 0.496177 -6.37513e-18
v 5 0 6
vn 0.969561 0.212226 -6.30042e-18
v 4.75528 1.54508 6
vn 0.91427 0.339728 -2.73536e-18
v 4.04508 2.93893 6
vn 0.777725 0.56505 4.62934e-18
v 2.93893 4.04508 6
vn 0.566342 0.779502 6.61489e-18
v 1.54508 4.75528 6
vn 0.297743 0.91636 2.13149e-18
v 3.06162e-16 5 6
vn 1.66533e-16 0.963518 4.15577e-18
v -1.54508 4.75528 6
vn -0.297743 0.91636 1.21442e-17
v -2.93893 4.04508 6
vn -0.566342 0.779502 1.46175e-17
v -4.04508 2.93893 6
vn -0.767417 0.603536 3.71684e-18
v -4.75528 1.54508 6
vn -0.860357 0.496177 -6.37513e-18
v 5 0 7
vn 0.971575 0.206027 -6.15962e-18
v 4.75528 1.54508 7
vn 0.917703 0.332719 -3.51138e-18
v 4.04508 2.93893 7
vn 0.782057 0.562826 4.81206e-18
v 2.93893 4.04508 7
vn 0.569857 0.776948 7.33122e-18
v 1.54508 4.75528 7
vn 0.301876 0.915017 2.1138e-18
v 3.06162e-16 5 7
vn 0.0043454 0.963518 4.08586e-18
v -1.54508 4.75528 7
vn -0.293611 0.917703 1.23514e-17
v -2.93893 4.04508 7
vn -0.562826 0.782057 1.49407e-17
v -4.04508 2.93893 7
vn -0.764863 0.607052 4.55335e-18
v -4.75528 1.54508 7
vn -0.860357 0.496177 -6.9152e-18
v 5 0 8
vn 0.971575 0.206027 -6.615e-18
v 4.75528 1.54508 8
vn 0.918521 0.331385 -3.4355e-18
v 4.04508 2.93893 8
vn 0.785811 0.55392 4.86317e-18
v 2.93893 4.04508 8
vn 0.57618 0.769638 6.76419e-18
v 1.54508 4.75528 8
vn 0.310148 0.910019 3.18298e-18
v 3.06162e-16 5 8
vn 0.0137573 0.961321 4.28819e-18
v -1.54508 4.75528 8
vn -0.28398 0.918521 1.28193e-17
v -2.93893 4.04508 8
vn -0.55392 0.785811 1.52598e-17
v -4.04508 2.93893 8
vn -0.757919 0.612247 4.84919e-18
v -4.75528 1.54508 8
vn -0.852694 0.506723 -5.30969e-18
v 5 0 9
vn 0.97426 0.197762 -6.67225e-18
v 4.75528 1.54508 9
vn 0.92422 0.319181 -4.50902e-18
v 4.04508 2.93893 9
vn 0.794452 0.545765 4.91755e-18
v 2.93893 4.04508 9
vn 0.586918 0.764552 8.08923e-18
v 1.54508 4.75528 9
vn 0.321933 0.9085 3.04805e-18
v 3.06162e-16 5 9
vn 0.0254344 0.963518 4.23036e-18
v -1.54508 4.75528 9
vn -0.273554 0.92422 1.31458e-17
v -2.93893 4.04508 9
vn -0.545765 0.794452 1.71527e-17
v -4.04508 2.93893 9
vn -0.754481 0.617914 6.1036e-18
v -4.75528 1.54508 9
vn -0.855248 0.503208 -6.32231e-18
# Faces: 162
f 12//12 11//11 1//1 
f 12//12 1//1 2//2 
f 13//13 12//12 2//2 
f 13//13 2//2 3//3 
f 14//14 13//13 3//3 
f 14//14 3//3 4//4 
f 15//15 14//14 4//4 
f 15//15 4//4 5//5 
f 16//16 15//15 5//5 
f 16//16 5//5 6//6 
f 17//17 16//16 6//6 
f 17//17 6//6 7//7 
f 18//18 17//17 7//7 
f 18//18 7//7 8//8 
f 19//19 18//18 8//8 
f 19//19 8//8 9//9 
f 20//20 19//19 9//9 
f 20//20 9//9 10//10 
f 22//22 21//21 11//11 
f 22//22 11//11 12//12 
f 23//23 22//22 12//12 
f 23//23 12//12 13//13 
f 24//24 23//23 13//13 
f 24//24 13//13 14//14 
f 25//25 24//24 14//14 
f 25//25 14//14 15//15 
f 26//26 25//25 15//15 
f 26//26 15//15 16//16 
f 27//27 26//26 16//16 
f 27//27 16//16 17//17 
f 28//28 27//27 17//17 
f 28//28 17//17 18//18 
f 29//29 28//28 18//18 
f 29//29 18//18 19//19 
f 30//30 29//29 19//19 
f 30//30 19//19 20//20 
f 32//32 31//31 21//21 
f 32//32 21//21 22//22 
f 33//33 32//32 22//22 
f 33//33 22//22 23//23 
f 34//34 33//33 23//23 
f 34//34 23//23 24//24 
f 35//35 34//34 24//24 
f 35//35 24//24 25//25 
f 36//36 35//35 25//25 
f 36//36 25//25 26//26 
f 37//37 36//36 26//26 
f 37//37 26//26 27//27 
f 38//38 37//37 27//27 
f 38//38 27//27 28//28 
f 39//39 38//38 28//28 
f 39//39 28//28 29//29 
f 40//40 39//39 29//29 
f 40//40 29//29 30//30 
f 42//42 41//41 31//31 
f 42//42 31//31 32//32 
f 43//43 42//42 32//32 
f 43//43 32//32 33//33 
f 44//44 43//43 33//33 
f 44//44 33//33 34//34 
f 45//45 44//44 34//34 
f 45//45 34//34 35//35 
f 46//46 45//45 35//35 
f 46//46 35//35 36//36 
f 47//47 46//46 36//36 
f 47//47 36//36 37//37 
f 48//48 47//47 37//37 
f 48//48 37//37 38//38 
f 49//49 48//48 38//38 
f 49//49 38//38 39//39 
f 50//50 49//49 39//39 
f 50//50 39//39 40//40 
f 52//52 51//51 41//41 
f 52//52 41//41 42//42 
f 53//53 52//52 42//42 
f 53//53 42//42 43//43 
f 54//54 53//53 43//43 
f 54//54 43//43 44//44 
f 55//55 54//54 44//44 
f 55//55 44//44 45//45 
f 56//56 55//55 45//45 
f 56//56 45//45 46//46 
f 57//57 56//56 46//46 
f 57//57 46//46 47//47 
f 58//58 57//57 47//47 
f 58//58 47//47 48//48 
f 59//59 58//58 48//48 
f 59//59 48//48 49//49 
f 60//60 59//59 49//49 
f 60//60 49//49 50//50 
f 62//62 61//61 51//51 
f 62//62 51//51 52//52 
f 63//63 62//62 52//52 
f 63//63 52//52 53//53 
f 64//64 63//63 53//53 
f 64//64 53//53 54//54 
f 65//65 64//64 54//54 
f 65//65 54//54 55//55 
f 66//66 65//65 55//55 
f 66//66 55//55 56//56 
f 67//67 66//66 56//56 
f 67//67 56//56 57//57 
f 68//68 67//67 57//57 
f 68//68 57//57 58//58 
f 69//69 68//68 58//58 
f 69//69 58//58 59//59 
f 70//70 69//69 59//59 
f 70//70 59//59 60//60 
f 72//72 71//71 61//61 
f 72//72 61//61 62//62 
f 73//73 72//72 62//62 
f 73//73 62//62 63//63 
f 74//74 73//73 63//63 
f 74//74 63//63 64//64 
f 75//75 74//74 64//64 
f 75//75 64//64 65//65 
f 76//76 75//75 65//65 
f 76//76 65//65 66//66 
f 77//77 76//76 66//66 
f 77//77 66//66 67//67 
f 78//78 77//77 67//67 
f 78//78 67//67 68//68 
f 79//79 78//78 68//68 
f 79//79 68//68 69//69 
f 80//80 79//79 69//69 
f 80//80 69//69 70//70 
f 82//82 81//81 71//71 
f 82//82 71//71 72//72 
f 83//83 82//82 72//72 
f 83//83 72//72 73//73 
f 84//84 83//83 73//73 
f 84//84 73//73 74//74 
f 85//85 84//84 74//74 
f 85//85 74//74 75//75 
f 86//86 85//85 75//75 
f 86//86 75//75 76//76 
f 87//87 86//86 76//76 
f 87//87 76//76 77//77 
f 88//88 87//87 77//77 
f 88//88 77//77 78//78 
f 89//89 88//88 78//78 
f 89//89 78//78 79//79 
f 90//90 89//89 79//79 
f 90//90 79//79 80//80 
f 92//92 91//91 81//81 
f 92//92 81//81 82//82 
f 93//93 92//92 82//82 
f 93//93 82//82 83//83 
f 94//94 93//93 83//83 
f 94//94 83//83 84//84 
f 95//95 94//94 84//84 
f 95//95 84//84 85//85 
f 96//96 95//95 85//85 
f 96//96 85//85 86//86 
f 97//97 96//96 86//86 
f 97//97 86//86 87//87 
f 98//98 97//97 87//87 
f 98//98 87//87 88//88 
f 99//99 98//98 88//88 
f 99//99 88//88 89//89 
f 100//100 99//99 89//89 
f 100//100 89//89 90//90 
