ply
format ascii 1.0
comment Created by particle simulation https://github.com/viscenter/registration-toolkit
element dimensions 1
property float width
property float height
element vertex 8
property float x
property float y
property float z
property float nx
property float ny
property float nz
property float s
property float t
property uchar red
property uchar green
property uchar blue
element face 0
property list uchar int vertex_indices
end_header
8 1
0 0 0 0 0 0 0 0 0 0 0
0 5 0 0 0 0 0 0 0 0 0
5 5 0 0 0 0 0 0 5 175 5
5 0 0 0 0 0 0 0 5 175 5
0 0 5 0 0 0 0 0 5 5 225
0 5 5 0 0 0 0 0 5 5 225
5 5 5 0 0 0 0 0 10 180 230
5 0 5 0 0 0 0 0 10 180 230
