ply
format ascii 1.0
comment Created by particle simulation https://github.com/viscenter/registration-toolkit
element vertex 8
property float x
property float y
property float z
property float nx
property float ny
property float nz
element face 12
property list uchar int vertex_indices
end_header
0 0 0 0 -0.2 -0.4
0 5 0 0.25 0 -0.25
5 5 0 0 -0.2 -0.4
5 0 0 -0.25 0 -0.25
0 0 5 -0.25 0 -0.25
0 5 5 0 0.2 -0.4
5 5 5 0.25 0 -0.25
5 0 5 0 0.2 -0.4
3 0 1 2
3 0 1 5
3 0 2 3
3 0 3 4
3 0 4 5
3 1 2 6
3 1 5 6
3 2 3 7
3 2 6 7
3 3 4 7
3 4 5 7
3 5 6 7
