ply
format ascii 1.0
comment Created by particle simulation https://github.com/viscenter/registration-toolkit
element vertex 8
property float x
property float y
property float z
property float nx
property float ny
property float nz
element face 12
property list uchar int vertex_indices
end_header
0 0 0 -0.2 -0.4 -0.4
0 5 0 -0.5 0.25 -0.25
5 5 0 0.2 0.4 -0.4
5 0 0 0.5 -0.25 -0.25
0 0 5 -0.5 -0.25 0.25
0 5 5 -0.2 0.4 0.4
5 5 5 0.5 0.25 0.25
5 0 5 0.2 -0.4 0.4
3 0 1 2
3 0 2 3
3 3 2 6
3 3 6 7
3 7 6 5
3 7 5 4
3 4 5 1
3 4 1 0
3 0 3 7
3 0 7 4
3 5 6 2
3 5 2 1
