# VolCart OBJ File
# VC OBJ Exporter v1.0
# Vertices: 25
v 5 0 0
vn 0.951056 0.309018 0
v 4.04508 2.93893 0
vn 0.867604 0.497256 0
v 1.54508 4.75528 0
vn 0.409626 0.912253 0
v -1.54508 4.75528 0
vn -0.204813 0.978801 0
v -4.04508 2.93893 0
vn -0.587784 0.809018 0
v 5 0 2
vn 0.951056 0.309018 0
v 4.04508 2.93893 2
vn 0.809016 0.587786 0
v 1.54508 4.75528 2
vn 0.309017 0.951057 0
v -1.54508 4.75528 2
vn -0.309017 0.951057 0
v -4.04508 2.93893 2
vn -0.587784 0.809018 0
v 5 0 4
vn 0.951056 0.309018 0
v 4.04508 2.93893 4
vn 0.809016 0.587786 0
v 1.54508 4.75528 4
vn 0.309017 0.951057 0
v -1.54508 4.75528 4
vn -0.309017 0.951057 0
v -4.04508 2.93893 4
vn -0.587784 0.809018 0
v 5 0 6
vn 0.951056 0.309018 0
v 4.04508 2.93893 6
vn 0.809016 0.587786 0
v 1.54508 4.75528 6
vn 0.309017 0.951057 0
v -1.54508 4.75528 6
vn -0.309017 0.951057 0
v -4.04508 2.93893 6
vn -0.587784 0.809018 0
v 5 0 8
vn 0.951056 0.309018 0
v 4.04508 2.93893 8
vn 0.741022 0.671481 0
v 1.54508 4.75528 8
vn 0.204813 0.978801 0
v -1.54508 4.75528 8
vn -0.409626 0.912253 0
v -4.04508 2.93893 8
vn -0.587784 0.809018 0
# Faces: 32
f 2//2 7//7 6//6 
f 1//1 2//2 6//6 
f 3//3 8//8 7//7 
f 2//2 3//3 7//7 
f 4//4 9//9 8//8 
f 3//3 4//4 8//8 
f 5//5 10//10 9//9 
f 4//4 5//5 9//9 
f 7//7 12//12 11//11 
f 6//6 7//7 11//11 
f 8//8 13//13 12//12 
f 7//7 8//8 12//12 
f 9//9 14//14 13//13 
f 8//8 9//9 13//13 
f 10//10 15//15 14//14 
f 9//9 10//10 14//14 
f 12//12 17//17 16//16 
f 11//11 12//12 16//16 
f 13//13 18//18 17//17 
f 12//12 13//13 17//17 
f 14//14 19//19 18//18 
f 13//13 14//14 18//18 
f 15//15 20//20 19//19 
f 14//14 15//15 19//19 
f 17//17 22//22 21//21 
f 16//16 17//17 21//21 
f 18//18 23//23 22//22 
f 17//17 18//18 22//22 
f 19//19 24//24 23//23 
f 18//18 19//19 23//23 
f 20//20 25//25 24//24 
f 19//19 20//20 24//24 
