# VolCart OBJ File
# VC OBJ Exporter v1.0
# Vertices: 59
v 0 0 0
vn 0 1 0
v 0 0 1
vn 0 1 0
v 0 0 2
vn 0 1 0
v 0 0 3
vn 0 1 0
v 0 0 4
vn 0 1 0
v 0 0 5
vn 0 1 0
v 0 0 6
vn 0 1 0
v 0 0 7
vn 0 1 0
v 0 0 8
vn 0 1 0
v 0 0 9
vn 0 1 0
v 1 0 0
vn 0 1 0
v 1 0 1
vn 0 1 0
v 1 0 2
vn 0 1 0
v 1 0 3
vn 0 1 0
v 1.25 0 5.5
vn 0 1 0
v 1 0 8
vn 0 1 0
v 1 0 9
vn 0 1 0
v 2 0 0
vn 0 1 0
v 2.01935 0 3.01562
vn 0 1 0
v 2 0 2
vn 0 1 0
v 2 0 3
vn 0 1 0
v 2 0 4
vn 0 1 0
v 2 0 9
vn 0 1 0
v 3 0 0
vn 0 1 0
v 3 0 1
vn 0 1 0
v 3 0 4
vn 0 1 0
v 3.5 0 5
vn 0 -1 0
v 3 0 9
vn 0 1 0
v 4 0 0
vn 0 1 0
v 4 0 1
vn 0 1 0
v 4 0 8
vn 0 1 0
v 4 0 9
vn 0 1 0
v 5 0 0
vn 0 1 0
v 5 0 1
vn 0 1 0
v 5 0 8
vn 0 1 0
v 5 0 9
vn 0 1 0
v 6 0 0
vn 0 1 0
v 6 0 1
vn 0 1 0
v 6 0 9
vn 0 1 0
v 7 0 0
vn 0 1 0
v 7 0 1
vn 0 1 0
v 7 0 2
vn 0 1 0
v 7 0 3
vn 0 1 0
v 7 0 9
vn 0 1 0
v 8 0 0
vn 0 1 0
v 8 0 1
vn 0 1 0
v 8 0 2
vn 0 1 0
v 8 0 3
vn 0 1 0
v 8 0 9
vn 0 1 0
v 9 0 0
vn 0 1 0
v 9 0 1
vn 0 1 0
v 9 0 2
vn 0 1 0
v 9 0 3
vn 0 1 0
v 9 0 4
vn 0 1 0
v 9 0 5
vn 0 1 0
v 9 0 6
vn 0 1 0
v 9 0 7
vn 0 1 0
v 9 0 8
vn 0 1 0
v 9 0 9
vn 0 1 0
# Faces: 80
f 12//12 11//11 1//1 
f 12//12 1//1 2//2 
f 13//13 12//12 2//2 
f 13//13 2//2 3//3 
f 14//14 13//13 3//3 
f 14//14 3//3 4//4 
f 19//19 14//14 4//4 
f 19//19 4//4 5//5 
f 15//15 19//19 5//5 
f 15//15 5//5 6//6 
f 15//15 6//6 7//7 
f 19//19 15//15 7//7 
f 19//19 7//7 8//8 
f 16//16 19//19 8//8 
f 16//16 8//8 9//9 
f 17//17 16//16 9//9 
f 17//17 9//9 10//10 
f 19//19 18//18 11//11 
f 19//19 11//11 12//12 
f 20//20 19//19 12//12 
f 20//20 12//12 13//13 
f 21//21 20//20 13//13 
f 21//21 13//13 14//14 
f 22//22 21//21 14//14 
f 22//22 14//14 19//19 
f 23//23 19//19 16//16 
f 23//23 16//16 17//17 
f 25//25 24//24 18//18 
f 25//25 18//18 19//19 
f 19//19 20//20 21//21 
f 26//26 19//19 21//21 
f 26//26 21//21 22//22 
f 27//27 26//26 22//22 
f 27//27 22//22 19//19 
f 28//28 19//19 23//23 
f 30//30 29//29 24//24 
f 30//30 24//24 25//25 
f 19//19 30//30 25//25 
f 27//27 19//19 26//26 
f 32//32 31//31 19//19 
f 32//32 19//19 28//28 
f 34//34 33//33 29//29 
f 34//34 29//29 30//30 
f 19//19 34//34 30//30 
f 35//35 19//19 31//31 
f 36//36 35//35 31//31 
f 36//36 31//31 32//32 
f 38//38 37//37 33//33 
f 38//38 33//33 34//34 
f 19//19 38//38 34//34 
f 39//39 19//19 35//35 
f 39//39 35//35 36//36 
f 41//41 40//40 37//37 
f 41//41 37//37 38//38 
f 42//42 41//41 38//38 
f 42//42 38//38 19//19 
f 43//43 42//42 19//19 
f 44//44 19//19 39//39 
f 46//46 45//45 40//40 
f 46//46 40//40 41//41 
f 47//47 46//46 41//41 
f 47//47 41//41 42//42 
f 48//48 47//47 42//42 
f 48//48 42//42 43//43 
f 19//19 48//48 43//43 
f 49//49 19//19 44//44 
f 51//51 50//50 45//45 
f 51//51 45//45 46//46 
f 52//52 51//51 46//46 
f 52//52 46//46 47//47 
f 53//53 52//52 47//47 
f 53//53 47//47 48//48 
f 54//54 53//53 48//48 
f 54//54 48//48 19//19 
f 55//55 54//54 19//19 
f 56//56 55//55 19//19 
f 57//57 56//56 19//19 
f 58//58 57//57 19//19 
f 59//59 58//58 19//19 
f 59//59 19//19 49//49 
