# VolCart OBJ File
# VC OBJ Exporter v1.0
# Vertices: 14
v 0 0 0
vn -9.71262e-06 -2.72446e-05 1
v 993.504 181.176 999.839
vn -0.34324 -0.0625935 0.93716
v 769.812 653.655 999.839
vn -0.313134 -0.265885 0.91173
v 339.849 950.987 999.839
vn -0.192442 -0.457429 0.868173
v -53.9147 1000.47 999.983
vn 0.0295432 -0.596601 0.801994
v -432.14 912.759 999.839
vn 0.306352 -0.597251 0.741242
v -789.976 622.935 999.995
vn 0.0986631 -0.0782719 0.992038
v -987.211 212.813 999.839
vn 0.651509 -0.102605 0.75167
v -946.352 -372.53 999.649
vn 0.508801 0.201294 0.83702
v -574.403 -830.624 999.839
vn 0.28442 0.34653 0.89388
v -206.864 -980.336 999.983
vn 0.0797349 0.36988 0.925652
v 181.176 -993.504 999.839
vn -0.0795342 0.325739 0.942108
v 653.655 -769.812 999.839
vn -0.204257 0.240555 0.948901
v 950.987 -339.849 999.839
vn -0.300101 0.107245 0.94786
# Faces: 24
f 2//2 3//3 1//1 
f 2//2 3//3 7//7 
f 3//3 4//4 1//1 
f 3//3 4//4 7//7 
f 4//4 5//5 1//1 
f 4//4 5//5 7//7 
f 5//5 6//6 1//1 
f 5//5 6//6 7//7 
f 6//6 7//7 1//1 
f 7//7 8//8 1//1 
f 8//8 9//9 1//1 
f 8//8 9//9 7//7 
f 9//9 10//10 1//1 
f 9//9 10//10 7//7 
f 10//10 11//11 1//1 
f 10//10 11//11 7//7 
f 11//11 12//12 1//1 
f 11//11 12//12 7//7 
f 12//12 13//13 1//1 
f 12//12 13//13 7//7 
f 13//13 14//14 1//1 
f 13//13 14//14 7//7 
f 14//14 2//2 1//1 
f 14//14 2//2 7//7 
