# VolCart OBJ File
# VC OBJ Exporter v1.0
# Vertices: 44
v 0 0 0
vn 0 1 0
v 0 0 1
vn 0 1 0
v 0 0 2
vn 0 1 0
v 0 0 3
vn 0 1 0
v 0 0 4
vn 0 1 0
v 0 0 5
vn 0 1 0
v 0 0 6
vn 0 1 0
v 0 0 7
vn 0 1 0
v 0 0 8
vn 0 1 0
v 0 0 9
vn 0 1 0
v 1 0 0
vn 0 1 0
v 1 0 1.5
vn 0 1 0
v 1 0 3
vn 0 1 0
v 1 0 8
vn 0 1 0
v 1 0 9
vn 0 1 0
v 2 0 0
vn 0 1 0
v 2 0 9
vn 0 1 0
v 3 0 0
vn 0 1 0
v 3 0 1
vn 0 1 0
v 4.68749 0 3.11548
vn 0 1 0
v 3 0 9
vn 0 1 0
v 4 0 0
vn 0 1 0
v 4 0 8
vn 0 1 0
v 4 0 9
vn 0 1 0
v 5 0 0
vn 0 1 0
v 5 0 9
vn 0 1 0
v 6 0 0
vn 0 1 0
v 6 0 9
vn 0 1 0
v 7 0 0
vn 0 1 0
v 6.5 0 8
vn 0 1 0
v 7 0 9
vn 0 1 0
v 8 0 0
vn 0 1 0
v 8 0 1
vn 0 1 0
v 8 0 9
vn 0 1 0
v 9 0 0
vn 0 1 0
v 9 0 1
vn 0 1 0
v 9 0 2
vn 0 1 0
v 9 0 3
vn 0 1 0
v 9 0 4
vn 0 1 0
v 9 0 5
vn 0 1 0
v 9 0 6
vn 0 1 0
v 9 0 7
vn 0 1 0
v 9 0 8
vn 0 1 0
v 9 0 9
vn 0 1 0
# Faces: 50
f 12//12 11//11 1//1 
f 12//12 1//1 2//2 
f 12//12 2//2 3//3 
f 13//13 12//12 3//3 
f 13//13 3//3 4//4 
f 20//20 13//13 4//4 
f 20//20 4//4 5//5 
f 20//20 5//5 6//6 
f 20//20 6//6 7//7 
f 20//20 7//7 8//8 
f 14//14 20//20 8//8 
f 14//14 8//8 9//9 
f 15//15 14//14 9//9 
f 15//15 9//9 10//10 
f 20//20 16//16 11//11 
f 20//20 11//11 12//12 
f 20//20 12//12 13//13 
f 17//17 20//20 14//14 
f 17//17 14//14 15//15 
f 19//19 18//18 16//16 
f 19//19 16//16 20//20 
f 21//21 20//20 17//17 
f 20//20 22//22 18//18 
f 20//20 18//18 19//19 
f 24//24 23//23 20//20 
f 24//24 20//20 21//21 
f 20//20 25//25 22//22 
f 26//26 20//20 23//23 
f 26//26 23//23 24//24 
f 20//20 27//27 25//25 
f 28//28 30//30 20//20 
f 28//28 20//20 26//26 
f 20//20 29//29 27//27 
f 31//31 30//30 28//28 
f 33//33 32//32 29//29 
f 33//33 29//29 20//20 
f 34//34 20//20 30//30 
f 34//34 30//30 31//31 
f 36//36 35//35 32//32 
f 36//36 32//32 33//33 
f 37//37 36//36 33//33 
f 37//37 33//33 20//20 
f 38//38 37//37 20//20 
f 39//39 38//38 20//20 
f 40//40 39//39 20//20 
f 41//41 40//40 20//20 
f 42//42 41//41 20//20 
f 43//43 42//42 20//20 
f 44//44 43//43 20//20 
f 44//44 20//20 34//34 
