# VolCart OBJ File
# VC OBJ Exporter v1.0
# Vertices: 162
v -0.0739671 0.945287 -0.328674
vn -0.0225147 0.897555 -0.440328
v 0.0705904 0.730954 -0.683754
vn 0.0389925 0.696722 -0.71628
v -0.514109 0.732215 -0.453195
vn -0.526893 0.711985 -0.464177
v -0.879463 0.492317 0.0202776
vn -0.870094 0.492831 0.00739343
v 0.504641 0.7993 0.351796
vn 0.491022 0.786446 0.3747
v -0.714094 0.0201496 0.711223
vn -0.684645 -0.0165674 0.728688
v -0.947322 -0.304813 0.163783
vn -0.922501 -0.321499 0.213611
v -0.334319 0.198385 -0.927536
vn -0.287812 0.202719 -0.935986
v -0.0705904 -0.730954 -0.683754
vn -0.0436083 -0.700976 -0.71185
v 0.664653 -0.516959 -0.543767
vn 0.66851 -0.508609 -0.542596
v 0.714094 0.0201496 -0.711223
vn 0.674964 -0.00850802 -0.737801
v 0.879463 -0.492317 0.0202776
vn 0.871067 -0.491108 0.0074015
v -0.504641 -0.7993 0.351796
vn -0.476509 -0.79927 0.366207
v -0.326406 -0.629947 -0.714799
vn -0.34159 -0.654584 -0.674415
v -0.594551 -0.536185 -0.612126
vn -0.611907 -0.522294 -0.593952
v 0.26734 -0.0590442 -0.964228
vn 0.218398 -0.00355774 -0.975853
v 0.884782 0.483052 -0.0139595
vn 0.869602 0.492078 -0.0406262
v -0.47302 0.884922 0.0770901
vn -0.469839 0.880285 0.0659554
v -0.728988 0.620719 0.307809
vn -0.756258 0.598533 0.264257
v -0.536757 0.763106 0.380338
vn -0.528464 0.754298 0.389563
v -0.838075 0.165775 0.52445
vn -0.831893 0.189343 0.521636
v -0.602113 0.303069 0.746219
vn -0.611032 0.305732 0.730183
v -0.891645 0.333842 0.323462
vn -0.867259 0.382236 0.318993
v -0.711788 0.476881 0.526068
vn -0.721068 0.458069 0.519841
v -0.0752419 0.71079 0.706232
vn -0.0662737 0.654304 0.753322
v -0.0557673 0.379 0.92939
vn -0.143472 0.431589 0.890588
v -0.326406 0.629947 0.714799
vn -0.297299 0.650792 0.69863
v -0.383887 0.45448 0.810671
vn -0.370991 0.433083 0.821465
v -0.538506 0.593541 0.602695
vn -0.536353 0.565969 0.626103
v -0.345308 0.885873 0.327199
vn -0.30281 0.903752 0.302554
v -0.16718 0.988232 0.0809738
vn -0.215144 0.976001 0.0336884
v 0.196704 0.77441 0.613928
vn 0.178669 0.772116 0.609847
v -0.172441 0.829578 0.546991
vn -0.167406 0.832072 0.528802
v 0.122997 0.995242 0.0763423
vn 0.120447 0.991291 0.0532354
v 0.186724 0.907598 0.394329
vn 0.220124 0.910661 0.349631
v -0.0213352 0.957688 0.311229
vn -0.062959 0.949641 0.306949
v -0.461661 0.859003 -0.255596
vn -0.447194 0.866772 -0.220735
v -0.18014 0.957762 -0.267675
vn -0.172168 0.966566 -0.190023
v 0.379 0.92939 -0.0557675
vn 0.354709 0.926133 -0.128291
v 0.323462 0.891645 -0.333842
vn 0.340508 0.883155 -0.322632
v -0.198674 0.634505 -0.753379
vn -0.207789 0.641057 -0.738829
v -0.0306779 0.479638 -0.888152
vn -0.0632257 0.467404 -0.88178
v -0.208994 0.804361 -0.566179
vn -0.220021 0.816152 -0.53431
v 0.172441 0.829578 -0.546991
vn 0.173766 0.83717 -0.518606
v 0.128031 0.969418 -0.246965
vn 0.121864 0.969127 -0.21434
v -0.728988 0.620719 -0.307809
vn -0.749307 0.594251 -0.292242
v -0.365805 0.446381 -0.823407
vn -0.379946 0.434196 -0.816771
v -0.49513 0.609738 -0.627604
vn -0.433288 0.627537 -0.646884
v -0.804534 0.142389 -0.585798
vn -0.815285 0.144856 -0.560648
v -0.810671 0.383887 -0.45448
vn -0.815669 0.38155 -0.43486
v -0.664605 0.43535 -0.621229
vn -0.646803 0.448247 -0.617025
v -0.711223 0.714094 -0.0201495
vn -0.6782 0.734828 0.00858833
v -0.951408 -0.0762851 -0.314087
vn -0.934712 -0.0371175 -0.353462
v -0.998414 0.0581426 -0.10499
vn -0.995294 0.0660651 -0.0708944
v -0.936152 0.253103 -0.27179
vn -0.912973 0.288327 -0.288699
v -0.988232 -0.0809738 0.16718
vn -0.983024 -0.0744476 0.167697
v -0.973402 0.170224 0.196491
vn -0.963524 0.154666 0.218402
v -0.940258 0.345244 -0.047353
vn -0.961949 0.271747 -0.0284227
v 0.728988 0.620719 0.307809
vn 0.763918 0.579421 0.28408
v 0.383887 0.45448 0.810671
vn 0.394034 0.439393 0.807261
v 0.340266 0.641667 0.698268
vn 0.370888 0.655681 0.657666
v 0.823407 0.365805 0.446381
vn 0.809908 0.370234 0.454946
v 0.602113 0.303069 0.746219
vn 0.646064 0.289623 0.706201
v 0.614436 0.542915 0.58179
vn 0.598837 0.556461 0.575973
v 0.0131745 0.136367 0.999977
vn 0.0268722 0.163078 0.986247
v -0.525776 0.0681439 0.85129
vn -0.515976 0.0625908 0.854313
v -0.217068 -0.0971834 0.976853
vn -0.174607 -0.116071 0.977773
v 0.0809737 -0.16718 0.988232
vn 0.0495128 -0.164749 0.985092
v -0.383887 -0.45448 0.810671
vn -0.395274 -0.439247 0.806735
v -0.394329 -0.186724 0.907598
vn -0.407664 -0.176355 0.89594
v -0.334319 0.198386 0.927536
vn -0.315831 0.182599 0.931079
v -0.862825 -0.107063 0.509366
vn -0.873995 -0.110078 0.473303
v -0.972654 -0.208042 -0.128227
vn -0.967437 -0.231013 -0.103437
v -0.695179 -0.720627 0.0842845
vn -0.655363 -0.741933 0.141547
v -0.728988 -0.620719 0.307809
vn -0.759847 -0.576209 0.301024
v -0.728988 -0.620719 -0.307809
vn -0.751457 -0.593231 -0.288774
v -0.664958 -0.758441 -0.041531
vn -0.662873 -0.738343 -0.124296
v -0.885307 -0.480042 0.0153071
vn -0.864028 -0.502018 -0.0378588
v -0.829656 -0.121636 -0.553117
vn -0.82368 -0.137727 -0.550075
v -0.566179 0.208994 -0.804361
vn -0.574694 0.20802 -0.791488
v -0.637632 -0.258763 -0.736056
vn -0.656092 -0.292158 -0.695835
v -0.674989 -0.0331231 -0.740005
vn -0.672827 -0.0111729 -0.739715
v -0.464914 -0.0806061 -0.885573
vn -0.462715 -0.075816 -0.883259
v -0.0890319 -0.502498 -0.868091
vn -0.112591 -0.459005 -0.88127
v -0.376796 -0.397062 -0.847826
vn -0.376406 -0.367072 -0.850633
v -0.217068 -0.0971834 -0.976853
vn -0.205603 -0.145017 -0.967831
v 0.0557673 0.379 -0.92939
vn 0.171575 0.390006 -0.904686
v 0.326406 0.629947 -0.714799
vn 0.286201 0.644888 -0.708667
v 0.383887 0.45448 -0.810671
vn 0.370991 0.433083 -0.821465
v 0.479637 0.888152 0.030678
vn 0.45694 0.886157 0.0770126
v 0.728988 0.620719 -0.307809
vn 0.760506 0.594196 -0.261842
v 0.536757 0.763106 -0.380338
vn 0.523595 0.771267 -0.361934
v 0.838075 0.165775 -0.52445
vn 0.811677 0.196873 -0.549928
v 0.602113 0.303069 -0.746219
vn 0.611032 0.305732 -0.730183
v 0.711788 0.476881 -0.526068
vn 0.71721 0.4598 -0.523636
v 0.538506 0.593541 -0.602695
vn 0.536353 0.565969 -0.626103
v 0.47302 -0.884922 0.0770901
vn 0.466817 -0.881007 0.0768683
v 0.728988 -0.620719 0.307809
vn 0.759543 -0.59015 0.273528
v 0.536757 -0.763106 0.380338
vn 0.523824 -0.754114 0.396132
v 0.714116 0.00803291 0.713252
vn 0.684645 0.0165674 0.728688
v 0.838075 -0.165775 0.52445
vn 0.829864 -0.186407 0.525907
v 0.602113 -0.303069 0.746219
vn 0.6141 -0.299818 0.730062
v 0.891645 -0.333842 0.323462
vn 0.867259 -0.382236 0.318993
v 0.711788 -0.476881 0.526068
vn 0.721068 -0.458069 0.519841
v 0.0752419 -0.71079 0.706232
vn 0.0503461 -0.662462 0.747402
v 0.0745644 -0.421287 0.907701
vn 0.153848 -0.449906 0.879725
v 0.326406 -0.629947 0.714799
vn 0.307202 -0.658379 0.687142
v 0.383887 -0.45448 0.810671
vn 0.379358 -0.432137 0.818136
v 0.538506 -0.593541 0.602695
vn 0.536353 -0.565969 0.626103
v 0.345308 -0.885873 0.327199
vn 0.30281 -0.903752 0.302554
v 0.16718 -0.988232 0.0809738
vn 0.208422 -0.977226 0.0398664
v -0.0907745 -0.478301 0.88096
vn -0.139689 -0.455532 0.879191
v -0.196704 -0.77441 0.613928
vn -0.177085 -0.766665 0.617143
v 0.172441 -0.829578 0.546991
vn 0.167406 -0.832072 0.528802
v -0.411579 -0.920451 -0.0124022
vn -0.406545 -0.913464 0.0174488
v -0.122997 -0.995242 0.0763423
vn -0.1048 -0.993634 0.0413271
v -0.186724 -0.907598 0.394329
vn -0.220321 -0.910696 0.349415
v 0.0213352 -0.957688 0.311229
vn 0.062959 -0.949641 0.306949
v 0.18014 -0.957762 -0.267675
vn 0.165207 -0.967663 -0.190617
v 0.449705 -0.8718 -0.236301
vn 0.449245 -0.864549 -0.225244
v -0.323462 -0.891645 -0.333842
vn -0.347494 -0.886311 -0.306105
v 0.198674 -0.634505 -0.753379
vn 0.185351 -0.626845 -0.756776
v 0.184286 -0.80533 -0.573537
vn 0.222767 -0.818835 -0.529041
v -0.172441 -0.829578 -0.546991
vn -0.176006 -0.839054 -0.514792
v -0.128031 -0.969418 -0.246965
vn -0.135902 -0.969542 -0.20376
v 0.0726246 -0.953015 -0.30604
vn 0.0176605 -0.900083 -0.435361
v 0.713252 -0.714116 0.0080329
vn 0.678335 -0.7347 0.00880718
v 0.53299 -0.722497 -0.446877
vn 0.493387 -0.743286 -0.451768
v 0.728988 -0.620719 -0.307809
vn 0.754693 -0.601568 -0.261829
v 0.365805 -0.446381 -0.823407
vn 0.360245 -0.440791 -0.822148
v 0.49513 -0.609738 -0.627604
vn 0.451714 -0.608092 -0.652823
v 0.830212 -0.0991948 -0.556693
vn 0.837258 -0.127998 -0.531616
v 0.823407 -0.365805 -0.446381
vn 0.797593 -0.3568 -0.486353
v 0.602113 -0.303069 -0.746219
vn 0.630875 -0.30051 -0.715325
v 0.951408 0.0762851 -0.314087
vn 0.939743 0.0364407 -0.339935
v 0.998414 -0.0581426 -0.10499
vn 0.995294 -0.0660651 -0.0708944
v 0.936152 -0.253103 -0.27179
vn 0.915424 -0.290245 -0.27885
v 0.862825 0.107063 0.509366
vn 0.878105 0.116692 0.46402
v 0.988232 0.0809738 0.16718
vn 0.982831 0.0766049 0.167852
v 0.973402 -0.170224 0.196491
vn 0.963524 -0.154666 0.218402
v 0.940258 -0.345244 -0.047353
vn 0.961949 -0.271747 -0.0284227
v 0.525776 -0.0681439 0.85129
vn 0.516007 -0.062572 0.854296
v 0.0890319 0.502498 0.868091
vn 0.14807 0.470777 0.869738
v 0.394329 0.186724 0.907598
vn 0.37058 0.200872 0.906819
v 0.334319 -0.198386 0.927536
vn 0.3388 -0.199225 0.919524
v 0.266552 0.0839485 0.962794
vn 0.234095 0.0142135 0.97211
v -0.340266 -0.641667 0.698268
vn -0.365751 -0.65471 0.661499
v -0.823407 -0.365805 0.446381
vn -0.802879 -0.372039 0.465803
v -0.602113 -0.303069 0.746219
vn -0.647183 -0.278639 0.709587
v -0.614436 -0.542915 0.58179
vn -0.598837 -0.556461 0.575973
v -0.536757 -0.763106 -0.380338
vn -0.499263 -0.772821 -0.391771
v -0.861579 -0.368297 -0.374809
vn -0.83976 -0.376903 -0.39083
v 0.525776 0.0681439 -0.85129
vn 0.515976 0.0625907 -0.854313
v 0.0745644 -0.421287 -0.907701
vn 0.161552 -0.393431 -0.905048
v 0.0624661 -0.181695 -0.986992
vn 0.0387253 -0.196845 -0.979669
v 0.394329 -0.186723 -0.907598
vn 0.399995 -0.181099 -0.898447
v -0.0131745 0.136367 -0.999977
vn -0.00924842 0.132328 -0.991163
v 0.334319 0.198385 -0.927536
vn 0.32079 0.193132 -0.927251
v 0.951258 0.302323 0.136427
vn 0.921882 0.326791 0.208185
v 0.885873 0.327199 -0.345308
vn 0.874632 0.368443 -0.31507
v 0.972654 0.208042 -0.128227
vn 0.971465 0.215366 -0.0993633
v 0.711223 0.714094 0.0201495
vn 0.681906 0.73144 -0.000786323
# Faces: 320
f 52//52 20//20 18//18 
f 30//30 18//18 20//20 
f 33//33 30//30 20//20 
f 52//52 19//19 20//20 
f 72//72 6//6 21//21 
f 19//19 23//23 24//24 
f 6//6 22//22 21//21 
f 23//23 21//21 24//24 
f 22//22 24//24 21//21 
f 143//143 25//25 26//26 
f 28//28 26//26 27//27 
f 25//25 27//27 26//26 
f 25//25 33//33 27//27 
f 20//20 19//19 24//24 
f 27//27 29//29 28//28 
f 24//24 22//22 29//29 
f 28//28 29//29 22//22 
f 33//33 20//20 27//27 
f 20//20 29//29 27//27 
f 20//20 24//24 29//29 
f 36//36 31//31 30//30 
f 30//30 31//31 18//18 
f 32//32 25//25 143//143 
f 33//33 32//32 35//35 
f 33//33 25//25 32//32 
f 32//32 5//5 35//35 
f 39//39 34//34 90//90 
f 36//36 35//35 34//34 
f 5//5 90//90 35//35 
f 34//34 35//35 90//90 
f 33//33 36//36 30//30 
f 31//31 36//36 34//34 
f 33//33 35//35 36//36 
f 31//31 37//37 18//18 
f 34//34 38//38 31//31 
f 43//43 37//37 38//38 
f 31//31 38//38 37//37 
f 39//39 45//45 34//34 
f 40//40 45//45 39//39 
f 41//41 2//2 42//42 
f 41//41 43//43 2//2 
f 44//44 2//2 43//43 
f 34//34 45//45 38//38 
f 45//45 1//1 38//38 
f 44//44 45//45 40//40 
f 44//44 43//43 1//1 
f 38//38 1//1 43//43 
f 44//44 1//1 45//45 
f 18//18 37//37 52//52 
f 43//43 3//3 37//37 
f 3//3 46//46 37//37 
f 52//52 37//37 46//46 
f 47//47 41//41 42//42 
f 43//43 41//41 48//48 
f 48//48 41//41 47//47 
f 49//49 51//51 80//80 
f 50//50 51//51 49//49 
f 43//43 48//48 3//3 
f 80//80 51//51 47//47 
f 51//51 48//48 47//47 
f 3//3 51//51 46//46 
f 46//46 51//51 50//50 
f 3//3 48//48 51//51 
f 4//4 52//52 46//46 
f 19//19 52//52 4//4 
f 79//79 53//53 49//49 
f 50//50 49//49 55//55 
f 53//53 55//55 49//49 
f 46//46 50//50 55//55 
f 53//53 54//54 55//55 
f 23//23 57//57 21//21 
f 56//56 72//72 57//57 
f 21//21 57//57 72//72 
f 54//54 56//56 57//57 
f 46//46 55//55 4//4 
f 55//55 58//58 4//4 
f 55//55 54//54 58//58 
f 57//57 58//58 54//54 
f 19//19 4//4 23//23 
f 57//57 23//23 4//4 
f 57//57 4//4 58//58 
f 90//90 5//5 162//162 
f 162//162 5//5 59//59 
f 60//60 61//61 143//143 
f 32//32 143//143 61//61 
f 64//64 63//63 62//62 
f 100//100 138//138 63//63 
f 62//62 63//63 138//138 
f 32//32 61//61 5//5 
f 61//61 64//64 5//5 
f 61//61 60//60 64//64 
f 63//63 64//64 60//60 
f 5//5 64//64 59//59 
f 59//59 64//64 62//62 
f 22//22 71//71 28//28 
f 28//28 71//71 26//26 
f 71//71 65//65 26//26 
f 66//66 6//6 70//70 
f 70//70 6//6 149//149 
f 22//22 6//6 66//66 
f 68//68 112//112 106//106 
f 65//65 67//67 68//68 
f 149//149 69//69 70//70 
f 68//68 67//67 112//112 
f 69//69 112//112 70//70 
f 67//67 70//70 112//112 
f 22//22 66//66 71//71 
f 71//71 67//67 65//65 
f 66//66 70//70 71//71 
f 70//70 67//67 71//71 
f 75//75 148//148 7//7 
f 148//148 72//72 7//7 
f 56//56 7//7 72//72 
f 152//152 53//53 79//79 
f 54//54 53//53 73//73 
f 73//73 53//53 152//152 
f 78//78 74//74 75//75 
f 76//76 77//77 78//78 
f 78//78 77//77 74//74 
f 54//54 73//73 56//56 
f 73//73 7//7 56//56 
f 76//76 78//78 152//152 
f 73//73 152//152 78//78 
f 75//75 7//7 78//78 
f 73//73 78//78 7//7 
f 81//81 79//79 82//82 
f 49//49 82//82 79//79 
f 81//81 82//82 83//83 
f 49//49 80//80 82//82 
f 83//83 82//82 80//80 
f 80//80 47//47 8//8 
f 87//87 157//157 42//42 
f 47//47 42//42 8//8 
f 157//157 8//8 42//42 
f 155//155 154//154 84//84 
f 157//157 155//155 86//86 
f 155//155 84//84 86//86 
f 85//85 86//86 84//84 
f 83//83 80//80 8//8 
f 8//8 157//157 86//86 
f 81//81 83//83 85//85 
f 86//86 85//85 83//83 
f 86//86 83//83 8//8 
f 2//2 88//88 42//42 
f 89//89 87//87 88//88 
f 42//42 88//88 87//87 
f 2//2 44//44 88//88 
f 162//162 92//92 90//90 
f 40//40 39//39 92//92 
f 90//90 92//92 39//39 
f 44//44 40//40 92//92 
f 162//162 91//91 92//92 
f 132//132 11//11 93//93 
f 91//91 160//160 95//95 
f 11//11 94//94 93//93 
f 160//160 93//93 95//95 
f 94//94 95//95 93//93 
f 44//44 92//92 88//88 
f 92//92 96//96 88//88 
f 92//92 91//91 95//95 
f 88//88 96//96 89//89 
f 95//95 94//94 96//96 
f 89//89 96//96 94//94 
f 92//92 95//95 96//96 
f 127//127 99//99 97//97 
f 110//110 97//97 99//99 
f 114//114 110//110 99//99 
f 127//127 98//98 99//99 
f 138//138 100//100 101//101 
f 98//98 103//103 104//104 
f 100//100 102//102 101//101 
f 103//103 101//101 104//104 
f 102//102 104//104 101//101 
f 112//112 105//105 106//106 
f 108//108 106//106 107//107 
f 105//105 107//107 106//106 
f 105//105 114//114 107//107 
f 99//99 98//98 104//104 
f 107//107 109//109 108//108 
f 104//104 102//102 109//109 
f 108//108 109//109 102//102 
f 114//114 99//99 107//107 
f 99//99 109//109 107//107 
f 99//99 104//104 109//109 
f 118//118 111//111 110//110 
f 110//110 111//111 97//97 
f 113//113 105//105 112//112 
f 114//114 113//113 117//117 
f 114//114 105//105 113//113 
f 113//113 13//13 117//117 
f 118//118 117//117 116//116 
f 13//13 115//115 117//117 
f 116//116 117//117 115//115 
f 114//114 118//118 110//110 
f 111//111 118//118 116//116 
f 114//114 117//117 118//118 
f 111//111 120//120 97//97 
f 116//116 119//119 111//111 
f 123//123 120//120 119//119 
f 111//111 119//119 120//120 
f 115//115 125//125 116//116 
f 121//121 125//125 115//115 
f 122//122 9//9 84//84 
f 122//122 123//123 9//9 
f 124//124 9//9 123//123 
f 116//116 125//125 119//119 
f 125//125 126//126 119//119 
f 124//124 125//125 121//121 
f 124//124 123//123 126//126 
f 119//119 126//126 123//123 
f 124//124 126//126 125//125 
f 97//97 120//120 127//127 
f 123//123 128//128 120//120 
f 128//128 129//129 120//120 
f 127//127 120//120 129//129 
f 84//84 154//154 122//122 
f 130//130 122//122 154//154 
f 123//123 122//122 131//131 
f 131//131 122//122 130//130 
f 10//10 134//134 133//133 
f 11//11 132//132 134//134 
f 133//133 134//134 132//132 
f 123//123 131//131 128//128 
f 10//10 131//131 134//134 
f 134//134 131//131 130//130 
f 128//128 10//10 129//129 
f 129//129 10//10 133//133 
f 128//128 131//131 10//10 
f 12//12 127//127 129//129 
f 98//98 127//127 12//12 
f 133//133 132//132 137//137 
f 135//135 137//137 132//132 
f 129//129 133//133 137//137 
f 135//135 136//136 137//137 
f 103//103 140//140 101//101 
f 139//139 138//138 140//140 
f 101//101 140//140 138//138 
f 136//136 139//139 140//140 
f 129//129 137//137 12//12 
f 137//137 141//141 12//12 
f 137//137 136//136 141//141 
f 140//140 141//141 136//136 
f 98//98 12//12 103//103 
f 140//140 103//103 12//12 
f 140//140 12//12 141//141 
f 102//102 145//145 108//108 
f 108//108 145//145 106//106 
f 145//145 68//68 106//106 
f 142//142 100//100 144//144 
f 144//144 100//100 63//63 
f 102//102 100//100 142//142 
f 63//63 60//60 144//144 
f 26//26 65//65 143//143 
f 146//146 144//144 65//65 
f 60//60 143//143 144//144 
f 65//65 144//144 143//143 
f 102//102 142//142 145//145 
f 145//145 146//146 68//68 
f 68//68 146//146 65//65 
f 142//142 144//144 145//145 
f 144//144 146//146 145//145 
f 77//77 115//115 74//74 
f 115//115 13//13 74//74 
f 74//74 13//13 75//75 
f 69//69 147//147 112//112 
f 113//113 112//112 147//147 
f 150//150 149//149 148//148 
f 6//6 72//72 149//149 
f 148//148 149//149 72//72 
f 113//113 147//147 13//13 
f 147//147 150//150 13//13 
f 147//147 69//69 150//150 
f 149//149 150//150 69//69 
f 13//13 150//150 75//75 
f 75//75 150//150 148//148 
f 9//9 14//14 84//84 
f 85//85 84//84 14//14 
f 9//9 124//124 14//14 
f 121//121 115//115 151//151 
f 77//77 151//151 115//115 
f 124//124 121//121 151//151 
f 77//77 76//76 151//151 
f 15//15 152//152 81//81 
f 81//81 152//152 79//79 
f 124//124 151//151 14//14 
f 151//151 15//15 14//14 
f 151//151 76//76 15//15 
f 152//152 15//15 76//76 
f 81//81 85//85 15//15 
f 14//14 15//15 85//85 
f 153//153 11//11 156//156 
f 156//156 11//11 134//134 
f 94//94 11//11 153//153 
f 134//134 130//130 156//156 
f 16//16 156//156 155//155 
f 130//130 154//154 156//156 
f 155//155 156//156 154//154 
f 94//94 158//158 89//89 
f 89//89 158//158 87//87 
f 158//158 157//157 87//87 
f 158//158 16//16 157//157 
f 157//157 16//16 155//155 
f 94//94 153//153 158//158 
f 153//153 156//156 158//158 
f 16//16 158//158 156//156 
f 59//59 62//62 159//159 
f 62//62 138//138 159//159 
f 139//139 159//159 138//138 
f 132//132 93//93 135//135 
f 160//160 135//135 93//93 
f 136//136 135//135 161//161 
f 161//161 135//135 160//160 
f 17//17 162//162 59//59 
f 91//91 162//162 17//17 
f 136//136 161//161 139//139 
f 161//161 159//159 139//139 
f 91//91 17//17 160//160 
f 161//161 160//160 17//17 
f 59//59 159//159 17//17 
f 161//161 17//17 159//159 
