# VolCart OBJ File
# VC OBJ Exporter v1.0
# Vertices: 26
v 0 0 0
vn 1.63109e-06 -1.25945e-07 1
v 1000.47 53.9147 999.983
vn -0.350004 -0.0188614 0.936558
v 952.428 311.019 999.983
vn -0.3584 -0.117037 0.926203
v 839.477 546.928 999.983
vn -0.345359 -0.225004 0.911098
v 669.318 745.564 999.983
vn -0.304821 -0.339546 0.889827
v 453.545 893.392 999.983
vn -0.23017 -0.453388 0.861082
v 206.864 980.336 999.983
vn -0.11678 -0.553424 0.824672
v -53.9147 1000.47 999.983
vn 0.033456 -0.62083 0.783231
v -311.019 952.428 999.983
vn 0.207548 -0.63557 0.743623
v -546.928 839.477 999.983
vn 0.366827 -0.592216 0.717439
v -707.107 707.107 1000
vn 0.0411441 -0.0421095 0.998265
v -826.549 566.276 999.983
vn 0.588802 -0.374423 0.716323
v -944.948 333.054 999.983
vn 0.633809 -0.22339 0.740529
v -998.951 77.1345 999.983
vn 0.624532 -0.0482235 0.779509
v -984.876 -184.041 999.983
vn 0.561029 0.104838 0.82113
v -903.684 -432.675 999.983
vn 0.472573 0.213136 0.85513
v -793.353 -608.761 1000
vn 0.379345 0.284144 0.880545
v -669.318 -745.564 999.983
vn 0.277098 0.330761 0.902116
v -453.545 -893.392 999.983
vn 0.17955 0.353678 0.917973
v -206.864 -980.336 999.983
vn 0.0753831 0.357244 0.930964
v 53.9147 -1000.47 999.983
vn -0.0184009 0.341459 0.939717
v 311.019 -952.428 999.983
vn -0.101331 0.310305 0.945221
v 546.928 -839.477 999.983
vn -0.173537 0.266362 0.948122
v 745.564 -669.318 999.983
vn -0.235139 0.211092 0.948762
v 893.392 -453.545 999.983
vn -0.285868 0.145125 0.947216
v 980.336 -206.864 999.983
vn -0.324785 0.0685338 0.943302
# Faces: 48
f 2//2 3//3 1//1 
f 2//2 3//3 11//11 
f 3//3 4//4 1//1 
f 3//3 4//4 11//11 
f 4//4 5//5 1//1 
f 4//4 5//5 11//11 
f 5//5 6//6 1//1 
f 5//5 6//6 11//11 
f 6//6 7//7 1//1 
f 6//6 7//7 11//11 
f 7//7 8//8 1//1 
f 7//7 8//8 11//11 
f 8//8 9//9 1//1 
f 8//8 9//9 11//11 
f 9//9 10//10 1//1 
f 9//9 10//10 11//11 
f 10//10 11//11 1//1 
f 11//11 12//12 1//1 
f 12//12 13//13 1//1 
f 12//12 13//13 11//11 
f 13//13 14//14 1//1 
f 13//13 14//14 11//11 
f 14//14 15//15 1//1 
f 14//14 15//15 11//11 
f 15//15 16//16 1//1 
f 15//15 16//16 11//11 
f 16//16 17//17 1//1 
f 16//16 17//17 11//11 
f 17//17 18//18 1//1 
f 17//17 18//18 11//11 
f 18//18 19//19 1//1 
f 18//18 19//19 11//11 
f 19//19 20//20 1//1 
f 19//19 20//20 11//11 
f 20//20 21//21 1//1 
f 20//20 21//21 11//11 
f 21//21 22//22 1//1 
f 21//21 22//22 11//11 
f 22//22 23//23 1//1 
f 22//22 23//23 11//11 
f 23//23 24//24 1//1 
f 23//23 24//24 11//11 
f 24//24 25//25 1//1 
f 24//24 25//25 11//11 
f 25//25 26//26 1//1 
f 25//25 26//26 11//11 
f 26//26 2//2 1//1 
f 26//26 2//2 11//11 
