# VolCart OBJ File
# VC OBJ Exporter v1.0
# Vertices: 8
v 0 0 0
vn -0.2 -0.4 -0.4
v 0 15 0
vn -0.5 0.25 -0.25
v 15 15 0
vn 0.2 0.4 -0.4
v 15 0 0
vn 0.5 -0.25 -0.25
v 0 0 15
vn -0.5 -0.25 0.25
v 0 15 15
vn -0.2 0.4 0.4
v 15 15 15
vn 0.5 0.25 0.25
v 15 0 15
vn 0.2 -0.4 0.4
# Faces: 12
f 1//1 2//2 3//3 
f 1//1 3//3 4//4 
f 4//4 3//3 7//7 
f 4//4 7//7 8//8 
f 8//8 7//7 6//6 
f 8//8 6//6 5//5 
f 5//5 6//6 2//2 
f 5//5 2//2 1//1 
f 1//1 4//4 8//8 
f 1//1 8//8 5//5 
f 6//6 7//7 3//3 
f 6//6 3//3 2//2 
