# VolCart OBJ File
# VC OBJ Exporter v1.0
# Vertices: 50
v 0 0 0
vn 8.46545e-16 3.46366e-16 0.370705
v 0 0 15
vn 0 0 1
v 6 0 15
vn -0.463381 4.56232e-16 0.685352
v 5.94867 0.783157 15
vn -0.459417 -0.0604834 0.685352
v 5.79555 1.55291 15
vn -0.447592 -0.119932 0.685352
v 5.54328 2.2961 15
vn -0.428108 -0.177328 0.685352
v 5.19615 3 15
vn -0.4013 -0.231691 0.685352
v 4.76012 3.65257 15
vn -0.367625 -0.282089 0.685352
v 4.24264 4.24264 15
vn -0.32766 -0.32766 0.685352
v 3.65257 4.76012 15
vn -0.282089 -0.367625 0.685352
v 3 5.19615 15
vn -0.231691 -0.4013 0.685352
v 2.2961 5.54328 15
vn -0.177328 -0.428108 0.685352
v 1.55291 5.79555 15
vn -0.119932 -0.447592 0.685352
v 0.783157 5.94867 15
vn -0.0604834 -0.459417 0.685352
v -9.64874e-16 6 15
vn 0 -0.463381 0.685352
v -0.783157 5.94867 15
vn 0.0604834 -0.459417 0.685352
v -1.55291 5.79555 15
vn 0.119932 -0.447592 0.685352
v -2.2961 5.54328 15
vn 0.177328 -0.428108 0.685352
v -3 5.19615 15
vn 0.231691 -0.4013 0.685352
v -3.65257 4.76012 15
vn 0.282089 -0.367625 0.685352
v -4.24264 4.24264 15
vn 0.32766 -0.32766 0.685352
v -4.76012 3.65257 15
vn 0.367625 -0.282089 0.685352
v -5.19615 3 15
vn 0.4013 -0.231691 0.685352
v -5.54328 2.2961 15
vn 0.428108 -0.177328 0.685352
v -5.79555 1.55291 15
vn 0.447592 -0.119932 0.685352
v -5.94867 0.783157 15
vn 0.459417 -0.0604834 0.685352
v -6 6.06386e-15 15
vn 0.463381 -5.91541e-16 0.685352
v -5.94867 -0.783157 15
vn 0.459417 0.0604834 0.685352
v -5.79555 -1.55291 15
vn 0.447592 0.119932 0.685352
v -5.54328 -2.2961 15
vn 0.428108 0.177328 0.685352
v -5.19615 -3 15
vn 0.4013 0.231691 0.685352
v -4.76012 -3.65257 15
vn 0.367625 0.282089 0.685352
v -4.24264 -4.24264 15
vn 0.32766 0.32766 0.685352
v -3.65257 -4.76012 15
vn 0.282089 0.367625 0.685352
v -3 -5.19615 15
vn 0.231691 0.4013 0.685352
v -2.2961 -5.54328 15
vn 0.177328 0.428108 0.685352
v -1.55291 -5.79555 15
vn 0.119932 0.447592 0.685352
v -0.783157 -5.94867 15
vn 0.0604834 0.459417 0.685352
v -1.70894e-14 -6 15
vn 1.38257e-15 0.463381 0.685352
v 0.783157 -5.94867 15
vn -0.0604834 0.459417 0.685352
v 1.55291 -5.79555 15
vn -0.119932 0.447592 0.685352
v 2.2961 -5.54328 15
vn -0.177328 0.428108 0.685352
v 3 -5.19615 15
vn -0.231691 0.4013 0.685352
v 3.65257 -4.76012 15
vn -0.282089 0.367625 0.685352
v 4.24264 -4.24264 15
vn -0.32766 0.32766 0.685352
v 4.76012 -3.65257 15
vn -0.367625 0.282089 0.685352
v 5.19615 -3 15
vn -0.4013 0.231691 0.685352
v 5.54328 -2.2961 15
vn -0.428108 0.177328 0.685352
v 5.79555 -1.55291 15
vn -0.447592 0.119932 0.685352
v 5.94867 -0.783157 15
vn -0.459417 0.0604834 0.685352
# Faces: 96
f 3//3 4//4 1//1 
f 3//3 4//4 2//2 
f 4//4 5//5 1//1 
f 4//4 5//5 2//2 
f 5//5 6//6 1//1 
f 5//5 6//6 2//2 
f 6//6 7//7 1//1 
f 6//6 7//7 2//2 
f 7//7 8//8 1//1 
f 7//7 8//8 2//2 
f 8//8 9//9 1//1 
f 8//8 9//9 2//2 
f 9//9 10//10 1//1 
f 9//9 10//10 2//2 
f 10//10 11//11 1//1 
f 10//10 11//11 2//2 
f 11//11 12//12 1//1 
f 11//11 12//12 2//2 
f 12//12 13//13 1//1 
f 12//12 13//13 2//2 
f 13//13 14//14 1//1 
f 13//13 14//14 2//2 
f 14//14 15//15 1//1 
f 14//14 15//15 2//2 
f 15//15 16//16 1//1 
f 15//15 16//16 2//2 
f 16//16 17//17 1//1 
f 16//16 17//17 2//2 
f 17//17 18//18 1//1 
f 17//17 18//18 2//2 
f 18//18 19//19 1//1 
f 18//18 19//19 2//2 
f 19//19 20//20 1//1 
f 19//19 20//20 2//2 
f 20//20 21//21 1//1 
f 20//20 21//21 2//2 
f 21//21 22//22 1//1 
f 21//21 22//22 2//2 
f 22//22 23//23 1//1 
f 22//22 23//23 2//2 
f 23//23 24//24 1//1 
f 23//23 24//24 2//2 
f 24//24 25//25 1//1 
f 24//24 25//25 2//2 
f 25//25 26//26 1//1 
f 25//25 26//26 2//2 
f 26//26 27//27 1//1 
f 26//26 27//27 2//2 
f 27//27 28//28 1//1 
f 27//27 28//28 2//2 
f 28//28 29//29 1//1 
f 28//28 29//29 2//2 
f 29//29 30//30 1//1 
f 29//29 30//30 2//2 
f 30//30 31//31 1//1 
f 30//30 31//31 2//2 
f 31//31 32//32 1//1 
f 31//31 32//32 2//2 
f 32//32 33//33 1//1 
f 32//32 33//33 2//2 
f 33//33 34//34 1//1 
f 33//33 34//34 2//2 
f 34//34 35//35 1//1 
f 34//34 35//35 2//2 
f 35//35 36//36 1//1 
f 35//35 36//36 2//2 
f 36//36 37//37 1//1 
f 36//36 37//37 2//2 
f 37//37 38//38 1//1 
f 37//37 38//38 2//2 
f 38//38 39//39 1//1 
f 38//38 39//39 2//2 
f 39//39 40//40 1//1 
f 39//39 40//40 2//2 
f 40//40 41//41 1//1 
f 40//40 41//41 2//2 
f 41//41 42//42 1//1 
f 41//41 42//42 2//2 
f 42//42 43//43 1//1 
f 42//42 43//43 2//2 
f 43//43 44//44 1//1 
f 43//43 44//44 2//2 
f 44//44 45//45 1//1 
f 44//44 45//45 2//2 
f 45//45 46//46 1//1 
f 45//45 46//46 2//2 
f 46//46 47//47 1//1 
f 46//46 47//47 2//2 
f 47//47 48//48 1//1 
f 47//47 48//48 2//2 
f 48//48 49//49 1//1 
f 48//48 49//49 2//2 
f 49//49 50//50 1//1 
f 49//49 50//50 2//2 
f 50//50 3//3 1//1 
f 50//50 3//3 2//2 
