ply
format ascii 1.0
comment Created by particle simulation https://github.com/viscenter/registration-toolkit
element dimensions 1
property float width
property float height
element vertex 162
property float x
property float y
property float z
property float nx
property float ny
property float nz
property float s
property float t
property uchar red
property uchar green
property uchar blue
element face 0
property list uchar int vertex_indices
end_header
162 1
-0.525731 0.850651 0 0 0 0 0 0 0 18 0
0.525731 0.850651 0 0 0 0 0 0 0 18 0
-0.525731 -0.850651 0 0 0 0 0 0 0 18 0
0.525731 -0.850651 0 0 0 0 0 0 0 18 0
0 -0.525731 0.850651 0 0 0 0 0 0 0 38
0 0.525731 0.850651 0 0 0 0 0 0 0 38
0 -0.525731 -0.850651 0 0 0 0 0 0 0 218
0 0.525731 -0.850651 0 0 0 0 0 0 0 218
0.850651 0 -0.525731 0 0 0 0 0 0 29 234
0.850651 0 0.525731 0 0 0 0 0 1 30 24
-0.850651 0 -0.525731 0 0 0 0 0 0 29 234
-0.850651 0 0.525731 0 0 0 0 0 1 30 24
-0.809017 0.5 0.309017 0 0 0 0 0 1 28 14
-0.5 0.309017 0.809017 0 0 0 0 0 1 18 36
-0.309017 0.809017 0.5 0 0 0 0 0 0 11 22
0.309017 0.809017 0.5 0 0 0 0 0 0 11 22
0 1 0 0 0 0 0 0 0 0 0
0.309017 0.809017 -0.5 0 0 0 0 0 0 10 234
-0.309017 0.809017 -0.5 0 0 0 0 0 0 10 234
-0.5 0.309017 -0.809017 0 0 0 0 0 0 16 221
-0.809017 0.5 -0.309017 0 0 0 0 0 0 28 243
-1 0 0 0 0 0 0 0 1 35 1
0.5 0.309017 0.809017 0 0 0 0 0 1 18 36
0.809017 0.5 0.309017 0 0 0 0 0 1 28 14
-0.5 -0.309017 0.809017 0 0 0 0 0 1 18 36
0 0 1 0 0 0 0 0 1 1 45
-0.809017 -0.5 -0.309017 0 0 0 0 0 0 28 243
-0.809017 -0.5 0.309017 0 0 0 0 0 1 28 14
0 0 -1 0 0 0 0 0 255 255 211
-0.5 -0.309017 -0.809017 0 0 0 0 0 0 16 221
0.809017 0.5 -0.309017 0 0 0 0 0 0 28 243
0.5 0.309017 -0.809017 0 0 0 0 0 0 16 221
0.809017 -0.5 0.309017 0 0 0 0 0 1 28 14
0.5 -0.309017 0.809017 0 0 0 0 0 1 18 36
0.309017 -0.809017 0.5 0 0 0 0 0 0 11 22
-0.309017 -0.809017 0.5 0 0 0 0 0 0 11 22
0 -1 0 0 0 0 0 0 0 0 0
-0.309017 -0.809017 -0.5 0 0 0 0 0 0 10 234
0.309017 -0.809017 -0.5 0 0 0 0 0 0 10 234
0.5 -0.309017 -0.809017 0 0 0 0 0 0 16 221
0.809017 -0.5 -0.309017 0 0 0 0 0 0 28 243
1 0 0 0 0 0 0 0 1 35 1
-0.69378 0.702046 0.160622 0 0 0 0 0 0 24 7
-0.587785 0.688191 0.425325 0 0 0 0 0 1 20 19
-0.433889 0.862668 0.259892 0 0 0 0 0 0 15 12
-0.702046 0.160622 0.69378 0 0 0 0 0 1 25 31
-0.688191 0.425325 0.587785 0 0 0 0 0 1 24 27
-0.862668 0.259892 0.433889 0 0 0 0 0 1 30 20
-0.160622 0.69378 0.702046 0 0 0 0 0 0 6 31
-0.425325 0.587785 0.688191 0 0 0 0 0 1 15 31
-0.259892 0.433889 0.862668 0 0 0 0 0 1 9 39
-0.16246 0.951057 0.262866 0 0 0 0 0 0 5 11
-0.273267 0.961938 0 0 0 0 0 0 0 9 0
0.160622 0.69378 0.702046 0 0 0 0 0 0 6 31
0 0.850651 0.525731 0 0 0 0 0 0 0 23
0.273267 0.961938 0 0 0 0 0 0 0 9 0
0.16246 0.951057 0.262866 0 0 0 0 0 0 5 11
0.433889 0.862668 0.259892 0 0 0 0 0 0 15 12
-0.16246 0.951057 -0.262866 0 0 0 0 0 0 5 245
-0.433889 0.862668 -0.259892 0 0 0 0 0 0 14 245
0.433889 0.862668 -0.259892 0 0 0 0 0 0 14 245
0.16246 0.951057 -0.262866 0 0 0 0 0 0 5 245
-0.160622 0.69378 -0.702046 0 0 0 0 0 0 4 225
0 0.850651 -0.525731 0 0 0 0 0 0 0 233
0.160622 0.69378 -0.702046 0 0 0 0 0 0 4 225
-0.587785 0.688191 -0.425325 0 0 0 0 0 0 20 238
-0.69378 0.702046 -0.160622 0 0 0 0 0 0 24 250
-0.259892 0.433889 -0.862668 0 0 0 0 0 0 8 218
-0.425325 0.587785 -0.688191 0 0 0 0 0 0 14 226
-0.862668 0.259892 -0.433889 0 0 0 0 0 0 29 238
-0.688191 0.425325 -0.587785 0 0 0 0 0 0 23 231
-0.702046 0.160622 -0.69378 0 0 0 0 0 0 23 226
-0.850651 0.525731 0 0 0 0 0 0 0 29 0
-0.961938 0 -0.273267 0 0 0 0 0 0 33 245
-0.951057 0.262866 -0.16246 0 0 0 0 0 0 33 250
-0.951057 0.262866 0.16246 0 0 0 0 0 1 33 8
-0.961938 0 0.273267 0 0 0 0 0 1 33 13
0.587785 0.688191 0.425325 0 0 0 0 0 1 20 19
0.69378 0.702046 0.160622 0 0 0 0 0 0 24 7
0.259892 0.433889 0.862668 0 0 0 0 0 1 9 39
0.425325 0.587785 0.688191 0 0 0 0 0 1 15 31
0.862668 0.259892 0.433889 0 0 0 0 0 1 30 20
0.688191 0.425325 0.587785 0 0 0 0 0 1 24 27
0.702046 0.160622 0.69378 0 0 0 0 0 1 25 31
-0.262866 0.16246 0.951057 0 0 0 0 0 1 10 43
0 0.273267 0.961938 0 0 0 0 0 0 0 43
-0.702046 -0.160622 0.69378 0 0 0 0 0 1 25 31
-0.525731 0 0.850651 0 0 0 0 0 1 19 38
0 -0.273267 0.961938 0 0 0 0 0 0 0 43
-0.262866 -0.16246 0.951057 0 0 0 0 0 1 10 43
-0.259892 -0.433889 0.862668 0 0 0 0 0 1 9 39
-0.951057 -0.262866 0.16246 0 0 0 0 0 1 33 8
-0.862668 -0.259892 0.433889 0 0 0 0 0 1 30 20
-0.862668 -0.259892 -0.433889 0 0 0 0 0 0 29 238
-0.951057 -0.262866 -0.16246 0 0 0 0 0 0 33 250
-0.69378 -0.702046 0.160622 0 0 0 0 0 0 24 7
-0.850651 -0.525731 0 0 0 0 0 0 0 29 0
-0.69378 -0.702046 -0.160622 0 0 0 0 0 0 24 250
-0.525731 0 -0.850651 0 0 0 0 0 0 17 219
-0.702046 -0.160622 -0.69378 0 0 0 0 0 0 23 226
0 0.273267 -0.961938 0 0 0 0 0 0 0 213
-0.262866 0.16246 -0.951057 0 0 0 0 0 0 8 214
-0.259892 -0.433889 -0.862668 0 0 0 0 0 0 8 218
-0.262866 -0.16246 -0.951057 0 0 0 0 0 0 8 214
0 -0.273267 -0.961938 0 0 0 0 0 0 0 213
0.425325 0.587785 -0.688191 0 0 0 0 0 0 14 226
0.259892 0.433889 -0.862668 0 0 0 0 0 0 8 218
0.69378 0.702046 -0.160622 0 0 0 0 0 0 24 250
0.587785 0.688191 -0.425325 0 0 0 0 0 0 20 238
0.702046 0.160622 -0.69378 0 0 0 0 0 0 23 226
0.688191 0.425325 -0.587785 0 0 0 0 0 0 23 231
0.862668 0.259892 -0.433889 0 0 0 0 0 0 29 238
0.69378 -0.702046 0.160622 0 0 0 0 0 0 24 7
0.587785 -0.688191 0.425325 0 0 0 0 0 1 20 19
0.433889 -0.862668 0.259892 0 0 0 0 0 0 15 12
0.702046 -0.160622 0.69378 0 0 0 0 0 1 25 31
0.688191 -0.425325 0.587785 0 0 0 0 0 1 24 27
0.862668 -0.259892 0.433889 0 0 0 0 0 1 30 20
0.160622 -0.69378 0.702046 0 0 0 0 0 0 6 31
0.425325 -0.587785 0.688191 0 0 0 0 0 1 15 31
0.259892 -0.433889 0.862668 0 0 0 0 0 1 9 39
0.16246 -0.951057 0.262866 0 0 0 0 0 0 5 11
0.273267 -0.961938 0 0 0 0 0 0 0 9 0
-0.160622 -0.69378 0.702046 0 0 0 0 0 0 6 31
0 -0.850651 0.525731 0 0 0 0 0 0 0 23
-0.273267 -0.961938 0 0 0 0 0 0 0 9 0
-0.16246 -0.951057 0.262866 0 0 0 0 0 0 5 11
-0.433889 -0.862668 0.259892 0 0 0 0 0 0 15 12
0.16246 -0.951057 -0.262866 0 0 0 0 0 0 5 245
0.433889 -0.862668 -0.259892 0 0 0 0 0 0 14 245
-0.433889 -0.862668 -0.259892 0 0 0 0 0 0 14 245
-0.16246 -0.951057 -0.262866 0 0 0 0 0 0 5 245
0.160622 -0.69378 -0.702046 0 0 0 0 0 0 4 225
0 -0.850651 -0.525731 0 0 0 0 0 0 0 233
-0.160622 -0.69378 -0.702046 0 0 0 0 0 0 4 225
0.587785 -0.688191 -0.425325 0 0 0 0 0 0 20 238
0.69378 -0.702046 -0.160622 0 0 0 0 0 0 24 250
0.259892 -0.433889 -0.862668 0 0 0 0 0 0 8 218
0.425325 -0.587785 -0.688191 0 0 0 0 0 0 14 226
0.862668 -0.259892 -0.433889 0 0 0 0 0 0 29 238
0.688191 -0.425325 -0.587785 0 0 0 0 0 0 23 231
0.702046 -0.160622 -0.69378 0 0 0 0 0 0 23 226
0.850651 -0.525731 0 0 0 0 0 0 0 29 0
0.961938 0 -0.273267 0 0 0 0 0 0 33 245
0.951057 -0.262866 -0.16246 0 0 0 0 0 0 33 250
0.951057 -0.262866 0.16246 0 0 0 0 0 1 33 8
0.961938 0 0.273267 0 0 0 0 0 1 33 13
0.262866 -0.16246 0.951057 0 0 0 0 0 1 10 43
0.525731 0 0.850651 0 0 0 0 0 1 19 38
0.262866 0.16246 0.951057 0 0 0 0 0 1 10 43
-0.587785 -0.688191 0.425325 0 0 0 0 0 1 20 19
-0.425325 -0.587785 0.688191 0 0 0 0 0 1 15 31
-0.688191 -0.425325 0.587785 0 0 0 0 0 1 24 27
-0.425325 -0.587785 -0.688191 0 0 0 0 0 0 14 226
-0.587785 -0.688191 -0.425325 0 0 0 0 0 0 20 238
-0.688191 -0.425325 -0.587785 0 0 0 0 0 0 23 231
0.525731 0 -0.850651 0 0 0 0 0 0 17 219
0.262866 -0.16246 -0.951057 0 0 0 0 0 0 8 214
0.262866 0.16246 -0.951057 0 0 0 0 0 0 8 214
0.951057 0.262866 0.16246 0 0 0 0 0 1 33 8
0.951057 0.262866 -0.16246 0 0 0 0 0 0 33 250
0.850651 0.525731 0 0 0 0 0 0 0 29 0
