ply
format ascii 1.0
comment VTK generated PLY File
obj_info vtkPolyData points and polygons: vtk4.0
element vertex 25
property float x
property float y
property float z
element face 32
property list uchar int vertex_indices
end_header
0 0 0 
0 0 1 
0 0 2 
0 0 3 
0 0 4 
1 0 0 
1 0 1 
1 0 2 
1 0 3 
1 0 4 
2 0 0 
2 0 1 
2 0 2 
2 0 3 
2 0 4 
3 0 0 
3 0 1 
3 0 2 
3 0 3 
3 0 4 
4 0 0 
4 0 1 
4 0 2 
4 0 3 
4 0 4 
3 6 5 0 
3 6 0 1 
3 7 6 1 
3 7 1 2 
3 8 7 2 
3 8 2 3 
3 9 8 3 
3 9 3 4 
3 11 10 5 
3 11 5 6 
3 12 11 6 
3 12 6 7 
3 13 12 7 
3 13 7 8 
3 14 13 8 
3 14 8 9 
3 16 15 10 
3 16 10 11 
3 17 16 11 
3 17 11 12 
3 18 17 12 
3 18 12 13 
3 19 18 13 
3 19 13 14 
3 21 20 15 
3 21 15 16 
3 22 21 16 
3 22 16 17 
3 23 22 17 
3 23 17 18 
3 24 23 18 
3 24 18 19 
