# VolCart OBJ File
# VC OBJ Exporter v1.0
# Vertices: 25
v 0 0 0
vn 0 1 0
v 0 0 1
vn 0 1 0
v 0 0 2
vn 0 1 0
v 0 0 3
vn 0 1 0
v 0 0 4
vn 0 1 0
v 1 0 0
vn 0 1 0
v 1 0 1
vn 0 1 0
v 1 0 2
vn 0 1 0
v 1 0 3
vn 0 1 0
v 1 0 4
vn 0 1 0
v 2 0 0
vn 0 1 0
v 2 0 1
vn 0 1 0
v 2 0 2
vn 0 1 0
v 2 0 3
vn 0 1 0
v 2 0 4
vn 0 1 0
v 3 0 0
vn 0 1 0
v 3 0 1
vn 0 1 0
v 3 0 2
vn 0 1 0
v 3 0 3
vn 0 1 0
v 3 0 4
vn 0 1 0
v 4 0 0
vn 0 1 0
v 4 0 1
vn 0 1 0
v 4 0 2
vn 0 1 0
v 4 0 3
vn 0 1 0
v 4 0 4
vn 0 1 0
# Faces: 32
f 7//7 6//6 1//1 
f 7//7 1//1 2//2 
f 8//8 7//7 2//2 
f 8//8 2//2 3//3 
f 9//9 8//8 3//3 
f 9//9 3//3 4//4 
f 10//10 9//9 4//4 
f 10//10 4//4 5//5 
f 12//12 11//11 6//6 
f 12//12 6//6 7//7 
f 13//13 12//12 7//7 
f 13//13 7//7 8//8 
f 14//14 13//13 8//8 
f 14//14 8//8 9//9 
f 15//15 14//14 9//9 
f 15//15 9//9 10//10 
f 17//17 16//16 11//11 
f 17//17 11//11 12//12 
f 18//18 17//17 12//12 
f 18//18 12//12 13//13 
f 19//19 18//18 13//13 
f 19//19 13//13 14//14 
f 20//20 19//19 14//14 
f 20//20 14//14 15//15 
f 22//22 21//21 16//16 
f 22//22 16//16 17//17 
f 23//23 22//22 17//17 
f 23//23 17//17 18//18 
f 24//24 23//23 18//18 
f 24//24 18//18 19//19 
f 25//25 24//24 19//19 
f 25//25 19//19 20//20 
