# VolCart OBJ File
# VC OBJ Exporter v1.0
# Vertices: 162
v -0.525731 0.850651 0
vn -0.518109 0.838317 0
v 0.525731 0.850651 0
vn 0.518109 0.838317 0
v -0.525731 -0.850651 0
vn -0.518109 -0.838317 0
v 0.525731 -0.850651 0
vn 0.518109 -0.838317 0
v 0 -0.525731 0.850651
vn 0 -0.518109 0.838317
v 0 0.525731 0.850651
vn 0 0.518109 0.838317
v 0 -0.525731 -0.850651
vn 0 -0.518109 -0.838317
v 0 0.525731 -0.850651
vn -2.77556e-18 0.518109 -0.838317
v 0.850651 0 -0.525731
vn 0.838317 0 -0.518109
v 0.850651 0 0.525731
vn 0.838317 0 0.518109
v -0.850651 0 -0.525731
vn -0.838317 0 -0.518109
v -0.850651 0 0.525731
vn -0.838317 0 0.518109
v -0.809017 0.5 0.309017
vn -0.796697 0.492386 0.304311
v -0.5 0.309017 0.809017
vn -0.492386 0.304311 0.796697
v -0.309017 0.809017 0.5
vn -0.304311 0.796697 0.492386
v 0.309017 0.809017 0.5
vn 0.304311 0.796697 0.492386
v 0 1 0
vn 0 0.984772 9.25186e-18
v 0.309017 0.809017 -0.5
vn 0.304311 0.796697 -0.492386
v -0.309017 0.809017 -0.5
vn -0.304311 0.796697 -0.492386
v -0.5 0.309017 -0.809017
vn -0.492386 0.304311 -0.796697
v -0.809017 0.5 -0.309017
vn -0.796697 0.492386 -0.304311
v -1 0 0
vn -0.984772 -4.62593e-18 0
v 0.5 0.309017 0.809017
vn 0.492386 0.304311 0.796697
v 0.809017 0.5 0.309017
vn 0.796697 0.492386 0.304311
v -0.5 -0.309017 0.809017
vn -0.492386 -0.304311 0.796697
v 0 0 1
vn 4.62593e-18 0 0.984772
v -0.809017 -0.5 -0.309017
vn -0.796697 -0.492386 -0.304311
v -0.809017 -0.5 0.309017
vn -0.796697 -0.492386 0.304311
v 0 0 -1
vn 4.62593e-18 0 -0.984772
v -0.5 -0.309017 -0.809017
vn -0.492386 -0.304311 -0.796697
v 0.809017 0.5 -0.309017
vn 0.796697 0.492386 -0.304311
v 0.5 0.309017 -0.809017
vn 0.492386 0.304311 -0.796697
v 0.809017 -0.5 0.309017
vn 0.796697 -0.492386 0.304311
v 0.5 -0.309017 0.809017
vn 0.492386 -0.304311 0.796697
v 0.309017 -0.809017 0.5
vn 0.304311 -0.796697 0.492386
v -0.309017 -0.809017 0.5
vn -0.304311 -0.796697 0.492386
v 0 -1 0
vn 0 -0.984772 9.25186e-18
v -0.309017 -0.809017 -0.5
vn -0.304311 -0.796697 -0.492386
v 0.309017 -0.809017 -0.5
vn 0.304311 -0.796697 -0.492386
v 0.5 -0.309017 -0.809017
vn 0.492386 -0.304311 -0.796697
v 0.809017 -0.5 -0.309017
vn 0.796697 -0.492386 -0.304311
v 1 0 0
vn 0.984772 4.62593e-18 0
v -0.69378 0.702046 0.160622
vn -0.676851 0.700156 0.150881
v -0.587785 0.688191 0.425325
vn -0.578444 0.670456 0.429567
v -0.433889 0.862668 0.259892
vn -0.43272 0.851037 0.244131
v -0.702046 0.160622 0.69378
vn -0.700156 0.150881 0.676851
v -0.688191 0.425325 0.587785
vn -0.670456 0.429567 0.578444
v -0.862668 0.259892 0.433889
vn -0.851037 0.244131 0.43272
v -0.160622 0.69378 0.702046
vn -0.150881 0.676851 0.700156
v -0.425325 0.587785 0.688191
vn -0.429567 0.578444 0.670456
v -0.259892 0.433889 0.862668
vn -0.244131 0.43272 0.851037
v -0.16246 0.951057 0.262866
vn -0.148877 0.935942 0.265487
v -0.273267 0.961938 0
vn -0.281839 0.944287 0
v 0.160622 0.69378 0.702046
vn 0.150881 0.676851 0.700156
v 0 0.850651 0.525731
vn 0 0.843931 0.506376
v 0.273267 0.961938 0
vn 0.281839 0.944287 0
v 0.16246 0.951057 0.262866
vn 0.148877 0.935942 0.265487
v 0.433889 0.862668 0.259892
vn 0.43272 0.851037 0.244131
v -0.16246 0.951057 -0.262866
vn -0.148877 0.935942 -0.265487
v -0.433889 0.862668 -0.259892
vn -0.43272 0.851037 -0.244131
v 0.433889 0.862668 -0.259892
vn 0.43272 0.851037 -0.244131
v 0.16246 0.951057 -0.262866
vn 0.148877 0.935942 -0.265487
v -0.160622 0.69378 -0.702046
vn -0.150881 0.676851 -0.700156
v 0 0.850651 -0.525731
vn 0 0.843931 -0.506376
v 0.160622 0.69378 -0.702046
vn 0.150881 0.676851 -0.700156
v -0.587785 0.688191 -0.425325
vn -0.578444 0.670456 -0.429567
v -0.69378 0.702046 -0.160622
vn -0.676851 0.700156 -0.150881
v -0.259892 0.433889 -0.862668
vn -0.244131 0.43272 -0.851037
v -0.425325 0.587785 -0.688191
vn -0.429567 0.578444 -0.670456
v -0.862668 0.259892 -0.433889
vn -0.851037 0.244131 -0.43272
v -0.688191 0.425325 -0.587785
vn -0.670456 0.429567 -0.578444
v -0.702046 0.160622 -0.69378
vn -0.700156 0.150881 -0.676851
v -0.850651 0.525731 0
vn -0.843931 0.506376 0
v -0.961938 0 -0.273267
vn -0.944287 -4.62593e-18 -0.281839
v -0.951057 0.262866 -0.16246
vn -0.935942 0.265487 -0.148877
v -0.951057 0.262866 0.16246
vn -0.935942 0.265487 0.148877
v -0.961938 0 0.273267
vn -0.944287 9.25186e-18 0.281839
v 0.587785 0.688191 0.425325
vn 0.578444 0.670456 0.429567
v 0.69378 0.702046 0.160622
vn 0.676851 0.700156 0.150881
v 0.259892 0.433889 0.862668
vn 0.244131 0.43272 0.851037
v 0.425325 0.587785 0.688191
vn 0.429567 0.578444 0.670456
v 0.862668 0.259892 0.433889
vn 0.851037 0.244131 0.43272
v 0.688191 0.425325 0.587785
vn 0.670456 0.429567 0.578444
v 0.702046 0.160622 0.69378
vn 0.700156 0.150881 0.676851
v -0.262866 0.16246 0.951057
vn -0.265487 0.148877 0.935942
v 0 0.273267 0.961938
vn -9.25186e-18 0.281839 0.944287
v -0.702046 -0.160622 0.69378
vn -0.700156 -0.150881 0.676851
v -0.525731 0 0.850651
vn -0.506376 0 0.843931
v 0 -0.273267 0.961938
vn 4.62593e-18 -0.281839 0.944287
v -0.262866 -0.16246 0.951057
vn -0.265487 -0.148877 0.935942
v -0.259892 -0.433889 0.862668
vn -0.244131 -0.43272 0.851037
v -0.951057 -0.262866 0.16246
vn -0.935942 -0.265487 0.148877
v -0.862668 -0.259892 0.433889
vn -0.851037 -0.244131 0.43272
v -0.862668 -0.259892 -0.433889
vn -0.851037 -0.244131 -0.43272
v -0.951057 -0.262866 -0.16246
vn -0.935942 -0.265487 -0.148877
v -0.69378 -0.702046 0.160622
vn -0.676851 -0.700156 0.150881
v -0.850651 -0.525731 0
vn -0.843931 -0.506376 0
v -0.69378 -0.702046 -0.160622
vn -0.676851 -0.700156 -0.150881
v -0.525731 0 -0.850651
vn -0.506376 0 -0.843931
v -0.702046 -0.160622 -0.69378
vn -0.700156 -0.150881 -0.676851
v 0 0.273267 -0.961938
vn 4.62593e-18 0.281839 -0.944287
v -0.262866 0.16246 -0.951057
vn -0.265487 0.148877 -0.935942
v -0.259892 -0.433889 -0.862668
vn -0.244131 -0.43272 -0.851037
v -0.262866 -0.16246 -0.951057
vn -0.265487 -0.148877 -0.935942
v 0 -0.273267 -0.961938
vn -9.25186e-18 -0.281839 -0.944287
v 0.425325 0.587785 -0.688191
vn 0.429567 0.578444 -0.670456
v 0.259892 0.433889 -0.862668
vn 0.244131 0.43272 -0.851037
v 0.69378 0.702046 -0.160622
vn 0.676851 0.700156 -0.150881
v 0.587785 0.688191 -0.425325
vn 0.578444 0.670456 -0.429567
v 0.702046 0.160622 -0.69378
vn 0.700156 0.150881 -0.676851
v 0.688191 0.425325 -0.587785
vn 0.670456 0.429567 -0.578444
v 0.862668 0.259892 -0.433889
vn 0.851037 0.244131 -0.43272
v 0.69378 -0.702046 0.160622
vn 0.676851 -0.700156 0.150881
v 0.587785 -0.688191 0.425325
vn 0.578444 -0.670456 0.429567
v 0.433889 -0.862668 0.259892
vn 0.43272 -0.851037 0.244131
v 0.702046 -0.160622 0.69378
vn 0.700156 -0.150881 0.676851
v 0.688191 -0.425325 0.587785
vn 0.670456 -0.429567 0.578444
v 0.862668 -0.259892 0.433889
vn 0.851037 -0.244131 0.43272
v 0.160622 -0.69378 0.702046
vn 0.150881 -0.676851 0.700156
v 0.425325 -0.587785 0.688191
vn 0.429567 -0.578444 0.670456
v 0.259892 -0.433889 0.862668
vn 0.244131 -0.43272 0.851037
v 0.16246 -0.951057 0.262866
vn 0.148877 -0.935942 0.265487
v 0.273267 -0.961938 0
vn 0.281839 -0.944287 0
v -0.160622 -0.69378 0.702046
vn -0.150881 -0.676851 0.700156
v 0 -0.850651 0.525731
vn 0 -0.843931 0.506376
v -0.273267 -0.961938 0
vn -0.281839 -0.944287 0
v -0.16246 -0.951057 0.262866
vn -0.148877 -0.935942 0.265487
v -0.433889 -0.862668 0.259892
vn -0.43272 -0.851037 0.244131
v 0.16246 -0.951057 -0.262866
vn 0.148877 -0.935942 -0.265487
v 0.433889 -0.862668 -0.259892
vn 0.43272 -0.851037 -0.244131
v -0.433889 -0.862668 -0.259892
vn -0.43272 -0.851037 -0.244131
v -0.16246 -0.951057 -0.262866
vn -0.148877 -0.935942 -0.265487
v 0.160622 -0.69378 -0.702046
vn 0.150881 -0.676851 -0.700156
v 0 -0.850651 -0.525731
vn 0 -0.843931 -0.506376
v -0.160622 -0.69378 -0.702046
vn -0.150881 -0.676851 -0.700156
v 0.587785 -0.688191 -0.425325
vn 0.578444 -0.670456 -0.429567
v 0.69378 -0.702046 -0.160622
vn 0.676851 -0.700156 -0.150881
v 0.259892 -0.433889 -0.862668
vn 0.244131 -0.43272 -0.851037
v 0.425325 -0.587785 -0.688191
vn 0.429567 -0.578444 -0.670456
v 0.862668 -0.259892 -0.433889
vn 0.851037 -0.244131 -0.43272
v 0.688191 -0.425325 -0.587785
vn 0.670456 -0.429567 -0.578444
v 0.702046 -0.160622 -0.69378
vn 0.700156 -0.150881 -0.676851
v 0.850651 -0.525731 0
vn 0.843931 -0.506376 0
v 0.961938 0 -0.273267
vn 0.944287 4.62593e-18 -0.281839
v 0.951057 -0.262866 -0.16246
vn 0.935942 -0.265487 -0.148877
v 0.951057 -0.262866 0.16246
vn 0.935942 -0.265487 0.148877
v 0.961938 0 0.273267
vn 0.944287 -9.25186e-18 0.281839
v 0.262866 -0.16246 0.951057
vn 0.265487 -0.148877 0.935942
v 0.525731 0 0.850651
vn 0.506376 0 0.843931
v 0.262866 0.16246 0.951057
vn 0.265487 0.148877 0.935942
v -0.587785 -0.688191 0.425325
vn -0.578444 -0.670456 0.429567
v -0.425325 -0.587785 0.688191
vn -0.429567 -0.578444 0.670456
v -0.688191 -0.425325 0.587785
vn -0.670456 -0.429567 0.578444
v -0.425325 -0.587785 -0.688191
vn -0.429567 -0.578444 -0.670456
v -0.587785 -0.688191 -0.425325
vn -0.578444 -0.670456 -0.429567
v -0.688191 -0.425325 -0.587785
vn -0.670456 -0.429567 -0.578444
v 0.525731 0 -0.850651
vn 0.506376 0 -0.843931
v 0.262866 -0.16246 -0.951057
vn 0.265487 -0.148877 -0.935942
v 0.262866 0.16246 -0.951057
vn 0.265487 0.148877 -0.935942
v 0.951057 0.262866 0.16246
vn 0.935942 0.265487 0.148877
v 0.951057 0.262866 -0.16246
vn 0.935942 0.265487 -0.148877
v 0.850651 0.525731 0
vn 0.843931 0.506376 0
# Faces: 320
f 1//1 43//43 45//45 
f 13//13 44//44 43//43 
f 15//15 45//45 44//44 
f 43//43 44//44 45//45 
f 12//12 46//46 48//48 
f 14//14 47//47 46//46 
f 13//13 48//48 47//47 
f 46//46 47//47 48//48 
f 6//6 49//49 51//51 
f 15//15 50//50 49//49 
f 14//14 51//51 50//50 
f 49//49 50//50 51//51 
f 13//13 47//47 44//44 
f 14//14 50//50 47//47 
f 15//15 44//44 50//50 
f 47//47 50//50 44//44 
f 1//1 45//45 53//53 
f 15//15 52//52 45//45 
f 17//17 53//53 52//52 
f 45//45 52//52 53//53 
f 6//6 54//54 49//49 
f 16//16 55//55 54//54 
f 15//15 49//49 55//55 
f 54//54 55//55 49//49 
f 2//2 56//56 58//58 
f 17//17 57//57 56//56 
f 16//16 58//58 57//57 
f 56//56 57//57 58//58 
f 15//15 55//55 52//52 
f 16//16 57//57 55//55 
f 17//17 52//52 57//57 
f 55//55 57//57 52//52 
f 1//1 53//53 60//60 
f 17//17 59//59 53//53 
f 19//19 60//60 59//59 
f 53//53 59//59 60//60 
f 2//2 61//61 56//56 
f 18//18 62//62 61//61 
f 17//17 56//56 62//62 
f 61//61 62//62 56//56 
f 8//8 63//63 65//65 
f 19//19 64//64 63//63 
f 18//18 65//65 64//64 
f 63//63 64//64 65//65 
f 17//17 62//62 59//59 
f 18//18 64//64 62//62 
f 19//19 59//59 64//64 
f 62//62 64//64 59//59 
f 1//1 60//60 67//67 
f 19//19 66//66 60//60 
f 21//21 67//67 66//66 
f 60//60 66//66 67//67 
f 8//8 68//68 63//63 
f 20//20 69//69 68//68 
f 19//19 63//63 69//69 
f 68//68 69//69 63//63 
f 11//11 70//70 72//72 
f 21//21 71//71 70//70 
f 20//20 72//72 71//71 
f 70//70 71//71 72//72 
f 19//19 69//69 66//66 
f 20//20 71//71 69//69 
f 21//21 66//66 71//71 
f 69//69 71//71 66//66 
f 1//1 67//67 43//43 
f 21//21 73//73 67//67 
f 13//13 43//43 73//73 
f 67//67 73//73 43//43 
f 11//11 74//74 70//70 
f 22//22 75//75 74//74 
f 21//21 70//70 75//75 
f 74//74 75//75 70//70 
f 12//12 48//48 77//77 
f 13//13 76//76 48//48 
f 22//22 77//77 76//76 
f 48//48 76//76 77//77 
f 21//21 75//75 73//73 
f 22//22 76//76 75//75 
f 13//13 73//73 76//76 
f 75//75 76//76 73//73 
f 2//2 58//58 79//79 
f 16//16 78//78 58//58 
f 24//24 79//79 78//78 
f 58//58 78//78 79//79 
f 6//6 80//80 54//54 
f 23//23 81//81 80//80 
f 16//16 54//54 81//81 
f 80//80 81//81 54//54 
f 10//10 82//82 84//84 
f 24//24 83//83 82//82 
f 23//23 84//84 83//83 
f 82//82 83//83 84//84 
f 16//16 81//81 78//78 
f 23//23 83//83 81//81 
f 24//24 78//78 83//83 
f 81//81 83//83 78//78 
f 6//6 51//51 86//86 
f 14//14 85//85 51//51 
f 26//26 86//86 85//85 
f 51//51 85//85 86//86 
f 12//12 87//87 46//46 
f 25//25 88//88 87//87 
f 14//14 46//46 88//88 
f 87//87 88//88 46//46 
f 5//5 89//89 91//91 
f 26//26 90//90 89//89 
f 25//25 91//91 90//90 
f 89//89 90//90 91//91 
f 14//14 88//88 85//85 
f 25//25 90//90 88//88 
f 26//26 85//85 90//90 
f 88//88 90//90 85//85 
f 12//12 77//77 93//93 
f 22//22 92//92 77//77 
f 28//28 93//93 92//92 
f 77//77 92//92 93//93 
f 11//11 94//94 74//74 
f 27//27 95//95 94//94 
f 22//22 74//74 95//95 
f 94//94 95//95 74//74 
f 3//3 96//96 98//98 
f 28//28 97//97 96//96 
f 27//27 98//98 97//97 
f 96//96 97//97 98//98 
f 22//22 95//95 92//92 
f 27//27 97//97 95//95 
f 28//28 92//92 97//97 
f 95//95 97//97 92//92 
f 11//11 72//72 100//100 
f 20//20 99//99 72//72 
f 30//30 100//100 99//99 
f 72//72 99//99 100//100 
f 8//8 101//101 68//68 
f 29//29 102//102 101//101 
f 20//20 68//68 102//102 
f 101//101 102//102 68//68 
f 7//7 103//103 105//105 
f 30//30 104//104 103//103 
f 29//29 105//105 104//104 
f 103//103 104//104 105//105 
f 20//20 102//102 99//99 
f 29//29 104//104 102//102 
f 30//30 99//99 104//104 
f 102//102 104//104 99//99 
f 8//8 65//65 107//107 
f 18//18 106//106 65//65 
f 32//32 107//107 106//106 
f 65//65 106//106 107//107 
f 2//2 108//108 61//61 
f 31//31 109//109 108//108 
f 18//18 61//61 109//109 
f 108//108 109//109 61//61 
f 9//9 110//110 112//112 
f 32//32 111//111 110//110 
f 31//31 112//112 111//111 
f 110//110 111//111 112//112 
f 18//18 109//109 106//106 
f 31//31 111//111 109//109 
f 32//32 106//106 111//111 
f 109//109 111//111 106//106 
f 4//4 113//113 115//115 
f 33//33 114//114 113//113 
f 35//35 115//115 114//114 
f 113//113 114//114 115//115 
f 10//10 116//116 118//118 
f 34//34 117//117 116//116 
f 33//33 118//118 117//117 
f 116//116 117//117 118//118 
f 5//5 119//119 121//121 
f 35//35 120//120 119//119 
f 34//34 121//121 120//120 
f 119//119 120//120 121//121 
f 33//33 117//117 114//114 
f 34//34 120//120 117//117 
f 35//35 114//114 120//120 
f 117//117 120//120 114//114 
f 4//4 115//115 123//123 
f 35//35 122//122 115//115 
f 37//37 123//123 122//122 
f 115//115 122//122 123//123 
f 5//5 124//124 119//119 
f 36//36 125//125 124//124 
f 35//35 119//119 125//125 
f 124//124 125//125 119//119 
f 3//3 126//126 128//128 
f 37//37 127//127 126//126 
f 36//36 128//128 127//127 
f 126//126 127//127 128//128 
f 35//35 125//125 122//122 
f 36//36 127//127 125//125 
f 37//37 122//122 127//127 
f 125//125 127//127 122//122 
f 4//4 123//123 130//130 
f 37//37 129//129 123//123 
f 39//39 130//130 129//129 
f 123//123 129//129 130//130 
f 3//3 131//131 126//126 
f 38//38 132//132 131//131 
f 37//37 126//126 132//132 
f 131//131 132//132 126//126 
f 7//7 133//133 135//135 
f 39//39 134//134 133//133 
f 38//38 135//135 134//134 
f 133//133 134//134 135//135 
f 37//37 132//132 129//129 
f 38//38 134//134 132//132 
f 39//39 129//129 134//134 
f 132//132 134//134 129//129 
f 4//4 130//130 137//137 
f 39//39 136//136 130//130 
f 41//41 137//137 136//136 
f 130//130 136//136 137//137 
f 7//7 138//138 133//133 
f 40//40 139//139 138//138 
f 39//39 133//133 139//139 
f 138//138 139//139 133//133 
f 9//9 140//140 142//142 
f 41//41 141//141 140//140 
f 40//40 142//142 141//141 
f 140//140 141//141 142//142 
f 39//39 139//139 136//136 
f 40//40 141//141 139//139 
f 41//41 136//136 141//141 
f 139//139 141//141 136//136 
f 4//4 137//137 113//113 
f 41//41 143//143 137//137 
f 33//33 113//113 143//143 
f 137//137 143//143 113//113 
f 9//9 144//144 140//140 
f 42//42 145//145 144//144 
f 41//41 140//140 145//145 
f 144//144 145//145 140//140 
f 10//10 118//118 147//147 
f 33//33 146//146 118//118 
f 42//42 147//147 146//146 
f 118//118 146//146 147//147 
f 41//41 145//145 143//143 
f 42//42 146//146 145//145 
f 33//33 143//143 146//146 
f 145//145 146//146 143//143 
f 5//5 121//121 89//89 
f 34//34 148//148 121//121 
f 26//26 89//89 148//148 
f 121//121 148//148 89//89 
f 10//10 84//84 116//116 
f 23//23 149//149 84//84 
f 34//34 116//116 149//149 
f 84//84 149//149 116//116 
f 6//6 86//86 80//80 
f 26//26 150//150 86//86 
f 23//23 80//80 150//150 
f 86//86 150//150 80//80 
f 34//34 149//149 148//148 
f 23//23 150//150 149//149 
f 26//26 148//148 150//150 
f 149//149 150//150 148//148 
f 3//3 128//128 96//96 
f 36//36 151//151 128//128 
f 28//28 96//96 151//151 
f 128//128 151//151 96//96 
f 5//5 91//91 124//124 
f 25//25 152//152 91//91 
f 36//36 124//124 152//152 
f 91//91 152//152 124//124 
f 12//12 93//93 87//87 
f 28//28 153//153 93//93 
f 25//25 87//87 153//153 
f 93//93 153//153 87//87 
f 36//36 152//152 151//151 
f 25//25 153//153 152//152 
f 28//28 151//151 153//153 
f 152//152 153//153 151//151 
f 7//7 135//135 103//103 
f 38//38 154//154 135//135 
f 30//30 103//103 154//154 
f 135//135 154//154 103//103 
f 3//3 98//98 131//131 
f 27//27 155//155 98//98 
f 38//38 131//131 155//155 
f 98//98 155//155 131//131 
f 11//11 100//100 94//94 
f 30//30 156//156 100//100 
f 27//27 94//94 156//156 
f 100//100 156//156 94//94 
f 38//38 155//155 154//154 
f 27//27 156//156 155//155 
f 30//30 154//154 156//156 
f 155//155 156//156 154//154 
f 9//9 142//142 110//110 
f 40//40 157//157 142//142 
f 32//32 110//110 157//157 
f 142//142 157//157 110//110 
f 7//7 105//105 138//138 
f 29//29 158//158 105//105 
f 40//40 138//138 158//158 
f 105//105 158//158 138//138 
f 8//8 107//107 101//101 
f 32//32 159//159 107//107 
f 29//29 101//101 159//159 
f 107//107 159//159 101//101 
f 40//40 158//158 157//157 
f 29//29 159//159 158//158 
f 32//32 157//157 159//159 
f 158//158 159//159 157//157 
f 10//10 147//147 82//82 
f 42//42 160//160 147//147 
f 24//24 82//82 160//160 
f 147//147 160//160 82//82 
f 9//9 112//112 144//144 
f 31//31 161//161 112//112 
f 42//42 144//144 161//161 
f 112//112 161//161 144//144 
f 2//2 79//79 108//108 
f 24//24 162//162 79//79 
f 31//31 108//108 162//162 
f 79//79 162//162 108//108 
f 42//42 161//161 160//160 
f 31//31 162//162 161//161 
f 24//24 160//160 162//162 
f 161//161 162//162 160//160 
