####
#
# OBJ File Generated by Meshlab
#
####
# Object UntexturedPlane.obj
#
# Vertices: 16
# Faces: 18
#
####
vn 0.000000 1.000000 0.000000
v 0.000000 0.000000 0.000000
vn 0.000000 1.000000 0.000000
v 0.000000 0.000000 333.333008
vn 0.000000 1.000000 0.000000
v 0.000000 0.000000 666.666992
vn 0.000000 1.000000 0.000000
v 0.000000 0.000000 1000.000000
vn 0.000000 1.000000 0.000000
v 333.333008 0.000000 0.000000
vn 0.000000 1.000000 0.000000
v 333.333008 0.000000 333.333008
vn 0.000000 1.000000 0.000000
v 333.333008 0.000000 666.666992
vn 0.000000 1.000000 0.000000
v 333.333008 0.000000 1000.000000
vn 0.000000 1.000000 0.000000
v 666.666992 0.000000 0.000000
vn 0.000000 1.000000 0.000000
v 666.666992 0.000000 333.333008
vn 0.000000 1.000000 0.000000
v 666.666992 0.000000 666.666992
vn 0.000000 1.000000 0.000000
v 666.666992 0.000000 1000.000000
vn 0.000000 1.000000 0.000000
v 1000.000000 0.000000 0.000000
vn 0.000000 1.000000 0.000000
v 1000.000000 0.000000 333.333008
vn 0.000000 1.000000 0.000000
v 1000.000000 0.000000 666.666992
vn 0.000000 1.000000 0.000000
v 1000.000000 0.000000 1000.000000
# 16 vertices, 0 vertices normals

f 6//6 5//5 1//1
f 6//6 1//1 2//2
f 7//7 6//6 2//2
f 7//7 2//2 3//3
f 8//8 7//7 3//3
f 8//8 3//3 4//4
f 10//10 9//9 5//5
f 10//10 5//5 6//6
f 11//11 10//10 6//6
f 11//11 6//6 7//7
f 12//12 11//11 7//7
f 12//12 7//7 8//8
f 14//14 13//13 9//9
f 14//14 9//9 10//10
f 15//15 14//14 10//10
f 15//15 10//10 11//11
f 16//16 15//15 11//11
f 16//16 11//11 12//12
# 18 faces, 0 coords texture

# End of File
