# VolCart OBJ File
# VC OBJ Exporter v1.0
# Vertices: 100
v 72.7273 0 0
vn 0.268759 -0.963146 -0.0108438
v 94.5396 6.59053 -0.0320714
vn 0.296556 -0.95439 -0.0345499
v 116.295 13.224 -0.057233
vn 0.296422 -0.95498 -0.0121276
v 138.051 19.9678 -0.0675791
vn 0.296353 -0.955064 -0.00522337
v 159.807 26.7017 -0.102538
vn 0.286541 -0.958061 -0.00379203
v 181.643 33.127 -0.119285
vn 0.256663 -0.966494 -0.00356941
v 203.715 38.6546 -0.137548
vn 0.194154 -0.98097 -0.0013478
v 226.15 42.5078 -0.152627
vn 0.090477 -0.995898 -0.000339046
v 248.876 43.6591 -0.164733
vn -0.0550155 -0.998485 0.000499965
v 271.498 41.2068 -0.173709
vn -0.107788 -0.994173 0.000945403
v 72.7067 0.333426 14.5416
vn 0.243248 -0.969964 -0.000940671
v 94.7587 5.98467 14.5033
vn 0.285677 -0.958041 -0.0233758
v 116.388 13.0221 14.4806
vn 0.304675 -0.952222 -0.0211213
v 138.096 19.8888 14.4728
vn 0.299046 -0.954225 -0.00515374
v 159.821 26.6537 14.4422
vn 0.289181 -0.957274 -0.00110842
v 181.663 33.0648 14.4261
vn 0.26305 -0.964781 -0.00151182
v 203.731 38.6327 14.4079
vn 0.207353 -0.978265 -0.00121688
v 226.154 42.4991 14.3928
vn 0.110531 -0.993873 0.000184929
v 248.882 43.6629 14.3806
vn -0.0282721 -0.9996 0.00048249
v 271.505 41.2199 14.3717
vn -0.107516 -0.994203 0.000816445
v 72.7648 0.33774 29.1006
vn 0.241752 -0.969862 -0.0303978
v 94.8828 5.64476 29.0443
vn 0.274043 -0.961497 -0.0205862
v 116.519 12.6878 29.0298
vn 0.313143 -0.949435 -0.0226858
v 138.119 19.8523 29.0116
vn 0.306682 -0.951762 -0.00974235
v 159.826 26.689 28.9876
vn 0.29111 -0.956689 0.000926759
v 181.662 33.0936 28.9716
vn 0.262289 -0.964982 0.00377224
v 203.734 38.626 28.9534
vn 0.206987 -0.978342 0.00172615
v 226.16 42.5231 28.9375
vn 0.110967 -0.993824 0.000300825
v 248.886 43.6756 28.9258
vn -0.0282428 -0.999601 0.000676557
v 271.511 41.2368 28.9176
vn -0.107252 -0.994232 0.000860682
v 73.037 -0.58456 43.6211
vn 0.242925 -0.970034 -0.00473403
v 95.0128 5.31095 43.5894
vn 0.280316 -0.959566 -0.0256019
v 116.638 12.3566 43.5654
vn 0.31586 -0.948646 -0.0174043
v 138.191 19.6681 43.5551
vn 0.31457 -0.949173 -0.0107781
v 159.843 26.6805 43.5374
vn 0.295802 -0.955249 -0.00117742
v 181.65 33.178 43.5176
vn 0.263178 -0.964741 0.00353266
v 203.727 38.6982 43.498
vn 0.205308 -0.978692 0.00335762
v 226.166 42.5167 43.4834
vn 0.110015 -0.99393 0.000904474
v 248.892 43.6768 43.472
vn -0.0280264 -0.999607 2.50279e-06
v 271.515 41.2435 43.4625
vn -0.107036 -0.994255 0.000470367
v 72.8356 0.341708 58.1407
vn 0.210446 -0.977357 0.0220198
v 95.0775 5.1289 58.1336
vn 0.268862 -0.963156 0.00663719
v 116.71 12.198 58.1187
vn 0.31706 -0.948385 -0.00630263
v 138.239 19.5666 58.1049
vn 0.31872 -0.947839 -0.00433213
v 159.844 26.7111 58.0828
vn 0.299475 -0.954104 0.00035458
v 181.645 33.2421 58.0649
vn 0.263839 -0.964563 0.00265039
v 203.729 38.7251 58.0436
vn 0.20423 -0.978921 0.00191279
v 226.166 42.5292 58.0294
vn 0.10892 -0.99405 0.000321593
v 248.898 43.6728 58.0167
vn -0.0279354 -0.99961 -0.000300743
v 271.523 41.2544 58.0079
vn -0.106524 -0.99431 7.52912e-05
v 72.8311 0.344037 72.6832
vn 0.212623 -0.977128 0.00341993
v 95.0745 5.13773 72.6888
vn 0.260871 -0.965359 0.00539883
v 116.709 12.1951 72.6767
vn 0.316807 -0.948475 0.00540988
v 138.25 19.5639 72.6502
vn 0.318648 -0.947869 0.00298393
v 159.84 26.7417 72.6341
vn 0.300858 -0.953669 0.000596537
v 181.645 33.2668 72.6121
vn 0.263968 -0.964531 0.000728898
v 203.73 38.7543 72.5919
vn 0.203562 -0.979062 0.000590758
v 226.175 42.5253 72.5748
vn 0.108405 -0.994107 0.000326166
v 248.901 43.6597 72.562
vn -0.0281002 -0.999605 0.000409451
v 271.527 41.2488 72.5533
vn -0.106086 -0.994357 6.48098e-05
v 72.8003 0.341975 87.2298
vn 0.221449 -0.975143 0.00756184
v 95.0264 5.27205 87.2538
vn 0.262587 -0.964807 0.0139622
v 116.663 12.3537 87.2251
vn 0.316032 -0.948656 0.0132645
v 138.201 19.6929 87.2056
vn 0.315709 -0.948805 0.00989009
v 159.851 26.7447 87.1795
vn 0.298382 -0.954441 0.00313424
v 181.652 33.2672 87.1612
vn 0.263893 -0.964552 -0.000801864
v 203.742 38.7453 87.1382
vn 0.203745 -0.979024 -0.00019517
v 226.18 42.5193 87.1212
vn 0.108552 -0.994091 0.000483493
v 248.908 43.6822 87.1068
vn -0.027695 -0.999616 0.00115593
v 271.534 41.2688 87.0986
vn -0.106047 -0.99436 0.00166888
v 72.7815 0.327324 101.807
vn 0.240885 -0.970529 -0.00686169
v 94.9184 5.59086 101.803
vn 0.267796 -0.963358 0.0150833
v 116.581 12.5981 101.778
vn 0.312168 -0.94989 0.0161262
v 138.147 19.854 101.756
vn 0.312289 -0.949966 0.00629187
v 159.816 26.8207 101.735
vn 0.294495 -0.955653 0.000401021
v 181.666 33.2412 101.707
vn 0.263234 -0.964728 -0.0025609
v 203.746 38.7373 101.684
vn 0.204538 -0.978858 -0.00107204
v 226.189 42.5456 101.667
vn 0.109076 -0.994033 0.000577445
v 248.915 43.6983 101.652
vn -0.0275803 -0.999619 0.00107814
v 271.542 41.2972 101.644
vn -0.105723 -0.994395 0.00106568
v 72.8531 -0.151634 116.34
vn 0.267633 -0.963474 0.0094944
v 94.8243 5.76571 116.348
vn 0.279091 -0.960037 0.0208923
v 116.494 12.85 116.321
vn 0.307386 -0.951332 0.0219479
v 138.141 19.8759 116.306
vn 0.305158 -0.952261 0.00879736
v 159.838 26.7293 116.28
vn 0.291898 -0.956448 -0.00171453
v 181.693 33.1311 116.256
vn 0.262852 -0.964825 -0.00474374
v 203.763 38.7189 116.23
vn 0.20704 -0.978326 -0.00351862
v 226.196 42.5422 116.213
vn 0.109878 -0.993945 0.000587746
v 248.921 43.7156 116.198
vn -0.027603 -0.999618 0.00138601
v 271.546 41.2975 116.19
vn -0.106042 -0.994361 0.00111923
v 72.7273 0 130.909
vn 0.282711 -0.959124 0.01245
v 94.5529 6.4333 130.887
vn 0.281106 -0.958963 0.0369938
v 116.331 13.3039 130.866
vn 0.30299 -0.952214 0.038536
v 138.052 20.0823 130.85
vn 0.29956 -0.95384 0.0212775
v 159.852 26.7428 130.827
vn 0.291348 -0.956601 0.00553973
v 181.697 33.1293 130.806
vn 0.26789 -0.963449 8.63481e-05
v 203.788 38.6343 130.775
vn 0.220173 -0.975452 -0.00408606
v 226.203 42.5687 130.758
vn 0.131071 -0.991373 -0.000838955
v 248.926 43.7452 130.743
vn -0.00101631 -0.999998 0.00195965
v 271.554 41.327 130.735
vn -0.106286 -0.994333 0.00206692
# Faces: 162
f 12//12 11//11 1//1 
f 12//12 1//1 2//2 
f 13//13 12//12 2//2 
f 13//13 2//2 3//3 
f 14//14 13//13 3//3 
f 14//14 3//3 4//4 
f 15//15 14//14 4//4 
f 15//15 4//4 5//5 
f 16//16 15//15 5//5 
f 16//16 5//5 6//6 
f 17//17 16//16 6//6 
f 17//17 6//6 7//7 
f 18//18 17//17 7//7 
f 18//18 7//7 8//8 
f 19//19 18//18 8//8 
f 19//19 8//8 9//9 
f 20//20 19//19 9//9 
f 20//20 9//9 10//10 
f 22//22 21//21 11//11 
f 22//22 11//11 12//12 
f 23//23 22//22 12//12 
f 23//23 12//12 13//13 
f 24//24 23//23 13//13 
f 24//24 13//13 14//14 
f 25//25 24//24 14//14 
f 25//25 14//14 15//15 
f 26//26 25//25 15//15 
f 26//26 15//15 16//16 
f 27//27 26//26 16//16 
f 27//27 16//16 17//17 
f 28//28 27//27 17//17 
f 28//28 17//17 18//18 
f 29//29 28//28 18//18 
f 29//29 18//18 19//19 
f 30//30 29//29 19//19 
f 30//30 19//19 20//20 
f 32//32 31//31 21//21 
f 32//32 21//21 22//22 
f 33//33 32//32 22//22 
f 33//33 22//22 23//23 
f 34//34 33//33 23//23 
f 34//34 23//23 24//24 
f 35//35 34//34 24//24 
f 35//35 24//24 25//25 
f 36//36 35//35 25//25 
f 36//36 25//25 26//26 
f 37//37 36//36 26//26 
f 37//37 26//26 27//27 
f 38//38 37//37 27//27 
f 38//38 27//27 28//28 
f 39//39 38//38 28//28 
f 39//39 28//28 29//29 
f 40//40 39//39 29//29 
f 40//40 29//29 30//30 
f 42//42 41//41 31//31 
f 42//42 31//31 32//32 
f 43//43 42//42 32//32 
f 43//43 32//32 33//33 
f 44//44 43//43 33//33 
f 44//44 33//33 34//34 
f 45//45 44//44 34//34 
f 45//45 34//34 35//35 
f 46//46 45//45 35//35 
f 46//46 35//35 36//36 
f 47//47 46//46 36//36 
f 47//47 36//36 37//37 
f 48//48 47//47 37//37 
f 48//48 37//37 38//38 
f 49//49 48//48 38//38 
f 49//49 38//38 39//39 
f 50//50 49//49 39//39 
f 50//50 39//39 40//40 
f 52//52 51//51 41//41 
f 52//52 41//41 42//42 
f 53//53 52//52 42//42 
f 53//53 42//42 43//43 
f 54//54 53//53 43//43 
f 54//54 43//43 44//44 
f 55//55 54//54 44//44 
f 55//55 44//44 45//45 
f 56//56 55//55 45//45 
f 56//56 45//45 46//46 
f 57//57 56//56 46//46 
f 57//57 46//46 47//47 
f 58//58 57//57 47//47 
f 58//58 47//47 48//48 
f 59//59 58//58 48//48 
f 59//59 48//48 49//49 
f 60//60 59//59 49//49 
f 60//60 49//49 50//50 
f 62//62 61//61 51//51 
f 62//62 51//51 52//52 
f 63//63 62//62 52//52 
f 63//63 52//52 53//53 
f 64//64 63//63 53//53 
f 64//64 53//53 54//54 
f 65//65 64//64 54//54 
f 65//65 54//54 55//55 
f 66//66 65//65 55//55 
f 66//66 55//55 56//56 
f 67//67 66//66 56//56 
f 67//67 56//56 57//57 
f 68//68 67//67 57//57 
f 68//68 57//57 58//58 
f 69//69 68//68 58//58 
f 69//69 58//58 59//59 
f 70//70 69//69 59//59 
f 70//70 59//59 60//60 
f 72//72 71//71 61//61 
f 72//72 61//61 62//62 
f 73//73 72//72 62//62 
f 73//73 62//62 63//63 
f 74//74 73//73 63//63 
f 74//74 63//63 64//64 
f 75//75 74//74 64//64 
f 75//75 64//64 65//65 
f 76//76 75//75 65//65 
f 76//76 65//65 66//66 
f 77//77 76//76 66//66 
f 77//77 66//66 67//67 
f 78//78 77//77 67//67 
f 78//78 67//67 68//68 
f 79//79 78//78 68//68 
f 79//79 68//68 69//69 
f 80//80 79//79 69//69 
f 80//80 69//69 70//70 
f 82//82 81//81 71//71 
f 82//82 71//71 72//72 
f 83//83 82//82 72//72 
f 83//83 72//72 73//73 
f 84//84 83//83 73//73 
f 84//84 73//73 74//74 
f 85//85 84//84 74//74 
f 85//85 74//74 75//75 
f 86//86 85//85 75//75 
f 86//86 75//75 76//76 
f 87//87 86//86 76//76 
f 87//87 76//76 77//77 
f 88//88 87//87 77//77 
f 88//88 77//77 78//78 
f 89//89 88//88 78//78 
f 89//89 78//78 79//79 
f 90//90 89//89 79//79 
f 90//90 79//79 80//80 
f 92//92 91//91 81//81 
f 92//92 81//81 82//82 
f 93//93 92//92 82//82 
f 93//93 82//82 83//83 
f 94//94 93//93 83//83 
f 94//94 83//83 84//84 
f 95//95 94//94 84//84 
f 95//95 84//84 85//85 
f 96//96 95//95 85//85 
f 96//96 85//85 86//86 
f 97//97 96//96 86//86 
f 97//97 86//86 87//87 
f 98//98 97//97 87//87 
f 98//98 87//87 88//88 
f 99//99 98//98 88//88 
f 99//99 88//88 89//89 
f 100//100 99//99 89//89 
f 100//100 89//89 90//90 
