# VolCart OBJ File
# VC OBJ Exporter v1.0
# Vertices: 100
v 71.2667 0.352713 -0.0633333
vn -1.73318e-05 -1 2.19874e-05
v 94.0517 0.351945 -0.0478638
vn -0.0100485 -0.999949 0.000515235
v 116.793 -0.000832581 -0.0378677
vn -0.00525015 -0.999986 0.00116614
v 139.568 0.00228856 -0.0206126
vn -0.000123756 -1 0.000488559
v 162.34 -0.000704005 -0.0305139
vn 0.000402646 -1 4.32773e-05
v 185.099 0.0186862 -0.0244601
vn 0.000430346 -1 -0.000436206
v 207.853 0.0258474 -0.0216413
vn 0.000796459 -0.999997 -0.0024735
v 230.614 0.0895498 -0.0164844
vn -0.000127335 -0.999992 -0.00412285
v 253.37 0.00907156 -0.00997466
vn 0.000468528 -1 -0.000391205
v 276.124 0.0723692 -0.00135221
vn 0.00278207 -0.999996 -0.00103854
v 71.2918 0.352656 14.4821
vn -5.08259e-06 -1 -2.08304e-06
v 94.0582 0.352629 14.5015
vn -0.00684374 -0.999976 0.000744492
v 116.801 0.0200933 14.502
vn -0.00795002 -0.999966 0.00221824
v 139.57 0.011254 14.5202
vn 6.33748e-05 -0.999998 0.00179838
v 162.324 0.00268482 14.5137
vn -0.000456639 -0.999998 0.00178908
v 185.089 0.013782 14.5214
vn 0.000229196 -1 -0.000410288
v 207.85 0.016607 14.5237
vn -0.000143748 -1 -0.000839042
v 230.605 8.88487e-05 14.5286
vn 0.000398915 -0.999997 -0.00233839
v 253.363 0.00809424 14.5354
vn 0.0005466 -0.999999 -0.00133297
v 276.118 0.0572462 14.5443
vn 0.00236747 -0.999997 -0.000687089
v 71.3067 0.352507 29.0401
vn -3.12737e-05 -1 -2.47261e-05
v 94.0548 0.352463 29.0469
vn -0.00652506 -0.999978 -0.00101498
v 116.807 0.0839617 29.055
vn -0.00643475 -0.999979 0.000112558
v 139.564 0.0343052 29.0587
vn -0.000846838 -0.999998 0.00164842
v 162.324 0.0746566 29.0589
vn 0.000148047 -0.999999 0.000976316
v 185.081 0.0102394 29.0668
vn -0.00169418 -0.999996 0.00229269
v 207.835 -0.00570325 29.0699
vn -0.000243423 -1 -0.000575251
v 230.601 -0.00512348 29.0739
vn 0.000128203 -1 -0.000423183
v 253.355 0.00259092 29.0805
vn 0.000720892 -1 -0.000552172
v 276.112 0.0433188 29.09
vn 0.00191369 -0.999997 -0.0014102
v 71.3048 0.352783 43.5919
vn -5.35545e-05 -1 1.64102e-05
v 94.059 0.351272 43.5958
vn -0.00766603 -0.999971 0.000191781
v 116.802 -0.0020023 43.5948
vn -0.00587004 -0.99998 -0.00249867
v 139.56 0.0884381 43.6037
vn -0.000342498 -0.999999 -0.00150859
v 162.322 0.00028355 43.6086
vn 0.000122776 -0.999998 -0.00176322
v 185.076 0.0771999 43.6126
vn -0.000553902 -0.999999 -0.000873334
v 207.832 -0.00439391 43.6148
vn -0.00138258 -0.999998 0.0011424
v 230.594 -0.00975743 43.6193
vn 0.000232644 -1 0.000284005
v 253.349 0.00766295 43.6267
vn 0.000331174 -1 0.000455219
v 276.103 0.00116934 43.6344
vn 0.000406488 -1 -0.000249632
v 71.2961 0.352699 58.1466
vn -2.52739e-05 -1 4.61926e-06
v 94.0509 0.352035 58.1413
vn -0.00737707 -0.999973 7.94156e-05
v 116.806 0.0155592 58.1483
vn -0.00746528 -0.999972 0.000923867
v 139.561 0.00830739 58.1546
vn 0.000204213 -0.999999 -0.000950383
v 162.317 0.00655652 58.1541
vn -0.000603537 -0.999999 -0.000924756
v 185.074 0.00537758 58.1589
vn 0.000485298 -0.999999 -0.00146245
v 207.828 0.00349821 58.1605
vn -0.000610094 -1 -0.000607053
v 230.585 0.00460494 58.165
vn 0.000564802 -0.999999 0.001103
v 253.344 0.0116808 58.171
vn -3.3014e-05 -0.999999 0.00134262
v 276.098 0.0273465 58.1799
vn 0.000363829 -1 0.000147595
v 71.2878 0.352764 72.6896
vn -5.27309e-05 -1 -4.78921e-05
v 94.0419 0.352354 72.6954
vn -0.0075022 -0.999972 -0.000401578
v 116.795 0.0209033 72.7044
vn -0.0067383 -0.999977 -0.000770282
v 139.557 0.0425251 72.7003
vn -0.000471049 -1 0.000666254
v 162.309 -0.00208298 72.706
vn 0.000152804 -0.999999 0.00166644
v 185.068 0.00952064 72.7057
vn -0.000681245 -0.999998 0.00207242
v 207.824 0.00494039 72.7066
vn -4.12116e-05 -1 -9.71874e-05
v 230.582 0.00478373 72.7104
vn 0.00126319 -0.999999 -0.00032905
v 253.337 0.0709387 72.7164
vn -0.000310252 -1 0.000628599
v 276.091 0.00358752 72.7247
vn -0.00174426 -0.999998 0.000636081
v 71.2659 0.35278 87.242
vn -9.52823e-05 -1 2.44914e-05
v 94.0273 0.350176 87.2561
vn -0.00788553 -0.999969 8.39494e-05
v 116.786 -0.00985766 87.2532
vn -0.00728613 -0.999973 -0.000980273
v 139.54 0.0261292 87.2585
vn 0.000797688 -0.999998 -0.0015894
v 162.307 0.0150734 87.2514
vn 0.000728603 -1 -0.000684502
v 185.062 0.103715 87.254
vn -3.6356e-05 -1 0.000600726
v 207.821 -0.00218905 87.2527
vn -0.00167618 -0.999997 0.00165964
v 230.574 0.0035309 87.2573
vn 0.00060414 -1 -0.000581786
v 253.332 0.0428864 87.2627
vn 0.000485985 -0.999999 -0.00148704
v 276.085 -0.00413163 87.2696
vn -0.00236417 -0.999997 -0.000419586
v 71.2494 0.352577 101.821
vn -4.75631e-05 -1 1.04007e-05
v 94.0035 0.351315 101.808
vn -0.00736845 -0.999973 0.000621782
v 116.77 0.000173919 101.807
vn -0.00831799 -0.999964 0.00171407
v 139.524 -0.0152008 101.81
vn 0.000497183 -1 -0.00055192
v 162.285 0.02239 101.808
vn 0.000371966 -1 -0.000946369
v 185.056 0.0113876 101.799
vn 0.000732612 -0.999997 -0.00245398
v 207.81 0.0293518 101.798
vn -0.000982779 -0.999999 -0.00114118
v 230.572 0.00543363 101.804
vn -0.000315366 -1 1.93518e-05
v 253.327 -0.00208388 101.808
vn 0.000324391 -0.999999 -0.00120202
v 276.081 0.0133774 101.815
vn -0.000235404 -0.999999 -0.00116248
v 71.203 0.352745 116.362
vn -3.64742e-05 -1 6.50006e-06
v 93.9571 0.351938 116.355
vn -0.00705 -0.999975 -0.000721456
v 116.75 0.052454 116.353
vn -0.00748712 -0.999972 -0.000313592
v 139.512 0.0096407 116.36
vn -0.00109984 -0.999999 0.000802537
v 162.266 -0.00283762 116.353
vn 0.000373357 -1 -0.000786557
v 185.041 0.005885 116.349
vn 0.000101879 -1 -0.00045781
v 207.808 0.00340732 116.344
vn -0.0001778 -1 -0.000222244
v 230.565 -0.0129808 116.35
vn -0.000266495 -1 -0.000263596
v 253.321 0.00110771 116.354
vn 5.08964e-05 -1 3.53757e-05
v 276.075 -0.00988613 116.361
vn -9.56078e-05 -1 -5.00248e-05
v 71.1297 0.352755 130.933
vn -3.34312e-05 -1 4.76093e-07
v 93.8837 0.351947 130.909
vn -0.00531413 -0.999986 -2.13975e-05
v 116.721 -0.00968519 130.906
vn -0.00948212 -0.999951 -0.00287732
v 139.475 0.00298607 130.906
vn -0.000795334 -0.999998 -0.00173028
v 162.271 -0.0212588 130.9
vn -0.000231466 -0.999999 -0.00099725
v 185.031 -0.000332033 130.899
vn 0.000616154 -1 -0.000706681
v 207.799 0.0121092 130.888
vn 7.98827e-05 -1 0.000256307
v 230.559 0.00760111 130.895
vn -0.000421834 -0.999999 0.00114262
v 253.313 -0.000278016 130.9
vn 0.000212188 -1 0.000408228
v 276.07 0.00800192 130.906
vn -5.98123e-05 -1 0.000567202
# Faces: 162
f 12//12 11//11 1//1 
f 12//12 1//1 2//2 
f 13//13 12//12 2//2 
f 13//13 2//2 3//3 
f 14//14 13//13 3//3 
f 14//14 3//3 4//4 
f 15//15 14//14 4//4 
f 15//15 4//4 5//5 
f 16//16 15//15 5//5 
f 16//16 5//5 6//6 
f 17//17 16//16 6//6 
f 17//17 6//6 7//7 
f 18//18 17//17 7//7 
f 18//18 7//7 8//8 
f 19//19 18//18 8//8 
f 19//19 8//8 9//9 
f 20//20 19//19 9//9 
f 20//20 9//9 10//10 
f 22//22 21//21 11//11 
f 22//22 11//11 12//12 
f 23//23 22//22 12//12 
f 23//23 12//12 13//13 
f 24//24 23//23 13//13 
f 24//24 13//13 14//14 
f 25//25 24//24 14//14 
f 25//25 14//14 15//15 
f 26//26 25//25 15//15 
f 26//26 15//15 16//16 
f 27//27 26//26 16//16 
f 27//27 16//16 17//17 
f 28//28 27//27 17//17 
f 28//28 17//17 18//18 
f 29//29 28//28 18//18 
f 29//29 18//18 19//19 
f 30//30 29//29 19//19 
f 30//30 19//19 20//20 
f 32//32 31//31 21//21 
f 32//32 21//21 22//22 
f 33//33 32//32 22//22 
f 33//33 22//22 23//23 
f 34//34 33//33 23//23 
f 34//34 23//23 24//24 
f 35//35 34//34 24//24 
f 35//35 24//24 25//25 
f 36//36 35//35 25//25 
f 36//36 25//25 26//26 
f 37//37 36//36 26//26 
f 37//37 26//26 27//27 
f 38//38 37//37 27//27 
f 38//38 27//27 28//28 
f 39//39 38//38 28//28 
f 39//39 28//28 29//29 
f 40//40 39//39 29//29 
f 40//40 29//29 30//30 
f 42//42 41//41 31//31 
f 42//42 31//31 32//32 
f 43//43 42//42 32//32 
f 43//43 32//32 33//33 
f 44//44 43//43 33//33 
f 44//44 33//33 34//34 
f 45//45 44//44 34//34 
f 45//45 34//34 35//35 
f 46//46 45//45 35//35 
f 46//46 35//35 36//36 
f 47//47 46//46 36//36 
f 47//47 36//36 37//37 
f 48//48 47//47 37//37 
f 48//48 37//37 38//38 
f 49//49 48//48 38//38 
f 49//49 38//38 39//39 
f 50//50 49//49 39//39 
f 50//50 39//39 40//40 
f 52//52 51//51 41//41 
f 52//52 41//41 42//42 
f 53//53 52//52 42//42 
f 53//53 42//42 43//43 
f 54//54 53//53 43//43 
f 54//54 43//43 44//44 
f 55//55 54//54 44//44 
f 55//55 44//44 45//45 
f 56//56 55//55 45//45 
f 56//56 45//45 46//46 
f 57//57 56//56 46//46 
f 57//57 46//46 47//47 
f 58//58 57//57 47//47 
f 58//58 47//47 48//48 
f 59//59 58//58 48//48 
f 59//59 48//48 49//49 
f 60//60 59//59 49//49 
f 60//60 49//49 50//50 
f 62//62 61//61 51//51 
f 62//62 51//51 52//52 
f 63//63 62//62 52//52 
f 63//63 52//52 53//53 
f 64//64 63//63 53//53 
f 64//64 53//53 54//54 
f 65//65 64//64 54//54 
f 65//65 54//54 55//55 
f 66//66 65//65 55//55 
f 66//66 55//55 56//56 
f 67//67 66//66 56//56 
f 67//67 56//56 57//57 
f 68//68 67//67 57//57 
f 68//68 57//57 58//58 
f 69//69 68//68 58//58 
f 69//69 58//58 59//59 
f 70//70 69//69 59//59 
f 70//70 59//59 60//60 
f 72//72 71//71 61//61 
f 72//72 61//61 62//62 
f 73//73 72//72 62//62 
f 73//73 62//62 63//63 
f 74//74 73//73 63//63 
f 74//74 63//63 64//64 
f 75//75 74//74 64//64 
f 75//75 64//64 65//65 
f 76//76 75//75 65//65 
f 76//76 65//65 66//66 
f 77//77 76//76 66//66 
f 77//77 66//66 67//67 
f 78//78 77//77 67//67 
f 78//78 67//67 68//68 
f 79//79 78//78 68//68 
f 79//79 68//68 69//69 
f 80//80 79//79 69//69 
f 80//80 69//69 70//70 
f 82//82 81//81 71//71 
f 82//82 71//71 72//72 
f 83//83 82//82 72//72 
f 83//83 72//72 73//73 
f 84//84 83//83 73//73 
f 84//84 73//73 74//74 
f 85//85 84//84 74//74 
f 85//85 74//74 75//75 
f 86//86 85//85 75//75 
f 86//86 75//75 76//76 
f 87//87 86//86 76//76 
f 87//87 76//76 77//77 
f 88//88 87//87 77//77 
f 88//88 77//77 78//78 
f 89//89 88//88 78//78 
f 89//89 78//78 79//79 
f 90//90 89//89 79//79 
f 90//90 79//79 80//80 
f 92//92 91//91 81//81 
f 92//92 81//81 82//82 
f 93//93 92//92 82//82 
f 93//93 82//82 83//83 
f 94//94 93//93 83//83 
f 94//94 83//83 84//84 
f 95//95 94//94 84//84 
f 95//95 84//84 85//85 
f 96//96 95//95 85//85 
f 96//96 85//85 86//86 
f 97//97 96//96 86//86 
f 97//97 86//86 87//87 
f 98//98 97//97 87//87 
f 98//98 87//87 88//88 
f 99//99 98//98 88//88 
f 99//99 88//88 89//89 
f 100//100 99//99 89//89 
f 100//100 89//89 90//90 
