<svg id="Layer_1" data-name="Layer 1" xmlns="http://www.w3.org/2000/svg" xmlns:xlink="http://www.w3.org/1999/xlink" viewBox="0 0 2400 650"><defs><style>.cls-1{fill:#f7f9f9;}.cls-2{fill:url(#linear-gradient);}.cls-3{fill:url(#radial-gradient);}.cls-4{fill:url(#radial-gradient-2);}.cls-5{fill:url(#linear-gradient-2);}.cls-6{fill:url(#linear-gradient-3);}.cls-7{fill:url(#linear-gradient-4);}.cls-8{fill:url(#linear-gradient-5);}.cls-9{fill:url(#linear-gradient-6);}.cls-10{fill:url(#linear-gradient-7);}.cls-11{fill:url(#radial-gradient-3);}.cls-12{fill:url(#radial-gradient-4);}.cls-13{fill:url(#linear-gradient-8);}.cls-14{fill:url(#linear-gradient-9);}.cls-15{fill:url(#radial-gradient-5);}.cls-16{fill:url(#linear-gradient-10);}.cls-17{fill:url(#linear-gradient-11);}.cls-18{fill:url(#linear-gradient-12);}.cls-19{fill:#ff6485;}.cls-20{fill:url(#linear-gradient-13);}.cls-21{fill:url(#linear-gradient-14);}.cls-22{fill:url(#linear-gradient-15);}.cls-23{fill:url(#linear-gradient-16);}.cls-24{fill:url(#linear-gradient-17);}.cls-25{fill:url(#linear-gradient-18);}.cls-26{fill:url(#linear-gradient-19);}.cls-27{fill:url(#linear-gradient-20);}.cls-28{fill:url(#linear-gradient-21);}.cls-29{fill:url(#linear-gradient-22);}.cls-30{fill:url(#linear-gradient-23);}.cls-31{fill:url(#linear-gradient-24);}.cls-32{fill:url(#linear-gradient-25);}.cls-33{fill:url(#linear-gradient-26);}.cls-34{fill:url(#linear-gradient-27);}.cls-35{fill:url(#linear-gradient-28);}.cls-36{fill:url(#linear-gradient-29);}.cls-37{fill:url(#linear-gradient-30);}.cls-38{fill:url(#linear-gradient-31);}.cls-39{fill:url(#linear-gradient-32);}.cls-40{fill:url(#linear-gradient-33);}.cls-41{fill:url(#linear-gradient-34);}.cls-42{fill:url(#linear-gradient-35);}.cls-43{fill:url(#linear-gradient-36);}.cls-44{fill:url(#linear-gradient-37);}.cls-45{fill:url(#linear-gradient-38);}.cls-46{fill:url(#linear-gradient-39);}.cls-47{fill:url(#linear-gradient-40);}.cls-48{fill:url(#linear-gradient-41);}.cls-49{fill:url(#linear-gradient-42);}.cls-50{fill:url(#linear-gradient-43);}</style><linearGradient id="linear-gradient" x1="427.013" y1="314.384" x2="432.736" y2="392.306" gradientUnits="userSpaceOnUse"><stop offset="0" stop-color="#ff864f"/><stop offset="1" stop-color="#ff7771"/></linearGradient><radialGradient id="radial-gradient" cx="478.513" cy="252.71" fx="515.6312489122645" r="117.461" gradientUnits="userSpaceOnUse"><stop offset="0" stop-color="#ffa146"/><stop offset="1" stop-color="#ff9a53"/></radialGradient><radialGradient id="radial-gradient-2" cx="464.617" cy="201.935" fx="518.1908237995043" r="169.535" gradientUnits="userSpaceOnUse"><stop offset="0" stop-color="#ffa146"/><stop offset="1" stop-color="#ffbc13"/></radialGradient><linearGradient id="linear-gradient-2" x1="501.548" y1="242.242" x2="512.44" y2="390.547" gradientUnits="userSpaceOnUse"><stop offset="0" stop-color="#ff9a53"/><stop offset="1" stop-color="#ff7475"/></linearGradient><linearGradient id="linear-gradient-3" x1="445.61" y1="314.232" x2="482.736" y2="393.849" gradientUnits="userSpaceOnUse"><stop offset="0" stop-color="#ff795c"/><stop offset="0.322" stop-color="#ff7861"/><stop offset="0.69" stop-color="#ff756f"/><stop offset="1" stop-color="#ff7180"/></linearGradient><linearGradient id="linear-gradient-4" x1="274.271" y1="221.456" x2="322.17" y2="280.586" gradientUnits="userSpaceOnUse"><stop offset="0" stop-color="#ff994e"/><stop offset="1" stop-color="#ffa146"/></linearGradient><linearGradient id="linear-gradient-5" x1="142.705" y1="201.985" x2="207.864" y2="201.985" gradientUnits="userSpaceOnUse"><stop offset="0" stop-color="#f170ff"/><stop offset="1" stop-color="#f57690"/></linearGradient><linearGradient id="linear-gradient-6" x1="264.569" y1="253.944" x2="287.68" y2="190.449" gradientUnits="userSpaceOnUse"><stop offset="0" stop-color="#ff8565"/><stop offset="1" stop-color="#ff8664"/></linearGradient><linearGradient id="linear-gradient-7" x1="270.506" y1="223.474" x2="183.714" y2="171.754" gradientUnits="userSpaceOnUse"><stop offset="0" stop-color="#ff8565"/><stop offset="1" stop-color="#ff7079"/></linearGradient><radialGradient id="radial-gradient-3" cx="359.572" cy="295.406" fy="302.9933392696115" r="30.649" gradientTransform="translate(0 129.906) scale(1 0.56)" gradientUnits="userSpaceOnUse"><stop offset="0" stop-color="#ff9159"/><stop offset="1" stop-color="#ff9159"/></radialGradient><radialGradient id="radial-gradient-4" cx="407.551" cy="359.424" r="90.488" gradientUnits="userSpaceOnUse"><stop offset="0" stop-color="#ff796f"/><stop offset="1" stop-color="#ff796f"/></radialGradient><linearGradient id="linear-gradient-8" x1="380.901" y1="367.138" x2="399.211" y2="427.063" gradientUnits="userSpaceOnUse"><stop offset="0" stop-color="#ff806f"/><stop offset="1" stop-color="#ff6782"/></linearGradient><linearGradient id="linear-gradient-9" x1="107.656" y1="442.625" x2="216.318" y2="409.191" gradientUnits="userSpaceOnUse"><stop offset="0" stop-color="#00796f"/><stop offset="0.988" stop-color="#8079ff"/></linearGradient><radialGradient id="radial-gradient-5" cx="322.441" cy="278.022" r="89.545" gradientUnits="userSpaceOnUse"><stop offset="0" stop-color="#ff6485"/><stop offset="1" stop-color="#ff6bd8"/></radialGradient><linearGradient id="linear-gradient-10" x1="440.122" y1="390.556" x2="425.675" y2="422.752" gradientUnits="userSpaceOnUse"><stop offset="0" stop-color="#ff6286"/><stop offset="1" stop-color="#ff6286"/></linearGradient><linearGradient id="linear-gradient-11" x1="391.147" y1="425.114" x2="390.528" y2="454.627" gradientUnits="userSpaceOnUse"><stop offset="0" stop-color="#ff639b"/><stop offset="1" stop-color="#ff68c5"/></linearGradient><linearGradient id="linear-gradient-12" x1="428.568" y1="413.303" x2="394.824" y2="460.771" gradientUnits="userSpaceOnUse"><stop offset="0" stop-color="#f6a"/><stop offset="1" stop-color="#ff6eef"/></linearGradient><linearGradient id="linear-gradient-13" x1="447.181" y1="424.796" x2="416.946" y2="446.776" gradientUnits="userSpaceOnUse"><stop offset="0" stop-color="#ff67c1"/><stop offset="1" stop-color="#ff6bdd"/></linearGradient><linearGradient id="linear-gradient-14" x1="445.463" y1="441.452" x2="413.267" y2="488.353" gradientUnits="userSpaceOnUse"><stop offset="0" stop-color="#ff6de8"/><stop offset="1" stop-color="#c978ff"/></linearGradient><linearGradient id="linear-gradient-15" x1="395.182" y1="459.769" x2="361.542" y2="508.889" gradientUnits="userSpaceOnUse"><stop offset="0" stop-color="#f271ff"/><stop offset="1" stop-color="#c279ff"/></linearGradient><linearGradient id="linear-gradient-16" x1="335.09" y1="366.738" x2="352.272" y2="421.842" gradientUnits="userSpaceOnUse"><stop offset="0" stop-color="#ff7475"/><stop offset="1" stop-color="#ff6583"/></linearGradient><linearGradient id="linear-gradient-17" x1="355.874" y1="419.622" x2="372.901" y2="505.994" gradientUnits="userSpaceOnUse"><stop offset="0" stop-color="#ff6ac9"/><stop offset="0.513" stop-color="#ff6deb"/><stop offset="1" stop-color="#d677ff"/></linearGradient><linearGradient id="linear-gradient-18" x1="406.517" y1="474.104" x2="370.916" y2="514.039" gradientUnits="userSpaceOnUse"><stop offset="0" stop-color="#e375ff"/><stop offset="1" stop-color="#b87aff"/></linearGradient><linearGradient id="linear-gradient-19" x1="350.349" y1="465.337" x2="341.061" y2="523.073" gradientUnits="userSpaceOnUse"><stop offset="0" stop-color="#aa7bff"/><stop offset="1" stop-color="#7d99ff"/></linearGradient><linearGradient id="linear-gradient-20" x1="287.276" y1="363.099" x2="306.605" y2="309.992" gradientUnits="userSpaceOnUse"><stop offset="0" stop-color="#b073ff"/><stop offset="1" stop-color="#ff69c1"/></linearGradient><linearGradient id="linear-gradient-21" x1="330.737" y1="366.794" x2="332.32" y2="362.444" gradientUnits="userSpaceOnUse"><stop offset="0" stop-color="#b073ff"/><stop offset="1" stop-color="#cc73ff"/></linearGradient><linearGradient id="linear-gradient-22" x1="325.309" y1="304.14" x2="312.926" y2="339.741" gradientUnits="userSpaceOnUse"><stop offset="0" stop-color="#e66fff"/><stop offset="1" stop-color="#cc73ff"/></linearGradient><linearGradient id="linear-gradient-23" x1="341.281" y1="384.415" x2="268.84" y2="398.346" gradientUnits="userSpaceOnUse"><stop offset="0" stop-color="#8978ff"/><stop offset="1" stop-color="#7f79ff"/></linearGradient><linearGradient id="linear-gradient-24" x1="258.302" y1="490.408" x2="367.16" y2="456.913" gradientUnits="userSpaceOnUse"><stop offset="0" stop-color="#8e7cd0"/><stop offset="0.988" stop-color="#966be2"/></linearGradient><linearGradient id="linear-gradient-25" x1="251.331" y1="471.396" x2="336.568" y2="515.769" gradientUnits="userSpaceOnUse"><stop offset="0" stop-color="#b07acb"/><stop offset="0.988" stop-color="#8c90ff"/></linearGradient><linearGradient id="linear-gradient-26" x1="220.662" y1="456.387" x2="336.238" y2="388.693" gradientUnits="userSpaceOnUse"><stop offset="0" stop-color="#3d6bb9"/><stop offset="0.988" stop-color="#b073ff"/></linearGradient><linearGradient id="linear-gradient-27" x1="194.473" y1="460.537" x2="228.494" y2="450.069" gradientUnits="userSpaceOnUse"><stop offset="0" stop-color="#4f79c8"/><stop offset="0.988" stop-color="#9177cf"/></linearGradient><linearGradient id="linear-gradient-28" x1="163.13" y1="489.154" x2="282.49" y2="452.428" gradientUnits="userSpaceOnUse"><stop offset="0" stop-color="#3b79bf"/><stop offset="0.988" stop-color="#9176d6"/></linearGradient><linearGradient id="linear-gradient-29" x1="239.79" y1="367.532" x2="280.397" y2="355.037" gradientUnits="userSpaceOnUse"><stop offset="0" stop-color="#8f79a5"/><stop offset="0.988" stop-color="#d86fe0"/></linearGradient><linearGradient id="linear-gradient-30" x1="315.316" y1="237.132" x2="211.184" y2="303.3" gradientUnits="userSpaceOnUse"><stop offset="0" stop-color="#ff9c4b"/><stop offset="0.988" stop-color="#e56bb0"/></linearGradient><linearGradient id="linear-gradient-31" x1="117.205" y1="233.093" x2="175.217" y2="215.243" gradientUnits="userSpaceOnUse"><stop offset="0" stop-color="#69799a"/><stop offset="0.988" stop-color="#f272fd"/></linearGradient><linearGradient id="linear-gradient-32" x1="184.704" y1="218.125" x2="224.975" y2="286.549" gradientUnits="userSpaceOnUse"><stop offset="0" stop-color="#de71f7"/><stop offset="1" stop-color="#ff8967"/></linearGradient><linearGradient id="linear-gradient-33" x1="247.993" y1="359.172" x2="197.223" y2="425.112" gradientUnits="userSpaceOnUse"><stop offset="0" stop-color="#e377b4"/><stop offset="0.988" stop-color="#8079ff"/></linearGradient><linearGradient id="linear-gradient-34" x1="177.192" y1="446.488" x2="254.234" y2="422.782" gradientUnits="userSpaceOnUse"><stop offset="0" stop-color="#6679e1"/><stop offset="0.988" stop-color="#bd78d1"/></linearGradient><linearGradient id="linear-gradient-35" x1="176.144" y1="405.034" x2="180.478" y2="321.448" gradientUnits="userSpaceOnUse"><stop offset="0" stop-color="#4f6fcb"/><stop offset="0.988" stop-color="#b670d8"/></linearGradient><linearGradient id="linear-gradient-36" x1="120.355" y1="416.835" x2="232.67" y2="382.276" gradientUnits="userSpaceOnUse"><stop offset="0" stop-color="#4a79c2"/><stop offset="0.988" stop-color="#756fd0"/></linearGradient><linearGradient id="linear-gradient-37" x1="123.894" y1="372.845" x2="231.483" y2="339.741" gradientUnits="userSpaceOnUse"><stop offset="0" stop-color="#6779e2"/><stop offset="0.988" stop-color="#de6bd3"/></linearGradient><linearGradient id="linear-gradient-38" x1="146.793" y1="251.996" x2="198.338" y2="338.833" gradientUnits="userSpaceOnUse"><stop offset="0" stop-color="#b475d0"/><stop offset="1" stop-color="#cc84ba"/></linearGradient><linearGradient id="linear-gradient-39" x1="190.174" y1="378.046" x2="235.819" y2="308.873" gradientUnits="userSpaceOnUse"><stop offset="0.011" stop-color="#ac76ca"/><stop offset="0.988" stop-color="#f071a3"/></linearGradient><linearGradient id="linear-gradient-40" x1="240.89" y1="359.919" x2="272.047" y2="312.701" gradientUnits="userSpaceOnUse"><stop offset="0.011" stop-color="#ac76ca"/><stop offset="0.988" stop-color="#ff658d"/></linearGradient><linearGradient id="linear-gradient-41" x1="315.021" y1="141.761" x2="269.475" y2="186.348" gradientUnits="userSpaceOnUse"><stop offset="0" stop-color="#ff8f5b"/><stop offset="1" stop-color="#ff8967"/></linearGradient><linearGradient id="linear-gradient-42" x1="483.086" y1="422.75" x2="513.769" y2="451.516" gradientUnits="userSpaceOnUse"><stop offset="0" stop-color="#ff6a9c"/><stop offset="1" stop-color="#ff6bd8"/></linearGradient><linearGradient id="linear-gradient-43" x1="502.11" y1="372.812" x2="442.82" y2="452.717" gradientUnits="userSpaceOnUse"><stop offset="0" stop-color="#ff6a7f"/><stop offset="1" stop-color="#ff698f"/></linearGradient></defs><rect class="cls-1" width="2400" height="650"/><g id="icon"><polygon class="cls-2" points="483.294 292.968 439.729 393.851 368.132 300.398 483.294 292.968"/><polygon class="cls-3" points="520.862 205.972 483.294 292.968 368.132 300.398 348.525 274.806 520.862 205.972"/><polygon class="cls-4" points="348.525 274.806 291.976 203.809 320.25 135.804 333.396 130.517 520.862 205.972 348.525 274.806"/><polygon class="cls-5" points="483.294 292.968 520.796 393.851 520.862 205.972 483.294 292.968"/><polygon class="cls-6" points="515.462 379.502 483.294 292.968 439.729 393.851 444.456 413.835 515.462 379.502"/><polygon class="cls-7" points="270.268 256.019 291.976 203.809 348.525 274.806 333.329 281.401 270.268 256.019"/><polygon class="cls-8" points="178.559 219.106 145.862 205.945 198.275 184.864 178.559 219.106"/><polygon class="cls-9" points="291.976 203.809 279.592 187.505 257.148 250.738 270.268 256.019 291.976 203.809"/><polygon class="cls-10" points="257.148 250.738 178.559 219.106 198.275 184.864 253.235 162.758 279.592 187.505 257.148 250.738"/><polygon class="cls-11" points="368.132 300.398 333.362 302.641 333.329 281.401 348.525 274.806 368.132 300.398"/><polygon class="cls-12" points="333.362 302.641 333.362 362.714 415.874 362.714 368.132 300.398 333.362 302.641"/><polygon class="cls-13" points="409.429 424.48 432.277 384.124 415.874 362.714 333.362 362.714 372.892 424.48 409.429 424.48"/><polygon class="cls-14" points="209.046 469.459 199.722 428.563 145.862 372.839 145.862 444.028 209.046 469.459"/><polygon class="cls-15" points="333.362 302.641 239.376 308.741 270.268 256.019 333.329 281.401 333.362 302.641"/><polygon class="cls-16" points="412.761 418.595 444.456 413.835 439.729 393.851 432.277 384.124 412.761 418.595"/><polygon class="cls-17" points="372.892 424.48 392.279 454.773 409.429 424.48 372.892 424.48"/><polygon class="cls-18" points="412.761 418.595 392.279 454.773 398.78 463.751 439.729 414.545 412.761 418.595"/><polygon class="cls-19" points="439.729 414.545 444.456 413.835 450.23 438.248 439.729 414.545"/><polygon class="cls-20" points="439.729 414.545 450.23 438.248 414.88 444.404 439.729 414.545"/><polygon class="cls-21" points="398.78 463.751 410.842 488.284 457.613 469.459 450.23 438.248 414.88 444.404 398.78 463.751"/><polygon class="cls-22" points="362.228 507.851 398.78 463.751 392.279 454.773 362.228 507.851"/><polygon class="cls-23" points="333.362 362.714 333.362 420.514 370.353 420.514 333.362 362.714"/><polygon class="cls-24" points="333.362 420.514 333.329 454.773 362.228 507.851 392.279 454.773 370.353 420.514 333.362 420.514"/><polygon class="cls-25" points="398.78 463.751 410.842 488.284 362.228 507.851 398.78 463.751"/><polygon class="cls-26" points="333.329 454.773 362.228 507.851 333.329 519.483 333.329 454.773"/><polygon class="cls-27" points="265.957 306.989 296.578 305.014 329.157 362.714 274.33 362.714 265.957 306.989"/><polygon class="cls-28" points="329.157 362.714 333.362 362.714 333.329 368.092 329.157 362.714"/><polygon class="cls-29" points="296.578 305.014 333.362 302.641 333.362 362.714 329.157 362.714 296.578 305.014"/><polygon class="cls-30" points="274.33 362.714 315.937 420.514 333.362 420.514 333.362 368.092 329.157 362.714 274.33 362.714"/><polygon class="cls-31" points="333.329 454.773 333.362 420.514 315.937 420.514 291.976 476.857 333.329 519.483 333.329 454.773"/><polygon class="cls-32" points="291.976 476.857 333.329 519.483 246.12 484.382 291.976 476.857"/><polygon class="cls-33" points="274.33 362.714 219.689 444.404 291.976 476.857 315.937 420.514 274.33 362.714"/><polygon class="cls-34" points="209.046 469.459 219.689 444.404 203.333 444.404 209.046 469.459"/><polygon class="cls-35" points="209.046 469.459 246.12 484.382 291.976 476.857 219.689 444.404 209.046 469.459"/><polygon class="cls-36" points="246.12 342.225 259.55 384.811 274.33 362.714 246.12 342.225"/><polygon class="cls-37" points="257.148 250.738 214.005 292.968 239.376 308.741 270.268 256.019 257.148 250.738"/><polygon class="cls-38" points="178.559 219.106 145.862 242.605 145.862 205.945 178.559 219.106"/><polygon class="cls-39" points="145.862 242.605 214.005 292.968 257.148 250.738 178.559 219.106 145.862 242.605"/><polygon class="cls-40" points="246.12 342.225 225.193 343.702 199.722 428.563 236.952 418.595 259.55 384.811 246.12 342.225"/><polygon class="cls-41" points="199.722 428.563 203.333 444.404 219.689 444.404 236.952 418.595 199.722 428.563"/><polygon class="cls-42" points="145.862 372.839 145.862 322.687 211.511 389.284 145.862 372.839"/><polygon class="cls-43" points="199.722 428.563 211.511 389.284 145.862 372.839 199.722 428.563"/><polygon class="cls-44" points="145.862 322.687 203.333 338.476 217.872 368.092 211.511 389.284 145.862 322.687"/><polygon class="cls-45" points="145.862 242.605 145.862 322.687 203.333 338.476 214.005 292.968 145.862 242.605"/><polygon class="cls-46" points="225.193 343.702 217.872 368.092 203.333 338.476 214.005 292.968 239.376 308.741 246.12 342.225 225.193 343.702"/><polygon class="cls-47" points="239.376 308.741 265.957 306.989 274.33 362.714 246.12 342.225 239.376 308.741"/><polygon class="cls-48" points="253.235 162.758 279.592 187.505 291.976 203.809 320.25 135.804 253.235 162.758"/><polygon class="cls-49" points="457.613 469.459 517.18 384.124 520.796 393.851 520.796 444.028 457.613 469.459"/><polygon class="cls-50" points="444.456 413.835 515.462 379.502 517.18 384.124 457.613 469.459 444.456 413.835"/></g><path d="M620.739,137.988h6.355l30.9,136.3,83.927-136.3h7.012L660.4,281.3h-6.793Z"/><path d="M803.911,175.5c29.007,0,51.963,18.573,51.963,49.041,0,32.764-26.294,59.475-60.936,59.475-28.8,0-51.754-18.573-51.754-49.249C743.184,202,769.478,175.5,803.911,175.5Zm46.328,49.25c0-25.668-17.738-44.242-45.91-44.242-32.556,0-55.511,24.834-55.511,54.05,0,25.877,17.738,44.45,45.911,44.45C827.284,279,850.239,253.961,850.239,224.745Z"/><path d="M894.273,133.132H899.7L870.9,281.3h-5.427Z"/><path d="M911.383,228.292a69.856,69.856,0,0,0-1.252,12.313c0,23.582,16.486,38.4,41.528,38.4,25.459,0,43.616-14.816,48.833-41.946l11.269-58.849h5.634l-11.478,59.267c-6.052,31.093-26.5,46.536-53.84,46.536-26.921,0-47.581-14.816-47.581-42.571a71.069,71.069,0,0,1,1.461-13.774l9.6-49.458h5.426Z"/><path d="M1188.311,211.18a67.417,67.417,0,0,1-1.253,12.313L1176,281.3h-5.635l11.478-58.432a57.432,57.432,0,0,0,1.043-10.643c0-20.452-13.147-31.721-31.511-31.721-18.99,0-34.85,12.522-39.233,35.686l-12.521,65.11h-5.634l11.477-58.432a54.33,54.33,0,0,0,1.043-10.017c0-20.242-13.981-32.347-32.554-32.347-18.782,0-33.6,12.105-38.19,35.686l-12.52,65.11h-5.426l12.521-65.736c5.008-26.712,22.746-40.068,44.032-40.068,19.617,0,33.807,11.06,36.1,29.842,7.929-20.869,24.207-29.842,41.32-29.842C1172.66,175.5,1188.311,188.434,1188.311,211.18Z"/><path d="M1206.883,230.171a33.921,33.921,0,0,0-.208,4.591c0,25.877,17.739,44.241,46.328,44.241,19.407,0,37.146-8.348,48-26.712h5.635c-10.434,20.451-30.885,31.72-53.633,31.72-29.007,0-51.963-18.573-51.963-49.041,0-32.763,26.294-59.475,60.938-59.475,29.006,0,51.544,18.573,51.544,48.415,0,1.669,0,3.965-.208,6.261Zm.628-5.009H1308.1V223.91c0-24.833-17.948-43.407-46.119-43.407C1232.969,180.5,1211.893,200.12,1207.511,225.162Z"/><path d="M828.752,415.348c0-44.7,36.156-81.955,83.707-81.955,32.651,0,60.7,17.969,68.808,47.771h-6.356c-8.107-26.516-33.746-42.293-62.89-42.293a76.681,76.681,0,0,0-77.133,76.477c0,37.909,28.7,61.575,65.519,61.575,29.145,0,54.564-14.463,69.026-42.292h6.575C960.668,466.186,932.4,482.4,899.969,482.4,859.211,482.4,828.752,456.325,828.752,415.348Z"/><path d="M1090.3,455.554c-11.269,17.529-29.007,26.711-50.293,26.711-30.26,0-51.545-18.781-51.545-48.623,0-33.181,26.5-59.893,61.145-59.893,28.59,0,51.337,18.365,51.337,47.789a63.171,63.171,0,0,1-1.253,12.312l-8.765,45.7h-5.217ZM1095.517,423c0-26.294-18.156-44.241-45.7-44.241-32.555,0-55.718,25.042-55.718,54.467,0,26.295,18.364,44.032,46.119,44.032C1072.979,477.257,1095.517,452.423,1095.517,423Z"/><path d="M1123.9,411.939c5.007-25.668,22.12-38.19,43.823-38.19,24,0,40.068,12.1,40.068,34.851a62.885,62.885,0,0,1-.835,9.391h-5.426a54.714,54.714,0,0,0,.836-8.973c0-20.452-15.236-30.26-35.477-30.26-18.574,0-32.972,10.434-37.564,33.6l-13.147,67.2h-5.426Z"/><path d="M1222.186,439.694a53.966,53.966,0,0,0-1.043,9.6c0,18.365,13.775,27.964,32.139,27.964,18.572,0,31.3-10.017,35.685-31.094l1.043-5.009h5.008l-1.044,5.427c-4.8,24-19.823,35.684-41.318,35.684-21.286,0-36.938-11.476-36.938-32.554a59.072,59.072,0,0,1,1.043-10.435l19.408-99.334h5.425l-7.094,36.52h66.778l-1.043,4.8h-66.779Z"/><path d="M1371.4,373.749c29.008,0,51.962,18.573,51.962,49.041,0,32.764-26.294,59.475-60.935,59.475-28.8,0-51.755-18.573-51.755-49.249C1310.669,400.252,1336.963,373.749,1371.4,373.749ZM1417.726,423c0-25.668-17.738-44.241-45.911-44.241-32.555,0-55.511,24.833-55.511,54.05,0,25.876,17.739,44.449,45.912,44.449C1394.77,477.257,1417.726,452.216,1417.726,423Z"/><path d="M1427.953,494.787h5.633c5.427,18.156,25.252,26.5,45.7,26.5,25.669,0,45.7-13.147,51.962-45.076l3.964-20.034c-11.06,17.112-29.006,26.085-49.875,26.085-30.26,0-51.754-18.781-51.754-48.623,0-33.181,26.5-59.893,60.937-59.893,28.8,0,51.752,18.573,51.752,48a63.52,63.52,0,0,1-1.251,12.1l-8.138,42.573C1530,512.108,1507.67,526.3,1479.079,526.3,1454.872,526.3,1433.8,516.281,1427.953,494.787ZM1540.642,423c0-26.5-18.156-44.241-45.7-44.241-32.555,0-55.718,25.042-55.718,54.467,0,26.295,18.364,44.032,45.911,44.032C1517.477,477.257,1540.642,453.05,1540.642,423Z"/><path d="M1569.023,411.939c5.01-25.668,22.12-38.19,43.825-38.19,24,0,40.067,12.1,40.067,34.851a62.76,62.76,0,0,1-.834,9.391h-5.427a54.723,54.723,0,0,0,.835-8.973c0-20.452-15.233-30.26-35.477-30.26-18.572,0-32.972,10.434-37.562,33.6l-13.147,67.2h-5.427Z"/><path d="M1761.013,455.554c-11.268,17.529-29.007,26.711-50.293,26.711-30.26,0-51.545-18.781-51.545-48.623,0-33.181,26.5-59.893,61.146-59.893,28.588,0,51.336,18.365,51.336,47.789a63.171,63.171,0,0,1-1.253,12.312l-8.766,45.7h-5.217ZM1766.23,423c0-26.294-18.154-44.241-45.7-44.241-32.554,0-55.718,25.042-55.718,54.467,0,26.295,18.364,44.032,46.12,44.032C1743.692,477.257,1766.23,452.423,1766.23,423Z"/><path d="M1791.69,422.79c5.843-29.633,29.635-49.041,59.895-49.041s51.752,19.2,51.752,49.25c0,33.39-26.5,59.266-61.143,59.266-26.3,0-45.076-15.025-49.25-36.728l-15.236,78.048h-5.633Zm4.592,10.018c0,25.876,17.739,44.449,46.119,44.449,32.347,0,55.3-24.416,55.3-54.258,0-26.086-17.739-44.241-45.912-44.241C1818.82,378.758,1796.282,403.591,1796.282,432.808Z"/><path d="M1940.693,331.386h5.425l-12.729,65.736c10.224-15.234,25.458-23.373,43.822-23.373,27.548,0,47.789,15.234,47.789,42.781,0,5.008-.834,8.765-1.669,13.564l-9.391,49.459h-5.425l9.6-50.084a68.368,68.368,0,0,0,1.253-12.313c0-24-16.277-38.4-42.989-38.4-24,0-42.573,15.025-47.791,41.945l-11.268,58.85h-5.425Z"/><path d="M2045.035,428.425a33.6,33.6,0,0,0-.21,4.591c0,25.877,17.739,44.241,46.33,44.241,19.407,0,37.146-8.347,48-26.712h5.633c-10.434,20.451-30.886,31.72-53.631,31.72-29.007,0-51.963-18.573-51.963-49.04,0-32.764,26.294-59.476,60.936-59.476,29.006,0,51.544,18.573,51.544,48.416,0,1.669,0,3.964-.208,6.26Zm.626-5.008h100.586v-1.252c0-24.834-17.946-43.407-46.119-43.407C2071.121,378.758,2050.043,398.374,2045.661,423.417Z"/><path d="M2170.246,411.939c5.008-25.668,22.121-38.19,43.823-38.19,24,0,40.069,12.1,40.069,34.851a62.746,62.746,0,0,1-.836,9.391h-5.425a54.714,54.714,0,0,0,.836-8.973c0-20.452-15.236-30.26-35.478-30.26-18.574,0-32.972,10.434-37.564,33.6l-13.146,67.2H2157.1Z"/></svg>