<svg id="Layer_1" data-name="Layer 1" xmlns="http://www.w3.org/2000/svg" xmlns:xlink="http://www.w3.org/1999/xlink" viewBox="0 0 1024 1024"><defs><style>.cls-1{fill:url(#linear-gradient);}.cls-2{fill:url(#radial-gradient);}.cls-3{fill:url(#radial-gradient-2);}.cls-4{fill:url(#linear-gradient-2);}.cls-5{fill:url(#linear-gradient-3);}.cls-6{fill:url(#linear-gradient-4);}.cls-7{fill:url(#linear-gradient-5);}.cls-8{fill:url(#linear-gradient-6);}.cls-9{fill:url(#linear-gradient-7);}.cls-10{fill:url(#radial-gradient-3);}.cls-11{fill:url(#radial-gradient-4);}.cls-12{fill:url(#linear-gradient-8);}.cls-13{fill:url(#linear-gradient-9);}.cls-14{fill:url(#radial-gradient-5);}.cls-15{fill:url(#linear-gradient-10);}.cls-16{fill:url(#linear-gradient-11);}.cls-17{fill:url(#linear-gradient-12);}.cls-18{fill:#ff6485;}.cls-19{fill:url(#linear-gradient-13);}.cls-20{fill:url(#linear-gradient-14);}.cls-21{fill:url(#linear-gradient-15);}.cls-22{fill:url(#linear-gradient-16);}.cls-23{fill:url(#linear-gradient-17);}.cls-24{fill:url(#linear-gradient-18);}.cls-25{fill:url(#linear-gradient-19);}.cls-26{fill:url(#linear-gradient-20);}.cls-27{fill:url(#linear-gradient-21);}.cls-28{fill:url(#linear-gradient-22);}.cls-29{fill:url(#linear-gradient-23);}.cls-30{fill:url(#linear-gradient-24);}.cls-31{fill:url(#linear-gradient-25);}.cls-32{fill:url(#linear-gradient-26);}.cls-33{fill:url(#linear-gradient-27);}.cls-34{fill:url(#linear-gradient-28);}.cls-35{fill:url(#linear-gradient-29);}.cls-36{fill:url(#linear-gradient-30);}.cls-37{fill:url(#linear-gradient-31);}.cls-38{fill:url(#linear-gradient-32);}.cls-39{fill:url(#linear-gradient-33);}.cls-40{fill:url(#linear-gradient-34);}.cls-41{fill:url(#linear-gradient-35);}.cls-42{fill:url(#linear-gradient-36);}.cls-43{fill:url(#linear-gradient-37);}.cls-44{fill:url(#linear-gradient-38);}.cls-45{fill:url(#linear-gradient-39);}.cls-46{fill:url(#linear-gradient-40);}.cls-47{fill:url(#linear-gradient-41);}.cls-48{fill:url(#linear-gradient-42);}.cls-49{fill:url(#linear-gradient-43);}</style><linearGradient id="linear-gradient" x1="705.54493" y1="490.06078" x2="717.37283" y2="651.09952" gradientUnits="userSpaceOnUse"><stop offset="0" stop-color="#ff864f"/><stop offset="1" stop-color="#ff7771"/></linearGradient><radialGradient id="radial-gradient" cx="811.97778" cy="362.60028" fx="888.6889794769754" fy="371.0252197388691" r="242.75178" gradientUnits="userSpaceOnUse"><stop offset="0" stop-color="#ffa146"/><stop offset="1" stop-color="#ff9a53"/></radialGradient><radialGradient id="radial-gradient-2" cx="783.25889" cy="257.66659" fx="893.9787675772744" fy="269.8265902961736" r="350.37186" gradientUnits="userSpaceOnUse"><stop offset="0" stop-color="#ffa146"/><stop offset="1" stop-color="#ffbc13"/></radialGradient><linearGradient id="linear-gradient-2" x1="859.58262" y1="340.96653" x2="882.09406" y2="647.46361" gradientUnits="userSpaceOnUse"><stop offset="0" stop-color="#ff9a53"/><stop offset="1" stop-color="#ff7475"/></linearGradient><linearGradient id="linear-gradient-3" x1="743.97876" y1="489.74586" x2="820.70576" y2="654.28745" gradientUnits="userSpaceOnUse"><stop offset="0" stop-color="#ff795c"/><stop offset="0.322" stop-color="#ff7861"/><stop offset="0.69041" stop-color="#ff756f"/><stop offset="1" stop-color="#ff7180"/></linearGradient><linearGradient id="linear-gradient-4" x1="389.87714" y1="298.00974" x2="488.86893" y2="420.21139" gradientUnits="userSpaceOnUse"><stop offset="0" stop-color="#ff994e"/><stop offset="1" stop-color="#ffa146"/></linearGradient><linearGradient id="linear-gradient-5" x1="117.97544" y1="257.76859" x2="252.63722" y2="257.76859" gradientUnits="userSpaceOnUse"><stop offset="0" stop-color="#f170ff"/><stop offset="1" stop-color="#f57690"/></linearGradient><linearGradient id="linear-gradient-6" x1="369.8275" y1="365.15164" x2="417.58938" y2="233.92697" gradientUnits="userSpaceOnUse"><stop offset="0" stop-color="#ff8565"/><stop offset="1" stop-color="#ff8664"/></linearGradient><linearGradient id="linear-gradient-7" x1="382.09663" y1="302.1786" x2="202.72615" y2="195.29133" gradientUnits="userSpaceOnUse"><stop offset="0" stop-color="#ff8565"/><stop offset="1" stop-color="#ff7079"/></linearGradient><radialGradient id="radial-gradient-3" cx="566.16611" cy="450.839" fx="578.7992261334016" fy="466.5195678238653" r="63.34066" gradientTransform="translate(0 198.25816) scale(1 0.56025)" gradientUnits="userSpaceOnUse"><stop offset="0" stop-color="#ff9159"/><stop offset="1" stop-color="#ff9159"/></radialGradient><radialGradient id="radial-gradient-4" cx="665.32344" cy="583.14218" r="187.00896" gradientUnits="userSpaceOnUse"><stop offset="0" stop-color="#ff796f"/><stop offset="1" stop-color="#ff796f"/></radialGradient><linearGradient id="linear-gradient-8" x1="610.24545" y1="599.08566" x2="648.08654" y2="722.92922" gradientUnits="userSpaceOnUse"><stop offset="0" stop-color="#ff806f"/><stop offset="1" stop-color="#ff6782"/></linearGradient><linearGradient id="linear-gradient-9" x1="45.54002" y1="755.09221" x2="270.10747" y2="685.99453" gradientUnits="userSpaceOnUse"><stop offset="0" stop-color="#00796f"/><stop offset="0.98753" stop-color="#8079ff"/></linearGradient><radialGradient id="radial-gradient-5" cx="489.42822" cy="414.91271" r="185.05938" gradientUnits="userSpaceOnUse"><stop offset="0" stop-color="#ff6485"/><stop offset="1" stop-color="#ff6bd8"/></radialGradient><linearGradient id="linear-gradient-10" x1="732.63651" y1="647.48275" x2="702.77949" y2="714.02126" gradientUnits="userSpaceOnUse"><stop offset="0" stop-color="#ff6286"/><stop offset="1" stop-color="#ff6286"/></linearGradient><linearGradient id="linear-gradient-11" x1="631.4218" y1="718.9023" x2="630.14221" y2="779.89593" gradientUnits="userSpaceOnUse"><stop offset="0" stop-color="#ff639b"/><stop offset="1" stop-color="#ff68c5"/></linearGradient><linearGradient id="linear-gradient-12" x1="708.75763" y1="694.49217" x2="639.02015" y2="792.59381" gradientUnits="userSpaceOnUse"><stop offset="0" stop-color="#f6a"/><stop offset="1" stop-color="#ff6eef"/></linearGradient><linearGradient id="linear-gradient-13" x1="747.22613" y1="718.24474" x2="684.73965" y2="763.67006" gradientUnits="userSpaceOnUse"><stop offset="0.0002" stop-color="#ff67c1"/><stop offset="1" stop-color="#ff6bdd"/></linearGradient><linearGradient id="linear-gradient-14" x1="743.67454" y1="752.66771" x2="677.13604" y2="849.5964" gradientUnits="userSpaceOnUse"><stop offset="0" stop-color="#ff6de8"/><stop offset="1" stop-color="#c978ff"/></linearGradient><linearGradient id="linear-gradient-15" x1="639.76106" y1="790.52253" x2="570.23686" y2="892.0364" gradientUnits="userSpaceOnUse"><stop offset="0" stop-color="#f271ff"/><stop offset="1" stop-color="#c279ff"/></linearGradient><linearGradient id="linear-gradient-16" x1="515.57127" y1="598.25766" x2="551.0798" y2="712.14087" gradientUnits="userSpaceOnUse"><stop offset="0" stop-color="#ff7475"/><stop offset="1" stop-color="#ff6583"/></linearGradient><linearGradient id="linear-gradient-17" x1="558.52462" y1="707.55138" x2="593.71325" y2="886.05372" gradientUnits="userSpaceOnUse"><stop offset="0" stop-color="#ff6ac9"/><stop offset="0.51302" stop-color="#ff6deb"/><stop offset="1" stop-color="#d677ff"/></linearGradient><linearGradient id="linear-gradient-18" x1="663.18709" y1="820.14759" x2="589.61086" y2="902.68092" gradientUnits="userSpaceOnUse"><stop offset="0" stop-color="#e375ff"/><stop offset="1" stop-color="#b87aff"/></linearGradient><linearGradient id="linear-gradient-19" x1="547.10468" y1="802.02996" x2="527.91088" y2="921.35141" gradientUnits="userSpaceOnUse"><stop offset="0" stop-color="#aa7bff"/><stop offset="1" stop-color="#7d99ff"/></linearGradient><linearGradient id="linear-gradient-20" x1="416.75385" y1="590.73873" x2="456.70158" y2="480.98326" gradientUnits="userSpaceOnUse"><stop offset="0" stop-color="#b073ff"/><stop offset="1" stop-color="#ff69c1"/></linearGradient><linearGradient id="linear-gradient-21" x1="506.57348" y1="598.37389" x2="509.84569" y2="589.38356" gradientUnits="userSpaceOnUse"><stop offset="0" stop-color="#b073ff"/><stop offset="1" stop-color="#cc73ff"/></linearGradient><linearGradient id="linear-gradient-22" x1="495.35583" y1="468.88952" x2="469.76409" y2="542.46575" gradientUnits="userSpaceOnUse"><stop offset="0" stop-color="#e66fff"/><stop offset="1" stop-color="#cc73ff"/></linearGradient><linearGradient id="linear-gradient-23" x1="528.36585" y1="634.79064" x2="378.65421" y2="663.58134" gradientUnits="userSpaceOnUse"><stop offset="0" stop-color="#8978ff"/><stop offset="1" stop-color="#7f79ff"/></linearGradient><linearGradient id="linear-gradient-24" x1="356.87595" y1="853.84282" x2="581.84737" y2="784.62084" gradientUnits="userSpaceOnUse"><stop offset="0" stop-color="#8e7cd0"/><stop offset="0.98753" stop-color="#966be2"/></linearGradient><linearGradient id="linear-gradient-25" x1="342.46761" y1="814.55157" x2="518.62404" y2="906.25528" gradientUnits="userSpaceOnUse"><stop offset="0" stop-color="#b07acb"/><stop offset="0.98753" stop-color="#8c90ff"/></linearGradient><linearGradient id="linear-gradient-26" x1="279.08648" y1="783.53302" x2="517.94265" y2="643.63155" gradientUnits="userSpaceOnUse"><stop offset="0" stop-color="#3d6bb9"/><stop offset="0.98753" stop-color="#b073ff"/></linearGradient><linearGradient id="linear-gradient-27" x1="224.96232" y1="792.10925" x2="295.273" y2="770.47519" gradientUnits="userSpaceOnUse"><stop offset="0" stop-color="#4f79c8"/><stop offset="0.98753" stop-color="#9177cf"/></linearGradient><linearGradient id="linear-gradient-28" x1="160.18666" y1="851.25209" x2="406.86333" y2="775.35158" gradientUnits="userSpaceOnUse"><stop offset="0" stop-color="#3b79bf"/><stop offset="0.98753" stop-color="#9176d6"/></linearGradient><linearGradient id="linear-gradient-29" x1="318.61694" y1="599.89938" x2="402.53826" y2="574.07743" gradientUnits="userSpaceOnUse"><stop offset="0" stop-color="#8f79a5"/><stop offset="0.98753" stop-color="#d86fe0"/></linearGradient><linearGradient id="linear-gradient-30" x1="474.70438" y1="330.40646" x2="259.4976" y2="467.15243" gradientUnits="userSpaceOnUse"><stop offset="0" stop-color="#ff9c4b"/><stop offset="0.98753" stop-color="#e56bb0"/></linearGradient><linearGradient id="linear-gradient-31" x1="65.27565" y1="322.05812" x2="185.16684" y2="285.16852" gradientUnits="userSpaceOnUse"><stop offset="0" stop-color="#69799a"/><stop offset="0.98753" stop-color="#f272fd"/></linearGradient><linearGradient id="linear-gradient-32" x1="204.77347" y1="291.12489" x2="287.99952" y2="432.53552" gradientUnits="userSpaceOnUse"><stop offset="0" stop-color="#de71f7"/><stop offset="1" stop-color="#ff8967"/></linearGradient><linearGradient id="linear-gradient-33" x1="335.57039" y1="582.62299" x2="230.64428" y2="718.89897" gradientUnits="userSpaceOnUse"><stop offset="0" stop-color="#e377b4"/><stop offset="0.98753" stop-color="#8079ff"/></linearGradient><linearGradient id="linear-gradient-34" x1="189.24729" y1="763.07442" x2="348.46706" y2="714.08372" gradientUnits="userSpaceOnUse"><stop offset="0" stop-color="#6679e1"/><stop offset="0.98753" stop-color="#bd78d1"/></linearGradient><linearGradient id="linear-gradient-35" x1="187.08114" y1="677.40286" x2="196.03825" y2="504.65867" gradientUnits="userSpaceOnUse"><stop offset="0" stop-color="#4f6fcb"/><stop offset="0.98763" stop-color="#b670d8"/></linearGradient><linearGradient id="linear-gradient-36" x1="71.78396" y1="701.79272" x2="303.90325" y2="630.3714" gradientUnits="userSpaceOnUse"><stop offset="0" stop-color="#4a79c2"/><stop offset="0.98753" stop-color="#756fd0"/></linearGradient><linearGradient id="linear-gradient-37" x1="79.09783" y1="610.87925" x2="301.44829" y2="542.46372" gradientUnits="userSpaceOnUse"><stop offset="0" stop-color="#6779e2"/><stop offset="0.98753" stop-color="#de6bd3"/></linearGradient><linearGradient id="linear-gradient-38" x1="126.42361" y1="361.12524" x2="232.9492" y2="540.58726" gradientUnits="userSpaceOnUse"><stop offset="0" stop-color="#b475d0"/><stop offset="1" stop-color="#cc84ba"/></linearGradient><linearGradient id="linear-gradient-39" x1="216.07773" y1="621.62788" x2="310.40972" y2="478.67115" gradientUnits="userSpaceOnUse"><stop offset="0.01105" stop-color="#ac76ca"/><stop offset="0.98753" stop-color="#f071a3"/></linearGradient><linearGradient id="linear-gradient-40" x1="320.89016" y1="584.16654" x2="385.28254" y2="486.58221" gradientUnits="userSpaceOnUse"><stop offset="0.01105" stop-color="#ac76ca"/><stop offset="0.98753" stop-color="#ff658d"/></linearGradient><linearGradient id="linear-gradient-41" x1="474.09448" y1="133.30658" x2="379.96622" y2="225.45319" gradientUnits="userSpaceOnUse"><stop offset="0" stop-color="#ff8f5b"/><stop offset="1" stop-color="#ff8967"/></linearGradient><linearGradient id="linear-gradient-42" x1="821.42806" y1="714.0177" x2="884.84078" y2="773.46712" gradientUnits="userSpaceOnUse"><stop offset="0" stop-color="#ff6a9c"/><stop offset="1" stop-color="#ff6bd8"/></linearGradient><linearGradient id="linear-gradient-43" x1="860.74503" y1="610.81055" x2="738.21317" y2="775.94783" gradientUnits="userSpaceOnUse"><stop offset="0" stop-color="#ff6a7f"/><stop offset="1" stop-color="#ff698f"/></linearGradient></defs><g id="icon"><polygon class="cls-1" points="821.86 445.8 731.825 654.292 583.856 461.155 821.86 445.8"/><polygon class="cls-2" points="899.5 266.009 821.86 445.8 583.856 461.155 543.336 408.265 899.5 266.009"/><polygon class="cls-3" points="543.336 408.265 426.467 261.539 484.902 120.995 512.069 110.068 899.5 266.009 543.336 408.265"/><polygon class="cls-4" points="821.86 445.8 899.362 654.292 899.5 266.009 821.86 445.8"/><polygon class="cls-5" points="888.339 624.637 821.86 445.8 731.825 654.292 741.593 695.591 888.339 624.637"/><polygon class="cls-6" points="381.606 369.439 426.467 261.539 543.336 408.265 511.931 421.895 381.606 369.439"/><polygon class="cls-7" points="192.073 293.151 124.5 265.954 232.82 222.386 192.073 293.151"/><polygon class="cls-8" points="426.467 261.539 400.876 227.844 354.49 358.524 381.606 369.439 426.467 261.539"/><polygon class="cls-9" points="354.49 358.524 192.073 293.151 232.82 222.386 346.404 176.701 400.876 227.844 354.49 358.524"/><polygon class="cls-10" points="583.856 461.155 512 465.791 511.931 421.895 543.336 408.265 583.856 461.155"/><polygon class="cls-11" points="512 465.791 512 589.943 682.525 589.943 583.856 461.155 512 465.791"/><polygon class="cls-12" points="669.205 717.593 716.424 634.19 682.525 589.943 512 589.943 593.694 717.593 669.205 717.593"/><polygon class="cls-13" points="255.079 810.549 235.809 726.029 124.5 610.867 124.5 757.991 255.079 810.549"/><polygon class="cls-14" points="512 465.791 317.762 478.398 381.606 369.439 511.931 421.895 512 465.791"/><polygon class="cls-15" points="676.091 705.43 741.593 695.591 731.825 654.292 716.424 634.19 676.091 705.43"/><polygon class="cls-16" points="593.694 717.593 633.76 780.199 669.205 717.593 593.694 717.593"/><polygon class="cls-17" points="676.091 705.43 633.76 780.199 647.196 798.753 731.825 697.059 676.091 705.43"/><polygon class="cls-18" points="731.825 697.059 741.593 695.591 753.527 746.047 731.825 697.059"/><polygon class="cls-19" points="731.825 697.059 753.527 746.047 680.47 758.769 731.825 697.059"/><polygon class="cls-20" points="647.196 798.753 672.126 849.454 768.784 810.549 753.527 746.047 680.47 758.769 647.196 798.753"/><polygon class="cls-21" points="571.657 889.893 647.196 798.753 633.76 780.199 571.657 889.893"/><polygon class="cls-22" points="512 589.943 512 709.395 588.447 709.395 512 589.943"/><polygon class="cls-23" points="512 709.395 511.931 780.199 571.657 889.893 633.76 780.199 588.447 709.395 512 709.395"/><polygon class="cls-24" points="647.196 798.753 672.126 849.454 571.657 889.893 647.196 798.753"/><polygon class="cls-25" points="511.931 780.199 571.657 889.893 511.931 913.932 511.931 780.199"/><polygon class="cls-26" points="372.695 474.778 435.978 470.696 503.308 589.943 389.999 589.943 372.695 474.778"/><polygon class="cls-27" points="503.308 589.943 512 589.943 511.931 601.056 503.308 589.943"/><polygon class="cls-28" points="435.978 470.696 512 465.791 512 589.943 503.308 589.943 435.978 470.696"/><polygon class="cls-29" points="389.999 589.943 475.987 709.395 512 709.395 512 601.056 503.308 589.943 389.999 589.943"/><polygon class="cls-30" points="511.931 780.199 512 709.395 475.987 709.395 426.467 825.837 511.931 913.932 511.931 780.199"/><polygon class="cls-31" points="426.467 825.837 511.931 913.932 331.699 841.389 426.467 825.837"/><polygon class="cls-32" points="389.999 589.943 277.076 758.769 426.467 825.837 475.987 709.395 389.999 589.943"/><polygon class="cls-33" points="255.079 810.549 277.076 758.769 243.273 758.769 255.079 810.549"/><polygon class="cls-34" points="255.079 810.549 331.699 841.389 426.467 825.837 277.076 758.769 255.079 810.549"/><polygon class="cls-35" points="331.699 547.599 359.454 635.609 389.999 589.943 331.699 547.599"/><polygon class="cls-36" points="354.49 358.524 265.328 445.8 317.762 478.398 381.606 369.439 354.49 358.524"/><polygon class="cls-37" points="192.073 293.151 124.5 341.717 124.5 265.954 192.073 293.151"/><polygon class="cls-38" points="124.5 341.717 265.328 445.8 354.49 358.524 192.073 293.151 124.5 341.717"/><polygon class="cls-39" points="331.699 547.599 288.449 550.651 235.809 726.029 312.753 705.43 359.454 635.609 331.699 547.599"/><polygon class="cls-40" points="235.809 726.029 243.273 758.769 277.076 758.769 312.753 705.43 235.809 726.029"/><polygon class="cls-41" points="124.5 610.867 124.5 507.22 260.174 644.853 124.5 610.867"/><polygon class="cls-42" points="235.809 726.029 260.174 644.853 124.5 610.867 235.809 726.029"/><polygon class="cls-43" points="124.5 507.22 243.273 539.85 273.32 601.056 260.174 644.853 124.5 507.22"/><polygon class="cls-44" points="124.5 341.717 124.5 507.22 243.273 539.85 265.328 445.8 124.5 341.717"/><polygon class="cls-45" points="288.449 550.651 273.32 601.056 243.273 539.85 265.328 445.8 317.762 478.398 331.699 547.599 288.449 550.651"/><polygon class="cls-46" points="317.762 478.398 372.695 474.778 389.999 589.943 331.699 547.599 317.762 478.398"/><polygon class="cls-47" points="346.404 176.701 400.876 227.844 426.467 261.539 484.902 120.995 346.404 176.701"/><polygon class="cls-48" points="768.784 810.549 891.89 634.19 899.362 654.292 899.362 757.991 768.784 810.549"/><polygon class="cls-49" points="741.593 695.591 888.339 624.637 891.89 634.19 768.784 810.549 741.593 695.591"/></g></svg>