ply
format ascii 1.0
comment Created by particle simulation https://github.com/viscenter/registration-toolkit
element dimensions 1
property float width
property float height
element vertex 100
property float x
property float y
property float z
property float nx
property float ny
property float nz
property float s
property float t
property uchar red
property uchar green
property uchar blue
element face 162
property list uchar int vertex_indices
end_header
10 10
5 0 0 0.987688 0.156435 0 0 0 5 175 5
4.75528 1.54508 0 0.923234 0.354805 0 0 0 4 166 4
4.04508 2.93893 0 0.768407 0.622735 0 0 0 4 141 4
2.93893 4.04508 0 0.538363 0.829707 0 0 0 2 102 2
1.54508 4.75528 0 0.25562 0.955461 0 0 0 1 54 1
3.06162e-16 5 0 -0.0521449 0.987688 0 0 0 0 0 0
-1.54508 4.75528 0 -0.354805 0.923234 0 0 0 255 202 255
-2.93893 4.04508 0 -0.622735 0.768407 0 0 0 254 154 254
-4.04508 2.93893 0 -0.829707 0.538363 0 0 0 252 115 252
-4.75528 1.54508 0 -0.891007 0.45399 0 0 0 252 90 252
5 0 1 0.987688 0.156435 0 0 0 6 176 50
4.75528 1.54508 1 0.939347 0.305213 0 0 0 5 167 49
4.04508 2.93893 1 0.799057 0.580549 0 0 0 5 142 49
2.93893 4.04508 1 0.580549 0.799057 0 0 0 3 103 47
1.54508 4.75528 1 0.305213 0.939347 0 0 0 2 55 46
3.06162e-16 5 1 4.62593e-18 0.987688 0 0 0 1 1 45
-1.54508 4.75528 1 -0.305213 0.939347 0 0 0 0 203 43
-2.93893 4.04508 1 -0.580549 0.799057 0 0 0 255 155 42
-4.04508 2.93893 1 -0.799057 0.580549 0 0 0 253 116 40
-4.75528 1.54508 1 -0.891007 0.45399 0 0 0 253 91 40
5 0 2 0.987688 0.156435 0 0 0 7 177 95
4.75528 1.54508 2 0.939347 0.305213 0 0 0 6 168 94
4.04508 2.93893 2 0.799057 0.580549 0 0 0 6 143 94
2.93893 4.04508 2 0.580549 0.799057 0 0 0 4 104 92
1.54508 4.75528 2 0.305213 0.939347 0 0 0 3 56 91
3.06162e-16 5 2 4.62593e-18 0.987688 0 0 0 2 2 90
-1.54508 4.75528 2 -0.305213 0.939347 0 0 0 0 204 88
-2.93893 4.04508 2 -0.580549 0.799057 0 0 0 0 156 87
-4.04508 2.93893 2 -0.799057 0.580549 0 0 0 254 117 85
-4.75528 1.54508 2 -0.891007 0.45399 0 0 0 254 92 85
5 0 3 0.987688 0.156435 0 0 0 8 178 140
4.75528 1.54508 3 0.939347 0.305213 0 0 0 7 169 139
4.04508 2.93893 3 0.799057 0.580549 0 0 0 7 144 139
2.93893 4.04508 3 0.580549 0.799057 0 0 0 5 105 137
1.54508 4.75528 3 0.305213 0.939347 0 0 0 4 57 136
3.06162e-16 5 3 4.62593e-18 0.987688 0 0 0 3 3 135
-1.54508 4.75528 3 -0.305213 0.939347 0 0 0 1 205 133
-2.93893 4.04508 3 -0.580549 0.799057 0 0 0 0 157 132
-4.04508 2.93893 3 -0.799057 0.580549 0 0 0 255 118 130
-4.75528 1.54508 3 -0.891007 0.45399 0 0 0 255 93 130
5 0 4 0.987688 0.156435 0 0 0 9 179 185
4.75528 1.54508 4 0.939347 0.305213 0 0 0 8 170 184
4.04508 2.93893 4 0.799057 0.580549 0 0 0 8 145 184
2.93893 4.04508 4 0.580549 0.799057 0 0 0 6 106 182
1.54508 4.75528 4 0.305213 0.939347 0 0 0 5 58 181
3.06162e-16 5 4 4.62593e-18 0.987688 0 0 0 4 4 180
-1.54508 4.75528 4 -0.305213 0.939347 0 0 0 2 206 178
-2.93893 4.04508 4 -0.580549 0.799057 0 0 0 1 158 177
-4.04508 2.93893 4 -0.799057 0.580549 0 0 0 0 119 175
-4.75528 1.54508 4 -0.891007 0.45399 0 0 0 0 94 175
5 0 5 0.987688 0.156435 0 0 0 10 180 230
4.75528 1.54508 5 0.939347 0.305213 0 0 0 9 171 229
4.04508 2.93893 5 0.799057 0.580549 0 0 0 9 146 229
2.93893 4.04508 5 0.580549 0.799057 0 0 0 7 107 227
1.54508 4.75528 5 0.305213 0.939347 0 0 0 6 59 226
3.06162e-16 5 5 4.62593e-18 0.987688 0 0 0 5 5 225
-1.54508 4.75528 5 -0.305213 0.939347 0 0 0 3 207 223
-2.93893 4.04508 5 -0.580549 0.799057 0 0 0 2 159 222
-4.04508 2.93893 5 -0.799057 0.580549 0 0 0 0 120 220
-4.75528 1.54508 5 -0.891007 0.45399 0 0 0 0 95 220
5 0 6 0.987688 0.156435 0 0 0 11 181 19
4.75528 1.54508 6 0.939347 0.305213 0 0 0 10 172 18
4.04508 2.93893 6 0.799057 0.580549 0 0 0 10 147 18
2.93893 4.04508 6 0.580549 0.799057 0 0 0 8 108 16
1.54508 4.75528 6 0.305213 0.939347 0 0 0 7 60 15
3.06162e-16 5 6 4.62593e-18 0.987688 0 0 0 6 6 14
-1.54508 4.75528 6 -0.305213 0.939347 0 0 0 4 208 12
-2.93893 4.04508 6 -0.580549 0.799057 0 0 0 3 160 11
-4.04508 2.93893 6 -0.799057 0.580549 0 0 0 1 121 9
-4.75528 1.54508 6 -0.891007 0.45399 0 0 0 1 96 9
5 0 7 0.987688 0.156435 0 0 0 12 182 64
4.75528 1.54508 7 0.939347 0.305213 0 0 0 11 173 63
4.04508 2.93893 7 0.799057 0.580549 0 0 0 11 148 63
2.93893 4.04508 7 0.580549 0.799057 0 0 0 9 109 61
1.54508 4.75528 7 0.305213 0.939347 0 0 0 8 61 60
3.06162e-16 5 7 4.62593e-18 0.987688 0 0 0 7 7 59
-1.54508 4.75528 7 -0.305213 0.939347 0 0 0 5 209 57
-2.93893 4.04508 7 -0.580549 0.799057 0 0 0 4 161 56
-4.04508 2.93893 7 -0.799057 0.580549 0 0 0 2 122 54
-4.75528 1.54508 7 -0.891007 0.45399 0 0 0 2 97 54
5 0 8 0.987688 0.156435 0 0 0 13 183 109
4.75528 1.54508 8 0.939347 0.305213 0 0 0 12 174 108
4.04508 2.93893 8 0.799057 0.580549 0 0 0 12 149 108
2.93893 4.04508 8 0.580549 0.799057 0 0 0 10 110 106
1.54508 4.75528 8 0.305213 0.939347 0 0 0 9 62 105
3.06162e-16 5 8 4.62593e-18 0.987688 0 0 0 8 8 104
-1.54508 4.75528 8 -0.305213 0.939347 0 0 0 6 210 102
-2.93893 4.04508 8 -0.580549 0.799057 0 0 0 5 162 101
-4.04508 2.93893 8 -0.799057 0.580549 0 0 0 3 123 99
-4.75528 1.54508 8 -0.891007 0.45399 0 0 0 3 98 99
5 0 9 0.987688 0.156435 0 0 0 14 184 154
4.75528 1.54508 9 0.955461 0.25562 0 0 0 13 175 153
4.04508 2.93893 9 0.829707 0.538363 0 0 0 13 150 153
2.93893 4.04508 9 0.622735 0.768407 0 0 0 11 111 151
1.54508 4.75528 9 0.354805 0.923234 0 0 0 10 63 150
3.06162e-16 5 9 0.0521449 0.987688 0 0 0 9 9 149
-1.54508 4.75528 9 -0.25562 0.955461 0 0 0 7 211 147
-2.93893 4.04508 9 -0.538363 0.829707 0 0 0 6 163 146
-4.04508 2.93893 9 -0.768407 0.622735 0 0 0 4 124 144
-4.75528 1.54508 9 -0.891007 0.45399 0 0 0 4 99 144
3 11 10 0
3 11 0 1
3 12 11 1
3 12 1 2
3 13 12 2
3 13 2 3
3 14 13 3
3 14 3 4
3 15 14 4
3 15 4 5
3 16 15 5
3 16 5 6
3 17 16 6
3 17 6 7
3 18 17 7
3 18 7 8
3 19 18 8
3 19 8 9
3 21 20 10
3 21 10 11
3 22 21 11
3 22 11 12
3 23 22 12
3 23 12 13
3 24 23 13
3 24 13 14
3 25 24 14
3 25 14 15
3 26 25 15
3 26 15 16
3 27 26 16
3 27 16 17
3 28 27 17
3 28 17 18
3 29 28 18
3 29 18 19
3 31 30 20
3 31 20 21
3 32 31 21
3 32 21 22
3 33 32 22
3 33 22 23
3 34 33 23
3 34 23 24
3 35 34 24
3 35 24 25
3 36 35 25
3 36 25 26
3 37 36 26
3 37 26 27
3 38 37 27
3 38 27 28
3 39 38 28
3 39 28 29
3 41 40 30
3 41 30 31
3 42 41 31
3 42 31 32
3 43 42 32
3 43 32 33
3 44 43 33
3 44 33 34
3 45 44 34
3 45 34 35
3 46 45 35
3 46 35 36
3 47 46 36
3 47 36 37
3 48 47 37
3 48 37 38
3 49 48 38
3 49 38 39
3 51 50 40
3 51 40 41
3 52 51 41
3 52 41 42
3 53 52 42
3 53 42 43
3 54 53 43
3 54 43 44
3 55 54 44
3 55 44 45
3 56 55 45
3 56 45 46
3 57 56 46
3 57 46 47
3 58 57 47
3 58 47 48
3 59 58 48
3 59 48 49
3 61 60 50
3 61 50 51
3 62 61 51
3 62 51 52
3 63 62 52
3 63 52 53
3 64 63 53
3 64 53 54
3 65 64 54
3 65 54 55
3 66 65 55
3 66 55 56
3 67 66 56
3 67 56 57
3 68 67 57
3 68 57 58
3 69 68 58
3 69 58 59
3 71 70 60
3 71 60 61
3 72 71 61
3 72 61 62
3 73 72 62
3 73 62 63
3 74 73 63
3 74 63 64
3 75 74 64
3 75 64 65
3 76 75 65
3 76 65 66
3 77 76 66
3 77 66 67
3 78 77 67
3 78 67 68
3 79 78 68
3 79 68 69
3 81 80 70
3 81 70 71
3 82 81 71
3 82 71 72
3 83 82 72
3 83 72 73
3 84 83 73
3 84 73 74
3 85 84 74
3 85 74 75
3 86 85 75
3 86 75 76
3 87 86 76
3 87 76 77
3 88 87 77
3 88 77 78
3 89 88 78
3 89 78 79
3 91 90 80
3 91 80 81
3 92 91 81
3 92 81 82
3 93 92 82
3 93 82 83
3 94 93 83
3 94 83 84
3 95 94 84
3 95 84 85
3 96 95 85
3 96 85 86
3 97 96 86
3 97 86 87
3 98 97 87
3 98 87 88
3 99 98 88
3 99 88 89
