ply
format ascii 1.0
comment Created by particle simulation https://github.com/viscenter/registration-toolkit
element dimensions 1
property float width
property float height
element vertex 100
property float x
property float y
property float z
property float nx
property float ny
property float nz
property float s
property float t
property uchar red
property uchar green
property uchar blue
element face 0
property list uchar int vertex_indices
end_header
100 1
5 0 0 0 0 0 0 0 5 175 5
4.75528 1.54508 0 0 0 0 0 0 4 166 4
4.04508 2.93893 0 0 0 0 0 0 4 141 4
2.93893 4.04508 0 0 0 0 0 0 2 102 2
1.54508 4.75528 0 0 0 0 0 0 1 54 1
3.06162e-16 5 0 0 0 0 0 0 0 0 0
-1.54508 4.75528 0 0 0 0 0 0 255 202 255
-2.93893 4.04508 0 0 0 0 0 0 254 154 254
-4.04508 2.93893 0 0 0 0 0 0 252 115 252
-4.75528 1.54508 0 0 0 0 0 0 252 90 252
5 0 1 0 0 0 0 0 6 176 50
4.75528 1.54508 1 0 0 0 0 0 5 167 49
4.04508 2.93893 1 0 0 0 0 0 5 142 49
2.93893 4.04508 1 0 0 0 0 0 3 103 47
1.54508 4.75528 1 0 0 0 0 0 2 55 46
3.06162e-16 5 1 0 0 0 0 0 1 1 45
-1.54508 4.75528 1 0 0 0 0 0 0 203 43
-2.93893 4.04508 1 0 0 0 0 0 255 155 42
-4.04508 2.93893 1 0 0 0 0 0 253 116 40
-4.75528 1.54508 1 0 0 0 0 0 253 91 40
5 0 2 0 0 0 0 0 7 177 95
4.75528 1.54508 2 0 0 0 0 0 6 168 94
4.04508 2.93893 2 0 0 0 0 0 6 143 94
2.93893 4.04508 2 0 0 0 0 0 4 104 92
1.54508 4.75528 2 0 0 0 0 0 3 56 91
3.06162e-16 5 2 0 0 0 0 0 2 2 90
-1.54508 4.75528 2 0 0 0 0 0 0 204 88
-2.93893 4.04508 2 0 0 0 0 0 0 156 87
-4.04508 2.93893 2 0 0 0 0 0 254 117 85
-4.75528 1.54508 2 0 0 0 0 0 254 92 85
5 0 3 0 0 0 0 0 8 178 140
4.75528 1.54508 3 0 0 0 0 0 7 169 139
4.04508 2.93893 3 0 0 0 0 0 7 144 139
2.93893 4.04508 3 0 0 0 0 0 5 105 137
1.54508 4.75528 3 0 0 0 0 0 4 57 136
3.06162e-16 5 3 0 0 0 0 0 3 3 135
-1.54508 4.75528 3 0 0 0 0 0 1 205 133
-2.93893 4.04508 3 0 0 0 0 0 0 157 132
-4.04508 2.93893 3 0 0 0 0 0 255 118 130
-4.75528 1.54508 3 0 0 0 0 0 255 93 130
5 0 4 0 0 0 0 0 9 179 185
4.75528 1.54508 4 0 0 0 0 0 8 170 184
4.04508 2.93893 4 0 0 0 0 0 8 145 184
2.93893 4.04508 4 0 0 0 0 0 6 106 182
1.54508 4.75528 4 0 0 0 0 0 5 58 181
3.06162e-16 5 4 0 0 0 0 0 4 4 180
-1.54508 4.75528 4 0 0 0 0 0 2 206 178
-2.93893 4.04508 4 0 0 0 0 0 1 158 177
-4.04508 2.93893 4 0 0 0 0 0 0 119 175
-4.75528 1.54508 4 0 0 0 0 0 0 94 175
5 0 5 0 0 0 0 0 10 180 230
4.75528 1.54508 5 0 0 0 0 0 9 171 229
4.04508 2.93893 5 0 0 0 0 0 9 146 229
2.93893 4.04508 5 0 0 0 0 0 7 107 227
1.54508 4.75528 5 0 0 0 0 0 6 59 226
3.06162e-16 5 5 0 0 0 0 0 5 5 225
-1.54508 4.75528 5 0 0 0 0 0 3 207 223
-2.93893 4.04508 5 0 0 0 0 0 2 159 222
-4.04508 2.93893 5 0 0 0 0 0 0 120 220
-4.75528 1.54508 5 0 0 0 0 0 0 95 220
5 0 6 0 0 0 0 0 11 181 19
4.75528 1.54508 6 0 0 0 0 0 10 172 18
4.04508 2.93893 6 0 0 0 0 0 10 147 18
2.93893 4.04508 6 0 0 0 0 0 8 108 16
1.54508 4.75528 6 0 0 0 0 0 7 60 15
3.06162e-16 5 6 0 0 0 0 0 6 6 14
-1.54508 4.75528 6 0 0 0 0 0 4 208 12
-2.93893 4.04508 6 0 0 0 0 0 3 160 11
-4.04508 2.93893 6 0 0 0 0 0 1 121 9
-4.75528 1.54508 6 0 0 0 0 0 1 96 9
5 0 7 0 0 0 0 0 12 182 64
4.75528 1.54508 7 0 0 0 0 0 11 173 63
4.04508 2.93893 7 0 0 0 0 0 11 148 63
2.93893 4.04508 7 0 0 0 0 0 9 109 61
1.54508 4.75528 7 0 0 0 0 0 8 61 60
3.06162e-16 5 7 0 0 0 0 0 7 7 59
-1.54508 4.75528 7 0 0 0 0 0 5 209 57
-2.93893 4.04508 7 0 0 0 0 0 4 161 56
-4.04508 2.93893 7 0 0 0 0 0 2 122 54
-4.75528 1.54508 7 0 0 0 0 0 2 97 54
5 0 8 0 0 0 0 0 13 183 109
4.75528 1.54508 8 0 0 0 0 0 12 174 108
4.04508 2.93893 8 0 0 0 0 0 12 149 108
2.93893 4.04508 8 0 0 0 0 0 10 110 106
1.54508 4.75528 8 0 0 0 0 0 9 62 105
3.06162e-16 5 8 0 0 0 0 0 8 8 104
-1.54508 4.75528 8 0 0 0 0 0 6 210 102
-2.93893 4.04508 8 0 0 0 0 0 5 162 101
-4.04508 2.93893 8 0 0 0 0 0 3 123 99
-4.75528 1.54508 8 0 0 0 0 0 3 98 99
5 0 9 0 0 0 0 0 14 184 154
4.75528 1.54508 9 0 0 0 0 0 13 175 153
4.04508 2.93893 9 0 0 0 0 0 13 150 153
2.93893 4.04508 9 0 0 0 0 0 11 111 151
1.54508 4.75528 9 0 0 0 0 0 10 63 150
3.06162e-16 5 9 0 0 0 0 0 9 9 149
-1.54508 4.75528 9 0 0 0 0 0 7 211 147
-2.93893 4.04508 9 0 0 0 0 0 6 163 146
-4.04508 2.93893 9 0 0 0 0 0 4 124 144
-4.75528 1.54508 9 0 0 0 0 0 4 99 144
