ply
format ascii 1.0
comment Created by particle simulation https://github.com/viscenter/registration-toolkit
element dimensions 1
property float width
property float height
element vertex 50
property float x
property float y
property float z
property float nx
property float ny
property float nz
property float s
property float t
property uchar red
property uchar green
property uchar blue
element face 0
property list uchar int vertex_indices
end_header
50 1
0 0 0 0 0 0 0 0 0 0 0
0 0 5 0 0 0 0 0 5 5 225
2 0 5 0 0 0 0 0 7 75 227
1.98289 0.261052 5 0 0 0 0 0 6 74 226
1.93185 0.517638 5 0 0 0 0 0 6 72 226
1.84776 0.765367 5 0 0 0 0 0 6 69 226
1.73205 1 5 0 0 0 0 0 6 65 226
1.58671 1.21752 5 0 0 0 0 0 6 60 226
1.41421 1.41421 5 0 0 0 0 0 6 54 226
1.21752 1.58671 5 0 0 0 0 0 6 47 226
1 1.73205 5 0 0 0 0 0 6 40 226
0.765367 1.84776 5 0 0 0 0 0 5 31 225
0.517638 1.93185 5 0 0 0 0 0 5 23 225
0.261052 1.98289 5 0 0 0 0 0 5 14 225
-3.21625e-16 2 5 0 0 0 0 0 5 4 225
-0.261052 1.98289 5 0 0 0 0 0 4 252 224
-0.517638 1.93185 5 0 0 0 0 0 4 243 224
-0.765367 1.84776 5 0 0 0 0 0 4 235 224
-1 1.73205 5 0 0 0 0 0 4 226 224
-1.21752 1.58671 5 0 0 0 0 0 3 219 223
-1.41421 1.41421 5 0 0 0 0 0 3 212 223
-1.58671 1.21752 5 0 0 0 0 0 3 206 223
-1.73205 1 5 0 0 0 0 0 3 201 223
-1.84776 0.765367 5 0 0 0 0 0 3 197 223
-1.93185 0.517638 5 0 0 0 0 0 3 194 223
-1.98289 0.261052 5 0 0 0 0 0 3 192 223
-2 2.02129e-15 5 0 0 0 0 0 3 191 223
-1.98289 -0.261052 5 0 0 0 0 0 3 192 223
-1.93185 -0.517638 5 0 0 0 0 0 3 194 223
-1.84776 -0.765367 5 0 0 0 0 0 3 197 223
-1.73205 -1 5 0 0 0 0 0 3 201 223
-1.58671 -1.21752 5 0 0 0 0 0 3 206 223
-1.41421 -1.41421 5 0 0 0 0 0 3 212 223
-1.21752 -1.58671 5 0 0 0 0 0 3 219 223
-1 -1.73205 5 0 0 0 0 0 3 226 224
-0.765367 -1.84776 5 0 0 0 0 0 4 235 224
-0.517638 -1.93185 5 0 0 0 0 0 4 243 224
-0.261052 -1.98289 5 0 0 0 0 0 4 252 224
-5.69646e-15 -2 5 0 0 0 0 0 4 4 225
0.261052 -1.98289 5 0 0 0 0 0 5 14 225
0.517638 -1.93185 5 0 0 0 0 0 5 23 225
0.765367 -1.84776 5 0 0 0 0 0 5 31 225
1 -1.73205 5 0 0 0 0 0 5 39 226
1.21752 -1.58671 5 0 0 0 0 0 6 47 226
1.41421 -1.41421 5 0 0 0 0 0 6 54 226
1.58671 -1.21752 5 0 0 0 0 0 6 60 226
1.73205 -1 5 0 0 0 0 0 6 65 226
1.84776 -0.765367 5 0 0 0 0 0 6 69 226
1.93185 -0.517638 5 0 0 0 0 0 6 72 226
1.98289 -0.261052 5 0 0 0 0 0 6 74 226
