ply
format ascii 1.0
comment VTK generated PLY File
obj_info vtkPolyData points and polygons: vtk4.0
element vertex 100
property float x
property float y
property float z
element face 162
property list uchar int vertex_indices
end_header
5 0 0 
4.75528 1.54508 0 
4.04508 2.93893 0 
2.93893 4.04508 0 
1.54508 4.75528 0 
3.06162e-16 5 0 
-1.54508 4.75528 0 
-2.93893 4.04508 0 
-4.04508 2.93893 0 
-4.75528 1.54508 0 
5 0 1 
4.75528 1.54508 1 
4.04508 2.93893 1 
2.93893 4.04508 1 
1.54508 4.75528 1 
3.06162e-16 5 1 
-1.54508 4.75528 1 
-2.93893 4.04508 1 
-4.04508 2.93893 1 
-4.75528 1.54508 1 
5 0 2 
4.75528 1.54508 2 
4.04508 2.93893 2 
2.93893 4.04508 2 
1.54508 4.75528 2 
3.06162e-16 5 2 
-1.54508 4.75528 2 
-2.93893 4.04508 2 
-4.04508 2.93893 2 
-4.75528 1.54508 2 
5 0 3 
4.75528 1.54508 3 
4.04508 2.93893 3 
2.93893 4.04508 3 
1.54508 4.75528 3 
3.06162e-16 5 3 
-1.54508 4.75528 3 
-2.93893 4.04508 3 
-4.04508 2.93893 3 
-4.75528 1.54508 3 
5 0 4 
4.75528 1.54508 4 
4.04508 2.93893 4 
2.93893 4.04508 4 
1.54508 4.75528 4 
3.06162e-16 5 4 
-1.54508 4.75528 4 
-2.93893 4.04508 4 
-4.04508 2.93893 4 
-4.75528 1.54508 4 
5 0 5 
4.75528 1.54508 5 
4.04508 2.93893 5 
2.93893 4.04508 5 
1.54508 4.75528 5 
3.06162e-16 5 5 
-1.54508 4.75528 5 
-2.93893 4.04508 5 
-4.04508 2.93893 5 
-4.75528 1.54508 5 
5 0 6 
4.75528 1.54508 6 
4.04508 2.93893 6 
2.93893 4.04508 6 
1.54508 4.75528 6 
3.06162e-16 5 6 
-1.54508 4.75528 6 
-2.93893 4.04508 6 
-4.04508 2.93893 6 
-4.75528 1.54508 6 
5 0 7 
4.75528 1.54508 7 
4.04508 2.93893 7 
2.93893 4.04508 7 
1.54508 4.75528 7 
3.06162e-16 5 7 
-1.54508 4.75528 7 
-2.93893 4.04508 7 
-4.04508 2.93893 7 
-4.75528 1.54508 7 
5 0 8 
4.75528 1.54508 8 
4.04508 2.93893 8 
2.93893 4.04508 8 
1.54508 4.75528 8 
3.06162e-16 5 8 
-1.54508 4.75528 8 
-2.93893 4.04508 8 
-4.04508 2.93893 8 
-4.75528 1.54508 8 
5 0 9 
4.75528 1.54508 9 
4.04508 2.93893 9 
2.93893 4.04508 9 
1.54508 4.75528 9 
3.06162e-16 5 9 
-1.54508 4.75528 9 
-2.93893 4.04508 9 
-4.04508 2.93893 9 
-4.75528 1.54508 9 
3 11 10 0 
3 11 0 1 
3 12 11 1 
3 12 1 2 
3 13 12 2 
3 13 2 3 
3 14 13 3 
3 14 3 4 
3 15 14 4 
3 15 4 5 
3 16 15 5 
3 16 5 6 
3 17 16 6 
3 17 6 7 
3 18 17 7 
3 18 7 8 
3 19 18 8 
3 19 8 9 
3 21 20 10 
3 21 10 11 
3 22 21 11 
3 22 11 12 
3 23 22 12 
3 23 12 13 
3 24 23 13 
3 24 13 14 
3 25 24 14 
3 25 14 15 
3 26 25 15 
3 26 15 16 
3 27 26 16 
3 27 16 17 
3 28 27 17 
3 28 17 18 
3 29 28 18 
3 29 18 19 
3 31 30 20 
3 31 20 21 
3 32 31 21 
3 32 21 22 
3 33 32 22 
3 33 22 23 
3 34 33 23 
3 34 23 24 
3 35 34 24 
3 35 24 25 
3 36 35 25 
3 36 25 26 
3 37 36 26 
3 37 26 27 
3 38 37 27 
3 38 27 28 
3 39 38 28 
3 39 28 29 
3 41 40 30 
3 41 30 31 
3 42 41 31 
3 42 31 32 
3 43 42 32 
3 43 32 33 
3 44 43 33 
3 44 33 34 
3 45 44 34 
3 45 34 35 
3 46 45 35 
3 46 35 36 
3 47 46 36 
3 47 36 37 
3 48 47 37 
3 48 37 38 
3 49 48 38 
3 49 38 39 
3 51 50 40 
3 51 40 41 
3 52 51 41 
3 52 41 42 
3 53 52 42 
3 53 42 43 
3 54 53 43 
3 54 43 44 
3 55 54 44 
3 55 44 45 
3 56 55 45 
3 56 45 46 
3 57 56 46 
3 57 46 47 
3 58 57 47 
3 58 47 48 
3 59 58 48 
3 59 48 49 
3 61 60 50 
3 61 50 51 
3 62 61 51 
3 62 51 52 
3 63 62 52 
3 63 52 53 
3 64 63 53 
3 64 53 54 
3 65 64 54 
3 65 54 55 
3 66 65 55 
3 66 55 56 
3 67 66 56 
3 67 56 57 
3 68 67 57 
3 68 57 58 
3 69 68 58 
3 69 58 59 
3 71 70 60 
3 71 60 61 
3 72 71 61 
3 72 61 62 
3 73 72 62 
3 73 62 63 
3 74 73 63 
3 74 63 64 
3 75 74 64 
3 75 64 65 
3 76 75 65 
3 76 65 66 
3 77 76 66 
3 77 66 67 
3 78 77 67 
3 78 67 68 
3 79 78 68 
3 79 68 69 
3 81 80 70 
3 81 70 71 
3 82 81 71 
3 82 71 72 
3 83 82 72 
3 83 72 73 
3 84 83 73 
3 84 73 74 
3 85 84 74 
3 85 74 75 
3 86 85 75 
3 86 75 76 
3 87 86 76 
3 87 76 77 
3 88 87 77 
3 88 77 78 
3 89 88 78 
3 89 78 79 
3 91 90 80 
3 91 80 81 
3 92 91 81 
3 92 81 82 
3 93 92 82 
3 93 82 83 
3 94 93 83 
3 94 83 84 
3 95 94 84 
3 95 84 85 
3 96 95 85 
3 96 85 86 
3 97 96 86 
3 97 86 87 
3 98 97 87 
3 98 87 88 
3 99 98 88 
3 99 88 89 
