ply
format ascii 1.0
comment Created by particle simulation https://github.com/viscenter/registration-toolkit
element vertex 50
property float x
property float y
property float z
property float nx
property float ny
property float nz
element face 96
property list uchar int vertex_indices
end_header
0 0 0 8.46545e-16 3.46366e-16 0.370705
0 0 5 0 0 1
2 0 5 -0.463381 4.56232e-16 0.685352
1.98289 0.261052 5 -0.459417 -0.0604834 0.685352
1.93185 0.517638 5 -0.447592 -0.119932 0.685352
1.84776 0.765367 5 -0.428108 -0.177328 0.685352
1.73205 1 5 -0.4013 -0.231691 0.685352
1.58671 1.21752 5 -0.367625 -0.282089 0.685352
1.41421 1.41421 5 -0.32766 -0.32766 0.685352
1.21752 1.58671 5 -0.282089 -0.367625 0.685352
1 1.73205 5 -0.231691 -0.4013 0.685352
0.765367 1.84776 5 -0.177328 -0.428108 0.685352
0.517638 1.93185 5 -0.119932 -0.447592 0.685352
0.261052 1.98289 5 -0.0604834 -0.459417 0.685352
-3.21625e-16 2 5 0 -0.463381 0.685352
-0.261052 1.98289 5 0.0604834 -0.459417 0.685352
-0.517638 1.93185 5 0.119932 -0.447592 0.685352
-0.765367 1.84776 5 0.177328 -0.428108 0.685352
-1 1.73205 5 0.231691 -0.4013 0.685352
-1.21752 1.58671 5 0.282089 -0.367625 0.685352
-1.41421 1.41421 5 0.32766 -0.32766 0.685352
-1.58671 1.21752 5 0.367625 -0.282089 0.685352
-1.73205 1 5 0.4013 -0.231691 0.685352
-1.84776 0.765367 5 0.428108 -0.177328 0.685352
-1.93185 0.517638 5 0.447592 -0.119932 0.685352
-1.98289 0.261052 5 0.459417 -0.0604834 0.685352
-2 2.02129e-15 5 0.463381 -5.91541e-16 0.685352
-1.98289 -0.261052 5 0.459417 0.0604834 0.685352
-1.93185 -0.517638 5 0.447592 0.119932 0.685352
-1.84776 -0.765367 5 0.428108 0.177328 0.685352
-1.73205 -1 5 0.4013 0.231691 0.685352
-1.58671 -1.21752 5 0.367625 0.282089 0.685352
-1.41421 -1.41421 5 0.32766 0.32766 0.685352
-1.21752 -1.58671 5 0.282089 0.367625 0.685352
-1 -1.73205 5 0.231691 0.4013 0.685352
-0.765367 -1.84776 5 0.177328 0.428108 0.685352
-0.517638 -1.93185 5 0.119932 0.447592 0.685352
-0.261052 -1.98289 5 0.0604834 0.459417 0.685352
-5.69646e-15 -2 5 1.38257e-15 0.463381 0.685352
0.261052 -1.98289 5 -0.0604834 0.459417 0.685352
0.517638 -1.93185 5 -0.119932 0.447592 0.685352
0.765367 -1.84776 5 -0.177328 0.428108 0.685352
1 -1.73205 5 -0.231691 0.4013 0.685352
1.21752 -1.58671 5 -0.282089 0.367625 0.685352
1.41421 -1.41421 5 -0.32766 0.32766 0.685352
1.58671 -1.21752 5 -0.367625 0.282089 0.685352
1.73205 -1 5 -0.4013 0.231691 0.685352
1.84776 -0.765367 5 -0.428108 0.177328 0.685352
1.93185 -0.517638 5 -0.447592 0.119932 0.685352
1.98289 -0.261052 5 -0.459417 0.0604834 0.685352
3 2 3 0
3 2 3 1
3 3 4 0
3 3 4 1
3 4 5 0
3 4 5 1
3 5 6 0
3 5 6 1
3 6 7 0
3 6 7 1
3 7 8 0
3 7 8 1
3 8 9 0
3 8 9 1
3 9 10 0
3 9 10 1
3 10 11 0
3 10 11 1
3 11 12 0
3 11 12 1
3 12 13 0
3 12 13 1
3 13 14 0
3 13 14 1
3 14 15 0
3 14 15 1
3 15 16 0
3 15 16 1
3 16 17 0
3 16 17 1
3 17 18 0
3 17 18 1
3 18 19 0
3 18 19 1
3 19 20 0
3 19 20 1
3 20 21 0
3 20 21 1
3 21 22 0
3 21 22 1
3 22 23 0
3 22 23 1
3 23 24 0
3 23 24 1
3 24 25 0
3 24 25 1
3 25 26 0
3 25 26 1
3 26 27 0
3 26 27 1
3 27 28 0
3 27 28 1
3 28 29 0
3 28 29 1
3 29 30 0
3 29 30 1
3 30 31 0
3 30 31 1
3 31 32 0
3 31 32 1
3 32 33 0
3 32 33 1
3 33 34 0
3 33 34 1
3 34 35 0
3 34 35 1
3 35 36 0
3 35 36 1
3 36 37 0
3 36 37 1
3 37 38 0
3 37 38 1
3 38 39 0
3 38 39 1
3 39 40 0
3 39 40 1
3 40 41 0
3 40 41 1
3 41 42 0
3 41 42 1
3 42 43 0
3 42 43 1
3 43 44 0
3 43 44 1
3 44 45 0
3 44 45 1
3 45 46 0
3 45 46 1
3 46 47 0
3 46 47 1
3 47 48 0
3 47 48 1
3 48 49 0
3 48 49 1
3 49 2 0
3 49 2 1
