ply
format ascii 1.0
comment VTK generated PLY File
obj_info vtkPolyData points and polygons: vtk4.0
element vertex 162
property float x
property float y
property float z
element face 320
property list uchar int vertex_indices
end_header
-0.525731 0.850651 0 
0.525731 0.850651 0 
-0.525731 -0.850651 0 
0.525731 -0.850651 0 
0 -0.525731 0.850651 
0 0.525731 0.850651 
0 -0.525731 -0.850651 
0 0.525731 -0.850651 
0.850651 0 -0.525731 
0.850651 0 0.525731 
-0.850651 0 -0.525731 
-0.850651 0 0.525731 
-0.809017 0.5 0.309017 
-0.5 0.309017 0.809017 
-0.309017 0.809017 0.5 
0.309017 0.809017 0.5 
0 1 0 
0.309017 0.809017 -0.5 
-0.309017 0.809017 -0.5 
-0.5 0.309017 -0.809017 
-0.809017 0.5 -0.309017 
-1 0 0 
0.5 0.309017 0.809017 
0.809017 0.5 0.309017 
-0.5 -0.309017 0.809017 
0 0 1 
-0.809017 -0.5 -0.309017 
-0.809017 -0.5 0.309017 
0 0 -1 
-0.5 -0.309017 -0.809017 
0.809017 0.5 -0.309017 
0.5 0.309017 -0.809017 
0.809017 -0.5 0.309017 
0.5 -0.309017 0.809017 
0.309017 -0.809017 0.5 
-0.309017 -0.809017 0.5 
0 -1 0 
-0.309017 -0.809017 -0.5 
0.309017 -0.809017 -0.5 
0.5 -0.309017 -0.809017 
0.809017 -0.5 -0.309017 
1 0 0 
-0.69378 0.702046 0.160622 
-0.587785 0.688191 0.425325 
-0.433889 0.862668 0.259892 
-0.702046 0.160622 0.69378 
-0.688191 0.425325 0.587785 
-0.862668 0.259892 0.433889 
-0.160622 0.69378 0.702046 
-0.425325 0.587785 0.688191 
-0.259892 0.433889 0.862668 
-0.16246 0.951057 0.262866 
-0.273267 0.961938 0 
0.160622 0.69378 0.702046 
0 0.850651 0.525731 
0.273267 0.961938 0 
0.16246 0.951057 0.262866 
0.433889 0.862668 0.259892 
-0.16246 0.951057 -0.262866 
-0.433889 0.862668 -0.259892 
0.433889 0.862668 -0.259892 
0.16246 0.951057 -0.262866 
-0.160622 0.69378 -0.702046 
0 0.850651 -0.525731 
0.160622 0.69378 -0.702046 
-0.587785 0.688191 -0.425325 
-0.69378 0.702046 -0.160622 
-0.259892 0.433889 -0.862668 
-0.425325 0.587785 -0.688191 
-0.862668 0.259892 -0.433889 
-0.688191 0.425325 -0.587785 
-0.702046 0.160622 -0.69378 
-0.850651 0.525731 0 
-0.961938 0 -0.273267 
-0.951057 0.262866 -0.16246 
-0.951057 0.262866 0.16246 
-0.961938 0 0.273267 
0.587785 0.688191 0.425325 
0.69378 0.702046 0.160622 
0.259892 0.433889 0.862668 
0.425325 0.587785 0.688191 
0.862668 0.259892 0.433889 
0.688191 0.425325 0.587785 
0.702046 0.160622 0.69378 
-0.262866 0.16246 0.951057 
0 0.273267 0.961938 
-0.702046 -0.160622 0.69378 
-0.525731 0 0.850651 
0 -0.273267 0.961938 
-0.262866 -0.16246 0.951057 
-0.259892 -0.433889 0.862668 
-0.951057 -0.262866 0.16246 
-0.862668 -0.259892 0.433889 
-0.862668 -0.259892 -0.433889 
-0.951057 -0.262866 -0.16246 
-0.69378 -0.702046 0.160622 
-0.850651 -0.525731 0 
-0.69378 -0.702046 -0.160622 
-0.525731 0 -0.850651 
-0.702046 -0.160622 -0.69378 
0 0.273267 -0.961938 
-0.262866 0.16246 -0.951057 
-0.259892 -0.433889 -0.862668 
-0.262866 -0.16246 -0.951057 
0 -0.273267 -0.961938 
0.425325 0.587785 -0.688191 
0.259892 0.433889 -0.862668 
0.69378 0.702046 -0.160622 
0.587785 0.688191 -0.425325 
0.702046 0.160622 -0.69378 
0.688191 0.425325 -0.587785 
0.862668 0.259892 -0.433889 
0.69378 -0.702046 0.160622 
0.587785 -0.688191 0.425325 
0.433889 -0.862668 0.259892 
0.702046 -0.160622 0.69378 
0.688191 -0.425325 0.587785 
0.862668 -0.259892 0.433889 
0.160622 -0.69378 0.702046 
0.425325 -0.587785 0.688191 
0.259892 -0.433889 0.862668 
0.16246 -0.951057 0.262866 
0.273267 -0.961938 0 
-0.160622 -0.69378 0.702046 
0 -0.850651 0.525731 
-0.273267 -0.961938 0 
-0.16246 -0.951057 0.262866 
-0.433889 -0.862668 0.259892 
0.16246 -0.951057 -0.262866 
0.433889 -0.862668 -0.259892 
-0.433889 -0.862668 -0.259892 
-0.16246 -0.951057 -0.262866 
0.160622 -0.69378 -0.702046 
0 -0.850651 -0.525731 
-0.160622 -0.69378 -0.702046 
0.587785 -0.688191 -0.425325 
0.69378 -0.702046 -0.160622 
0.259892 -0.433889 -0.862668 
0.425325 -0.587785 -0.688191 
0.862668 -0.259892 -0.433889 
0.688191 -0.425325 -0.587785 
0.702046 -0.160622 -0.69378 
0.850651 -0.525731 0 
0.961938 0 -0.273267 
0.951057 -0.262866 -0.16246 
0.951057 -0.262866 0.16246 
0.961938 0 0.273267 
0.262866 -0.16246 0.951057 
0.525731 0 0.850651 
0.262866 0.16246 0.951057 
-0.587785 -0.688191 0.425325 
-0.425325 -0.587785 0.688191 
-0.688191 -0.425325 0.587785 
-0.425325 -0.587785 -0.688191 
-0.587785 -0.688191 -0.425325 
-0.688191 -0.425325 -0.587785 
0.525731 0 -0.850651 
0.262866 -0.16246 -0.951057 
0.262866 0.16246 -0.951057 
0.951057 0.262866 0.16246 
0.951057 0.262866 -0.16246 
0.850651 0.525731 0 
3 0 42 44 
3 12 43 42 
3 14 44 43 
3 42 43 44 
3 11 45 47 
3 13 46 45 
3 12 47 46 
3 45 46 47 
3 5 48 50 
3 14 49 48 
3 13 50 49 
3 48 49 50 
3 12 46 43 
3 13 49 46 
3 14 43 49 
3 46 49 43 
3 0 44 52 
3 14 51 44 
3 16 52 51 
3 44 51 52 
3 5 53 48 
3 15 54 53 
3 14 48 54 
3 53 54 48 
3 1 55 57 
3 16 56 55 
3 15 57 56 
3 55 56 57 
3 14 54 51 
3 15 56 54 
3 16 51 56 
3 54 56 51 
3 0 52 59 
3 16 58 52 
3 18 59 58 
3 52 58 59 
3 1 60 55 
3 17 61 60 
3 16 55 61 
3 60 61 55 
3 7 62 64 
3 18 63 62 
3 17 64 63 
3 62 63 64 
3 16 61 58 
3 17 63 61 
3 18 58 63 
3 61 63 58 
3 0 59 66 
3 18 65 59 
3 20 66 65 
3 59 65 66 
3 7 67 62 
3 19 68 67 
3 18 62 68 
3 67 68 62 
3 10 69 71 
3 20 70 69 
3 19 71 70 
3 69 70 71 
3 18 68 65 
3 19 70 68 
3 20 65 70 
3 68 70 65 
3 0 66 42 
3 20 72 66 
3 12 42 72 
3 66 72 42 
3 10 73 69 
3 21 74 73 
3 20 69 74 
3 73 74 69 
3 11 47 76 
3 12 75 47 
3 21 76 75 
3 47 75 76 
3 20 74 72 
3 21 75 74 
3 12 72 75 
3 74 75 72 
3 1 57 78 
3 15 77 57 
3 23 78 77 
3 57 77 78 
3 5 79 53 
3 22 80 79 
3 15 53 80 
3 79 80 53 
3 9 81 83 
3 23 82 81 
3 22 83 82 
3 81 82 83 
3 15 80 77 
3 22 82 80 
3 23 77 82 
3 80 82 77 
3 5 50 85 
3 13 84 50 
3 25 85 84 
3 50 84 85 
3 11 86 45 
3 24 87 86 
3 13 45 87 
3 86 87 45 
3 4 88 90 
3 25 89 88 
3 24 90 89 
3 88 89 90 
3 13 87 84 
3 24 89 87 
3 25 84 89 
3 87 89 84 
3 11 76 92 
3 21 91 76 
3 27 92 91 
3 76 91 92 
3 10 93 73 
3 26 94 93 
3 21 73 94 
3 93 94 73 
3 2 95 97 
3 27 96 95 
3 26 97 96 
3 95 96 97 
3 21 94 91 
3 26 96 94 
3 27 91 96 
3 94 96 91 
3 10 71 99 
3 19 98 71 
3 29 99 98 
3 71 98 99 
3 7 100 67 
3 28 101 100 
3 19 67 101 
3 100 101 67 
3 6 102 104 
3 29 103 102 
3 28 104 103 
3 102 103 104 
3 19 101 98 
3 28 103 101 
3 29 98 103 
3 101 103 98 
3 7 64 106 
3 17 105 64 
3 31 106 105 
3 64 105 106 
3 1 107 60 
3 30 108 107 
3 17 60 108 
3 107 108 60 
3 8 109 111 
3 31 110 109 
3 30 111 110 
3 109 110 111 
3 17 108 105 
3 30 110 108 
3 31 105 110 
3 108 110 105 
3 3 112 114 
3 32 113 112 
3 34 114 113 
3 112 113 114 
3 9 115 117 
3 33 116 115 
3 32 117 116 
3 115 116 117 
3 4 118 120 
3 34 119 118 
3 33 120 119 
3 118 119 120 
3 32 116 113 
3 33 119 116 
3 34 113 119 
3 116 119 113 
3 3 114 122 
3 34 121 114 
3 36 122 121 
3 114 121 122 
3 4 123 118 
3 35 124 123 
3 34 118 124 
3 123 124 118 
3 2 125 127 
3 36 126 125 
3 35 127 126 
3 125 126 127 
3 34 124 121 
3 35 126 124 
3 36 121 126 
3 124 126 121 
3 3 122 129 
3 36 128 122 
3 38 129 128 
3 122 128 129 
3 2 130 125 
3 37 131 130 
3 36 125 131 
3 130 131 125 
3 6 132 134 
3 38 133 132 
3 37 134 133 
3 132 133 134 
3 36 131 128 
3 37 133 131 
3 38 128 133 
3 131 133 128 
3 3 129 136 
3 38 135 129 
3 40 136 135 
3 129 135 136 
3 6 137 132 
3 39 138 137 
3 38 132 138 
3 137 138 132 
3 8 139 141 
3 40 140 139 
3 39 141 140 
3 139 140 141 
3 38 138 135 
3 39 140 138 
3 40 135 140 
3 138 140 135 
3 3 136 112 
3 40 142 136 
3 32 112 142 
3 136 142 112 
3 8 143 139 
3 41 144 143 
3 40 139 144 
3 143 144 139 
3 9 117 146 
3 32 145 117 
3 41 146 145 
3 117 145 146 
3 40 144 142 
3 41 145 144 
3 32 142 145 
3 144 145 142 
3 4 120 88 
3 33 147 120 
3 25 88 147 
3 120 147 88 
3 9 83 115 
3 22 148 83 
3 33 115 148 
3 83 148 115 
3 5 85 79 
3 25 149 85 
3 22 79 149 
3 85 149 79 
3 33 148 147 
3 22 149 148 
3 25 147 149 
3 148 149 147 
3 2 127 95 
3 35 150 127 
3 27 95 150 
3 127 150 95 
3 4 90 123 
3 24 151 90 
3 35 123 151 
3 90 151 123 
3 11 92 86 
3 27 152 92 
3 24 86 152 
3 92 152 86 
3 35 151 150 
3 24 152 151 
3 27 150 152 
3 151 152 150 
3 6 134 102 
3 37 153 134 
3 29 102 153 
3 134 153 102 
3 2 97 130 
3 26 154 97 
3 37 130 154 
3 97 154 130 
3 10 99 93 
3 29 155 99 
3 26 93 155 
3 99 155 93 
3 37 154 153 
3 26 155 154 
3 29 153 155 
3 154 155 153 
3 8 141 109 
3 39 156 141 
3 31 109 156 
3 141 156 109 
3 6 104 137 
3 28 157 104 
3 39 137 157 
3 104 157 137 
3 7 106 100 
3 31 158 106 
3 28 100 158 
3 106 158 100 
3 39 157 156 
3 28 158 157 
3 31 156 158 
3 157 158 156 
3 9 146 81 
3 41 159 146 
3 23 81 159 
3 146 159 81 
3 8 111 143 
3 30 160 111 
3 41 143 160 
3 111 160 143 
3 1 78 107 
3 23 161 78 
3 30 107 161 
3 78 161 107 
3 41 160 159 
3 30 161 160 
3 23 159 161 
3 160 161 159 
