ply
format ascii 1.0
comment Created by particle simulation https://github.com/viscenter/registration-toolkit
element dimensions 1
property float width
property float height
element vertex 25
property float x
property float y
property float z
property float nx
property float ny
property float nz
property float s
property float t
property uchar red
property uchar green
property uchar blue
element face 0
property list uchar int vertex_indices
end_header
25 1
0 0 0 0 0 0 0 0 0 0 0
0 0 1 0 0 0 0 0 1 1 45
0 0 2 0 0 0 0 0 2 2 90
0 0 3 0 0 0 0 0 3 3 135
0 0 4 0 0 0 0 0 4 4 180
1 0 0 0 0 0 0 0 1 35 1
1 0 1 0 0 0 0 0 2 36 46
1 0 2 0 0 0 0 0 3 37 91
1 0 3 0 0 0 0 0 4 38 136
1 0 4 0 0 0 0 0 5 39 181
2 0 0 0 0 0 0 0 2 70 2
2 0 1 0 0 0 0 0 3 71 47
2 0 2 0 0 0 0 0 4 72 92
2 0 3 0 0 0 0 0 5 73 137
2 0 4 0 0 0 0 0 6 74 182
3 0 0 0 0 0 0 0 3 105 3
3 0 1 0 0 0 0 0 4 106 48
3 0 2 0 0 0 0 0 5 107 93
3 0 3 0 0 0 0 0 6 108 138
3 0 4 0 0 0 0 0 7 109 183
4 0 0 0 0 0 0 0 4 140 4
4 0 1 0 0 0 0 0 5 141 49
4 0 2 0 0 0 0 0 6 142 94
4 0 3 0 0 0 0 0 7 143 139
4 0 4 0 0 0 0 0 8 144 184
